# 3ds Max Wavefront OBJ Exporter v0.97b - (c)2007 guruware
# File Created: 21.03.2019 09:32:24

mtllib Espejo.mtl

#
# object pCube1
#

v  -1.0912 0.6096 0.0953
v  -0.9055 0.6096 0.0953
v  -0.9055 4.1577 0.0953
v  -1.0912 4.1577 0.0953
v  -0.9055 4.1577 -0.0953
v  -1.0912 4.1577 -0.0953
v  -0.9055 0.6096 -0.0953
v  -1.0912 0.6096 -0.0953
# 8 vertices

vn 0.0000 -0.0000 1.0000
vn 0.0000 1.0000 0.0000
vn 0.0000 0.0000 -1.0000
vn 0.0000 -1.0000 -0.0000
vn 1.0000 0.0000 -0.0000
vn -1.0000 0.0000 -0.0000
# 6 vertex normals

vt 0.3750 0.0000 0.0000
vt 0.6250 0.0000 0.0000
vt 0.6250 0.2500 0.0000
vt 0.3750 0.2500 0.0000
vt 0.6250 0.5000 0.0000
vt 0.3750 0.5000 0.0000
vt 0.6250 0.7500 0.0000
vt 0.3750 0.7500 0.0000
vt 0.6250 1.0000 0.0000
vt 0.3750 1.0000 0.0000
vt 0.8750 0.0000 0.0000
vt 0.8750 0.2500 0.0000
vt 0.1250 0.0000 0.0000
vt 0.1250 0.2500 0.0000
# 14 texture coords

o pCube1
g pCube1
usemtl blinn1
s off
f 1/1/1 2/2/1 3/3/1 
f 3/3/1 4/4/1 1/1/1 
f 4/4/2 3/3/2 5/5/2 
f 5/5/2 6/6/2 4/4/2 
f 6/6/3 5/5/3 7/7/3 
f 7/7/3 8/8/3 6/6/3 
f 8/8/4 7/7/4 2/9/4 
f 2/9/4 1/10/4 8/8/4 
f 2/2/5 7/11/5 5/12/5 
f 5/12/5 3/3/5 2/2/5 
f 8/13/6 1/1/6 4/4/6 
f 4/4/6 6/14/6 8/13/6 
# 12 faces

#
# object pCube2
#

v  1.5758 0.6096 0.0953
v  1.7616 0.6096 0.0953
v  1.7616 4.1577 0.0953
v  1.5758 4.1577 0.0953
v  1.7616 4.1577 -0.0953
v  1.5758 4.1577 -0.0953
v  1.7616 0.6096 -0.0953
v  1.5758 0.6096 -0.0953
# 8 vertices

vn 0.0000 -0.0000 1.0000
vn 0.0000 1.0000 0.0000
vn 0.0000 0.0000 -1.0000
vn 0.0000 -1.0000 -0.0000
vn 1.0000 0.0000 -0.0000
vn -1.0000 0.0000 -0.0000
# 6 vertex normals

vt 0.3750 0.0000 0.0000
vt 0.6250 0.0000 0.0000
vt 0.6250 0.2500 0.0000
vt 0.3750 0.2500 0.0000
vt 0.6250 0.5000 0.0000
vt 0.3750 0.5000 0.0000
vt 0.6250 0.7500 0.0000
vt 0.3750 0.7500 0.0000
vt 0.6250 1.0000 0.0000
vt 0.3750 1.0000 0.0000
vt 0.8750 0.0000 0.0000
vt 0.8750 0.2500 0.0000
vt 0.1250 0.0000 0.0000
vt 0.1250 0.2500 0.0000
# 14 texture coords

o pCube2
g pCube2
usemtl blinn1
s off
f 9/15/7 10/16/7 11/17/7 
f 11/17/7 12/18/7 9/15/7 
f 12/18/8 11/17/8 13/19/8 
f 13/19/8 14/20/8 12/18/8 
f 14/20/9 13/19/9 15/21/9 
f 15/21/9 16/22/9 14/20/9 
f 16/22/10 15/21/10 10/23/10 
f 10/23/10 9/24/10 16/22/10 
f 10/16/11 15/25/11 13/26/11 
f 13/26/11 11/17/11 10/16/11 
f 16/27/12 9/15/12 12/18/12 
f 12/18/12 14/28/12 16/27/12 
# 12 faces

#
# object pCube3
#

v  1.7609 3.9757 0.0953
v  1.7618 4.1615 0.0953
v  -1.0816 4.1755 0.0953
v  -1.0825 3.9897 0.0953
v  -1.0816 4.1755 -0.0953
v  -1.0825 3.9897 -0.0953
v  1.7618 4.1615 -0.0953
v  1.7609 3.9757 -0.0953
# 8 vertices

vn 0.0000 -0.0000 1.0000
vn -1.0000 0.0049 0.0000
vn -0.0000 0.0000 -1.0000
vn 1.0000 -0.0049 -0.0000
vn 0.0049 1.0000 -0.0000
vn -0.0049 -1.0000 0.0000
# 6 vertex normals

vt 0.3750 0.0000 0.0000
vt 0.6250 0.0000 0.0000
vt 0.6250 0.2500 0.0000
vt 0.3750 0.2500 0.0000
vt 0.6250 0.5000 0.0000
vt 0.3750 0.5000 0.0000
vt 0.6250 0.7500 0.0000
vt 0.3750 0.7500 0.0000
vt 0.6250 1.0000 0.0000
vt 0.3750 1.0000 0.0000
vt 0.8750 0.0000 0.0000
vt 0.8750 0.2500 0.0000
vt 0.1250 0.0000 0.0000
vt 0.1250 0.2500 0.0000
# 14 texture coords

o pCube3
g pCube3
usemtl blinn1
s off
f 17/29/13 18/30/13 19/31/13 
f 19/31/13 20/32/13 17/29/13 
f 20/32/14 19/31/14 21/33/14 
f 21/33/14 22/34/14 20/32/14 
f 22/34/15 21/33/15 23/35/15 
f 23/35/15 24/36/15 22/34/15 
f 24/36/16 23/35/16 18/37/16 
f 18/37/16 17/38/16 24/36/16 
f 18/30/17 23/39/17 21/40/17 
f 21/40/17 19/31/17 18/30/17 
f 24/41/18 17/29/18 20/32/18 
f 20/32/18 22/42/18 24/41/18 
# 12 faces

#
# object pCube4
#

v  1.7609 0.5958 0.0953
v  1.7618 0.7816 0.0953
v  -1.0816 0.7956 0.0953
v  -1.0825 0.6098 0.0953
v  -1.0816 0.7956 -0.0953
v  -1.0825 0.6098 -0.0953
v  1.7618 0.7816 -0.0953
v  1.7609 0.5958 -0.0953
# 8 vertices

vn 0.0000 -0.0000 1.0000
vn -1.0000 0.0049 0.0000
vn -0.0000 0.0000 -1.0000
vn 1.0000 -0.0049 -0.0000
vn 0.0049 1.0000 -0.0000
vn -0.0049 -1.0000 0.0000
# 6 vertex normals

vt 0.3750 0.0000 0.0000
vt 0.6250 0.0000 0.0000
vt 0.6250 0.2500 0.0000
vt 0.3750 0.2500 0.0000
vt 0.6250 0.5000 0.0000
vt 0.3750 0.5000 0.0000
vt 0.6250 0.7500 0.0000
vt 0.3750 0.7500 0.0000
vt 0.6250 1.0000 0.0000
vt 0.3750 1.0000 0.0000
vt 0.8750 0.0000 0.0000
vt 0.8750 0.2500 0.0000
vt 0.1250 0.0000 0.0000
vt 0.1250 0.2500 0.0000
# 14 texture coords

o pCube4
g pCube4
usemtl blinn1
s off
f 25/43/19 26/44/19 27/45/19 
f 27/45/19 28/46/19 25/43/19 
f 28/46/20 27/45/20 29/47/20 
f 29/47/20 30/48/20 28/46/20 
f 30/48/21 29/47/21 31/49/21 
f 31/49/21 32/50/21 30/48/21 
f 32/50/22 31/49/22 26/51/22 
f 26/51/22 25/52/22 32/50/22 
f 26/44/23 31/53/23 29/54/23 
f 29/54/23 27/45/23 26/44/23 
f 32/55/24 25/43/24 28/46/24 
f 28/46/24 30/56/24 32/55/24 
# 12 faces

#
# object pCube5
#

v  -0.9536 0.6294 -0.0406
v  1.6098 0.6294 -0.0406
v  1.6098 4.0275 -0.0406
v  -0.9536 4.0275 -0.0406
v  1.6098 4.0275 -0.0904
v  -0.9536 4.0275 -0.0904
v  1.6098 0.6294 -0.0904
v  -0.9536 0.6294 -0.0904
# 8 vertices

vn 0.0000 -0.0000 1.0000
vn 0.0000 1.0000 0.0000
vn 0.0000 0.0000 -1.0000
vn 0.0000 -1.0000 -0.0000
vn 1.0000 0.0000 -0.0000
vn -1.0000 0.0000 -0.0000
# 6 vertex normals

vt 0.3750 0.0000 0.0000
vt 0.6250 0.0000 0.0000
vt 0.6250 0.2500 0.0000
vt 0.3750 0.2500 0.0000
vt 0.6250 0.5000 0.0000
vt 0.3750 0.5000 0.0000
vt 0.6250 0.7500 0.0000
vt 0.3750 0.7500 0.0000
vt 0.6250 1.0000 0.0000
vt 0.3750 1.0000 0.0000
vt 0.8750 0.0000 0.0000
vt 0.8750 0.2500 0.0000
vt 0.1250 0.0000 0.0000
vt 0.1250 0.2500 0.0000
# 14 texture coords

o pCube5
g pCube5
usemtl blinn2
s off
f 33/57/25 34/58/25 35/59/25 
f 35/59/25 36/60/25 33/57/25 
f 36/60/26 35/59/26 37/61/26 
f 37/61/26 38/62/26 36/60/26 
f 38/62/27 37/61/27 39/63/27 
f 39/63/27 40/64/27 38/62/27 
f 40/64/28 39/63/28 34/65/28 
f 34/65/28 33/66/28 40/64/28 
f 34/58/29 39/67/29 37/68/29 
f 37/68/29 35/59/29 34/58/29 
f 40/69/30 33/57/30 36/60/30 
f 36/60/30 38/70/30 40/69/30 
# 12 faces

