# 
# Generated by Sweet Home 3D - dom jun 02 08:56:51 CEST 2019
# http://www.sweethome3d.com/
# 
mtllib Pipoparedsola.mtl
g ground_1
usemtl ground_1
v -10.589233 0.0 18626.445
v -10.589233 0.0 18633.945
v 5237.9106 0.0 18633.945
v 5237.9106 0.0 18626.445
vn 0.0 1.0 0.0
vn 0.0 0.0 0.0
f 1//1 2//1 3//1
f 1//1 3//1 4//1
v -10.589233 0.0 5000.0
v 5000.0 0.0 18626.445
v 5000.0 0.0 5000.0
f 5//1 1//1 6//1
f 5//1 6//1 7//1
g wall_1_2
usemtl wall_1_2
v -10.589233 250.1 18630.195
v -10.589233 250.1 18633.945
v 5237.9106 250.1 18633.945
v 5237.9106 250.1 18630.195
vn 0.0 -1.0 0.0
f 11//3 10//3 9//3
f 11//3 9//3 8//3
g wall_1_3
usemtl wall_1_3
v -10.589233 250.1 18626.445
v 5237.9106 250.1 18626.445
f 13//3 11//3 8//3
f 13//3 8//3 12//3
g wall_1_4
usemtl wall_1_2
v -10.589233 512.19995 18633.945
v -10.589233 512.19995 18630.195
v 5237.9106 512.19995 18633.945
v 5237.9106 512.19995 18630.195
vt 0.0 12.505 0
vt 0.1875 12.505 0
vt 0.1875 25.609999 0
vt 0.0 25.609999 0
vt -262.42502 12.505 0
vt -262.42502 25.609999 0
vn -1.0 0.0 0.0
vn 0.0 0.0 1.0
vn 1.0 0.0 0.0
f 8/1/4 9/2/4 14/3/4 15/4/4
f 9/5/5 10/1/5 16/4/5 14/6/5
f 10/1/6 11/2/6 17/3/6 16/4/6
g wall_1_5
usemtl wall_1_3
v -10.589233 512.19995 18626.445
v 5237.9106 512.19995 18626.445
vn 0.0 0.0 -1.0
f 12//4 8//4 15//4 18//4
f 11//6 13//6 19//6 17//6
f 13//7 12//7 18//7 19//7
g wall_1_6
usemtl wall_1_2
f 15//1 14//1 16//1
f 15//1 16//1 17//1
g wall_1_7
usemtl wall_1_3
f 18//1 15//1 17//1
f 18//1 17//1 19//1
