# File produced by Open Asset Import Library (http://www.assimp.sf.net)
# (assimp v3.1.193236683)

mtllib Cartel Direccional.mtl

# 80 vertex positions
v  -7.9407 0 4.6183
v  -9.399 0 0.4516
v  -3.774 0 0.4516
v  -3.774 0 6.0766
v  -7.9407 0 -3.715
v  -3.774 0 -5.1734
v  0.392696 0 -3.715
v  1.851 0 0.4516
v  0.392696 0 4.6183
v  -7.9407 300 4.6183
v  -3.774 300 6.0766
v  -3.774 300 0.4516
v  -9.399 300 0.4516
v  0.392696 300 4.6183
v  1.851 300 0.4516
v  0.392696 300 -3.715
v  -3.774 300 -5.1734
v  -7.9407 300 -3.715
v  1.851 37.5 6.0766
v  1.851 150 6.0766
v  -3.774 150 7.9516
v  -3.774 37.5 7.9516
v  1.851 262.5 6.0766
v  -3.774 262.5 7.9516
v  -9.399 262.5 6.0766
v  -9.399 150 6.0766
v  -9.399 37.5 6.0766
v  1.851 37.5 -5.1734
v  1.851 150 -5.1734
v  3.726 150 0.4516
v  3.726 37.5 0.4516
v  1.851 262.5 -5.1734
v  3.726 262.5 0.4516
v  -9.399 37.5 -5.1734
v  -9.399 150 -5.1734
v  -3.774 150 -7.0484
v  -3.774 37.5 -7.0484
v  -9.399 262.5 -5.1734
v  -3.774 262.5 -7.0484
v  -11.274 150 0.4516
v  -11.274 37.5 0.4516
v  -11.274 262.5 0.4516
v  1.851 300 6.0766
v  -3.774 300 7.9516
v  -9.399 300 6.0766
v  -9.399 0 6.0766
v  -3.774 0 7.9516
v  1.851 0 6.0766
v  1.851 300 -5.1734
v  3.726 300 0.4516
v  3.726 0 0.4516
v  1.851 0 -5.1734
v  -9.399 300 -5.1734
v  -3.774 300 -7.0484
v  -3.774 0 -7.0484
v  -9.399 0 -5.1734
v  -11.274 300 0.4516
v  -11.274 0 0.4516
v  3.8691 282.134 -2.6554
v  124.301 282.134 -2.6554
v  116.54 267.716 -2.6554
v  3.8691 267.716 -2.6554
v  116.54 267.716 3.3446
v  124.301 282.134 3.3446
v  3.8691 282.134 3.3446
v  3.8691 267.716 3.3446
v  116.54 296.552 -2.6553
v  3.8691 296.552 -2.6553
v  3.8691 296.552 3.3446
v  116.54 296.552 3.3446
v  3.8691 282.134 -2.6779
v  124.301 282.134 -2.6779
v  116.54 267.716 3.3554
v  124.301 282.134 3.3554
v  3.8691 282.134 3.3554
v  3.8691 267.716 3.3554
v  3.8691 296.552 -2.6779
v  116.54 296.552 -2.6779
v  116.54 296.552 3.3554
v  3.8691 296.552 3.3554

# 124 UV coordinates
vt 0.171 0.0336 0
vt 0.1706 0.0189 0
vt 0.1884 0.0247 0
vt 0.1827 0.0425 0
vt 0.1795 0.0073 0
vt 0.1942 0.0069 0
vt 0.2059 0.0158 0
vt 0.2062 0.0305 0
vt 0.1973 0.0422 0
vt 0.1795 0.952 0
vt 0.1942 0.9517 0
vt 0.1884 0.9695 0
vt 0.1706 0.9637 0
vt 0.2059 0.9606 0
vt 0.2062 0.9753 0
vt 0.1973 0.9869 0
vt 0.1827 0.9873 0
vt 0.171 0.9784 0
vt 0.1213 0.1258 0
vt 0.1213 0.5 0
vt 0.1026 0.5 0
vt 0.1026 0.1258 0
vt 0.1213 0.8742 0
vt 0.1026 0.8742 0
vt 0.0838 0.8742 0
vt 0.0838 0.5 0
vt 0.0838 0.1258 0
vt 0.1627 0.1258 0
vt 0.1627 0.5 0
vt 0.144 0.5 0
vt 0.144 0.1258 0
vt 0.1627 0.8742 0
vt 0.144 0.8742 0
vt 0.1253 0.8742 0
vt 0.1253 0.5 0
vt 0.1253 0.1258 0
vt 0.0798 0.1258 0
vt 0.0798 0.5 0
vt 0.0611 0.5 0
vt 0.0611 0.1258 0
vt 0.0798 0.8742 0
vt 0.0611 0.8742 0
vt 0.0424 0.8742 0
vt 0.0424 0.5 0
vt 0.0424 0.1258 0
vt 0.0384 0.1258 0
vt 0.0384 0.5 0
vt 0.0197 0.5 0
vt 0.0197 0.1258 0
vt 0.0384 0.8742 0
vt 0.0197 0.8742 0
vt 0.001 0.8742 0
vt 0.001 0.5 0
vt 0.001 0.1258 0
vt 0.1213 0.999 0
vt 0.1026 0.999 0
vt 0.212 0.9575 0
vt 0.1961 0.9458 0
vt 0.1764 0.9459 0
vt 0.0838 0.999 0
vt 0.0838 0.001 0
vt 0.1026 0.001 0
vt 0.1649 0.0367 0
vt 0.1807 0.0485 0
vt 0.2004 0.0483 0
vt 0.1213 0.001 0
vt 0.1627 0.999 0
vt 0.144 0.999 0
vt 0.2004 0.9931 0
vt 0.2122 0.9772 0
vt 0.1253 0.999 0
vt 0.1253 0.001 0
vt 0.144 0.001 0
vt 0.2122 0.0324 0
vt 0.212 0.0127 0
vt 0.1627 0.001 0
vt 0.0798 0.999 0
vt 0.0611 0.999 0
vt 0.1649 0.9815 0
vt 0.1807 0.9932 0
vt 0.0424 0.999 0
vt 0.0424 0.001 0
vt 0.0611 0.001 0
vt 0.1961 0.001 0
vt 0.1764 0.0011 0
vt 0.0798 0.001 0
vt 0.0384 0.999 0
vt 0.0197 0.999 0
vt 0.1647 0.9618 0
vt 0.001 0.999 0
vt 0.001 0.001 0
vt 0.0197 0.001 0
vt 0.1647 0.017 0
vt 0.0384 0.001 0
vt 0.3916 1.2881 0
vt 0.3671 0.0715 0
vt 0.5113 0.1378 0
vt 0.5384 1.2845 0
vt 1 0 0
vt 1 0.5 0
vt 0 0.5 0
vt 0 0 0
vt 1 1 0
vt 0 1 0
vt 0.3588 0.0211 0
vt 0.5303 0.0758 0
vt 0.236 0.1492 0
vt 0.2448 1.2857 0
vt 0.1841 1.2811 0
vt 0.1931 0.1238 0
vt 0.5 0 0
vt 0.5 1 0
vt 0.839 0.1181 0
vt 0.02 0.4119 0
vt 0.0376 0.2949 0
vt 0.8038 0.02 0
vt 0.8566 0.7839 0
vt 0.8742 0.9009 0
vt 0.0552 0.607 0
vt 0.0904 0.509 0
vt 0.8742 0.2161 0
vt 0.108 0.491 0
vt 0.7862 0.98 0
vt 0.02 0.7051 0

# 30 vertex normals
vn 0 -1 -0
vn 0 1 -0
vn 0.7071 0 0.7071
vn 0 0 1
vn -0.7071 0 0.7071
vn 0.7071 0 -0.7071
vn 1 0 -0
vn -0.7071 0 -0.7071
vn -0 0 -1
vn -1 0 0
vn 0.5554 0.6189 0.5554
vn -0 0.6424 0.7664
vn -0.5554 0.6189 0.5554
vn -0.5554 -0.6189 0.5554
vn 0 -0.6424 0.7664
vn 0.5554 -0.6189 0.5554
vn 0.5554 0.6189 -0.5554
vn 0.7664 0.6424 0
vn 0.7664 -0.6424 -0
vn 0.5554 -0.6189 -0.5554
vn -0.5554 0.6189 -0.5554
vn 0 0.6424 -0.7664
vn -0 -0.6424 -0.7664
vn -0.5554 -0.6189 -0.5554
vn -0.7664 0.6424 -0
vn -0.7664 -0.6424 0
vn 0.8806 -0.474 -0
vn 0.8806 0.474 0
vn 0 -0.0008 -1
vn 0 -0.0016 -1

# Mesh 'g Box001_Box001' with 112 faces
g g Box001_Box001
usemtl wire_135110008
f  1/1/1 2/2/1 3/3/1
f  3/3/1 4/4/1 1/1/1
f  2/2/1 5/5/1 6/6/1
f  6/6/1 3/3/1 2/2/1
f  7/7/1 8/8/1 3/3/1
f  3/3/1 6/6/1 7/7/1
f  8/8/1 9/9/1 4/4/1
f  4/4/1 3/3/1 8/8/1
f  10/10/2 11/11/2 12/12/2
f  12/12/2 13/13/2 10/10/2
f  11/11/2 14/14/2 15/15/2
f  15/15/2 12/12/2 11/11/2
f  16/16/2 17/17/2 12/12/2
f  12/12/2 15/15/2 16/16/2
f  17/17/2 18/18/2 13/13/2
f  13/13/2 12/12/2 17/17/2
f  19/19/3 20/20/3 21/21/4
f  21/21/4 22/22/4 19/19/3
f  20/20/3 23/23/3 24/24/4
f  24/24/4 21/21/4 20/20/3
f  25/25/5 26/26/5 21/21/4
f  21/21/4 24/24/4 25/25/5
f  26/26/5 27/27/5 22/22/4
f  22/22/4 21/21/4 26/26/5
f  28/28/6 29/29/6 30/30/7
f  30/30/7 31/31/7 28/28/6
f  29/29/6 32/32/6 33/33/7
f  33/33/7 30/30/7 29/29/6
f  23/34/3 20/35/3 30/30/7
f  30/30/7 33/33/7 23/34/3
f  20/35/3 19/36/3 31/31/7
f  31/31/7 30/30/7 20/35/3
f  34/37/8 35/38/8 36/39/9
f  36/39/9 37/40/9 34/37/8
f  35/38/8 38/41/8 39/42/9
f  39/42/9 36/39/9 35/38/8
f  32/43/6 29/44/6 36/39/9
f  36/39/9 39/42/9 32/43/6
f  29/44/6 28/45/6 37/40/9
f  37/40/9 36/39/9 29/44/6
f  27/46/5 26/47/5 40/48/10
f  40/48/10 41/49/10 27/46/5
f  26/47/5 25/50/5 42/51/10
f  42/51/10 40/48/10 26/47/5
f  38/52/8 35/53/8 40/48/10
f  40/48/10 42/51/10 38/52/8
f  35/53/8 34/54/8 41/49/10
f  41/49/10 40/48/10 35/53/8
f  23/23/3 43/55/11 44/56/12
f  44/56/12 24/24/4 23/23/3
f  43/57/11 14/14/2 11/11/2
f  11/11/2 44/58/12 43/57/11
f  10/10/2 45/59/13 44/58/12
f  44/58/12 11/11/2 10/10/2
f  45/60/13 25/25/5 24/24/4
f  24/24/4 44/56/12 45/60/13
f  27/27/5 46/61/14 47/62/15
f  47/62/15 22/22/4 27/27/5
f  46/63/14 1/1/1 4/4/1
f  4/4/1 47/64/15 46/63/14
f  9/9/1 48/65/16 47/64/15
f  47/64/15 4/4/1 9/9/1
f  48/66/16 19/19/3 22/22/4
f  22/22/4 47/62/15 48/66/16
f  32/32/6 49/67/17 50/68/18
f  50/68/18 33/33/7 32/32/6
f  49/69/17 16/16/2 15/15/2
f  15/15/2 50/70/18 49/69/17
f  14/14/2 43/57/11 50/70/18
f  50/70/18 15/15/2 14/14/2
f  43/71/11 23/34/3 33/33/7
f  33/33/7 50/68/18 43/71/11
f  19/36/3 48/72/16 51/73/19
f  51/73/19 31/31/7 19/36/3
f  48/65/16 9/9/1 8/8/1
f  8/8/1 51/74/19 48/65/16
f  7/7/1 52/75/20 51/74/19
f  51/74/19 8/8/1 7/7/1
f  52/76/20 28/28/6 31/31/7
f  31/31/7 51/73/19 52/76/20
f  38/41/8 53/77/21 54/78/22
f  54/78/22 39/42/9 38/41/8
f  53/79/21 18/18/2 17/17/2
f  17/17/2 54/80/22 53/79/21
f  16/16/2 49/69/17 54/80/22
f  54/80/22 17/17/2 16/16/2
f  49/81/17 32/43/6 39/42/9
f  39/42/9 54/78/22 49/81/17
f  28/45/6 52/82/20 55/83/23
f  55/83/23 37/40/9 28/45/6
f  52/75/20 7/7/1 6/6/1
f  6/6/1 55/84/23 52/75/20
f  5/5/1 56/85/24 55/84/23
f  55/84/23 6/6/1 5/5/1
f  56/86/24 34/37/8 37/40/9
f  37/40/9 55/83/23 56/86/24
f  25/50/5 45/87/13 57/88/25
f  57/88/25 42/51/10 25/50/5
f  45/59/13 10/10/2 13/13/2
f  13/13/2 57/89/25 45/59/13
f  18/18/2 53/79/21 57/89/25
f  57/89/25 13/13/2 18/18/2
f  53/90/21 38/52/8 42/51/10
f  42/51/10 57/88/25 53/90/21
f  34/54/8 56/91/24 58/92/26
f  58/92/26 41/49/10 34/54/8
f  56/85/24 5/5/1 2/2/1
f  2/2/1 58/93/26 56/85/24
f  1/1/1 46/63/14 58/93/26
f  58/93/26 2/2/1 1/1/1
f  46/94/14 27/46/5 41/49/10
f  41/49/10 58/92/26 46/94/14

# Mesh 'g Box002_Box002' with 20 faces
g g Box002_Box002
usemtl wire_177148027
f  59/95/9 60/96/9 61/97/9
f  61/97/9 62/98/9 59/95/9
f  63/99/4 64/100/4 65/101/4
f  65/101/4 66/102/4 63/99/4
f  62/102/1 61/99/1 63/103/1
f  63/103/1 66/104/1 62/102/1
f  60/96/7 64/105/7 63/106/27
f  63/106/27 61/97/27 60/96/7
f  67/107/2 68/108/2 69/109/2
f  69/109/2 70/110/2 67/107/2
f  59/111/10 65/112/10 69/104/10
f  69/104/10 68/102/10 59/111/10
f  68/108/9 67/107/9 60/96/9
f  60/96/9 59/95/9 68/108/9
f  70/103/4 69/104/4 65/101/4
f  65/101/4 64/100/4 70/103/4
f  67/107/28 70/110/28 64/105/7
f  64/105/7 60/96/7 67/107/28
f  62/99/10 66/103/10 65/112/10
f  65/112/10 59/111/10 62/99/10

# Mesh 'g Box003_Box003' with 8 faces
g g Box003_Box003
usemtl wire_087225087
f  71/113/29 72/114/29 61/115/30
f  61/115/30 62/116/30 71/113/29
f  73/117/4 74/118/4 75/119/4
f  75/119/4 76/120/4 73/117/4
f  77/121/9 78/122/9 72/114/29
f  72/114/29 71/113/29 77/121/9
f  79/123/4 80/124/4 75/119/4
f  75/119/4 74/118/4 79/123/4

