# 3ds Max Wavefront OBJ Exporter v0.97b - (c)2007 guruware
# File Created: 20.03.2019 17:42:46

mtllib bañera.mtl

#
# object tub_low
#

v  -0.9018 -0.7285 0.2859
v  3.0789 -0.8716 0.2859
v  -0.9018 -1.0155 0.2089
v  3.0789 -1.1586 0.2089
v  3.5329 -1.1196 -1.6845
v  3.3270 -1.1196 -1.8904
v  3.3270 -1.3255 -1.6845
v  3.5760 -1.1586 -1.4365
v  3.3659 -1.3687 -1.4365
v  3.3659 -0.8716 -1.9336
v  3.5760 -0.8716 -1.7235
v  3.6529 -0.8716 -1.4365
v  3.3659 0.0065 -1.9336
v  3.0789 0.0065 -2.0105
v  3.0789 -0.8716 -2.0105
v  -1.8094 -1.6216 0.6082
v  4.0729 -1.6216 0.6082
v  -1.8094 0.0065 0.6082
v  4.0729 0.0065 0.6082
v  3.3659 -1.3687 -0.2882
v  3.0789 -1.4456 -0.2882
v  3.0789 -1.4456 -1.4365
v  -0.9018 0.0065 0.2859
v  3.0789 0.0065 0.2859
v  3.3270 -1.3255 -0.0401
v  3.0789 -1.3687 -0.0012
v  3.5760 0.0065 -1.7235
v  3.5760 -1.1586 -0.2882
v  3.3270 -1.1196 0.1658
v  3.5329 -1.1196 -0.0401
v  3.6529 -0.8716 -0.2882
v  3.5760 -0.8716 -0.0012
v  3.3659 -0.8716 0.2089
v  3.6529 0.0065 -1.4365
v  3.6529 0.0065 -0.2882
v  4.0729 -1.6216 -2.3329
v  4.0729 0.0065 -2.3329
v  3.5760 0.0065 -0.0012
v  3.3659 0.0065 0.2089
v  3.0789 -1.1586 -1.9336
v  3.0789 -1.3687 -1.7235
v  -0.9018 -1.2256 -0.0012
v  -0.9018 -1.3025 -0.2882
v  -1.1499 -0.9765 0.1658
v  -1.1888 -0.7285 0.2089
v  -1.3558 -0.9765 -0.0401
v  -1.1499 -1.1824 -0.0401
v  -1.3989 -0.7285 -0.0012
v  -1.4759 -0.7285 -0.2882
v  -1.3989 -1.0155 -0.2882
v  -0.9018 -1.3025 -1.4365
v  -1.1888 0.0065 0.2089
v  -1.1888 -1.2256 -0.2882
v  -0.9018 0.0065 -2.0105
v  -0.9018 -0.7285 -2.0105
v  -1.8094 -1.6216 -2.3329
v  -1.3989 0.0065 -0.0012
v  -0.9018 -1.2256 -1.7235
v  -0.9018 -1.0155 -1.9336
v  -1.4759 0.0065 -0.2882
v  -1.1888 -1.2256 -1.4365
v  -1.1499 -1.1824 -1.6845
v  -1.1499 -0.9765 -1.8904
v  -1.1888 -0.7285 -1.9336
v  -1.3989 -1.0155 -1.4365
v  -1.3558 -0.9765 -1.6845
v  -1.4759 -0.7285 -1.4365
v  -1.3989 -0.7285 -1.7235
v  -1.8094 0.0065 -2.3329
v  -1.4759 0.0065 -1.4365
v  -1.1888 0.0065 -1.9336
v  -1.3989 0.0065 -1.7235
# 72 vertices

vn 0.0187 0.0705 -0.9973
vn -0.0148 0.0670 -0.9976
vn 0.0298 0.4960 -0.8678
vn 0.0041 0.5045 -0.8634
vn -0.7920 0.4310 0.4324
vn -0.4310 0.4324 0.7920
vn -0.4324 0.7920 0.4310
vn -0.8648 0.5006 0.0393
vn -0.5008 0.8646 0.0395
vn -0.5006 0.0488 0.8643
vn -0.8641 0.0491 0.5009
vn -0.9967 0.0630 0.0505
vn -0.5000 -0.0000 0.8660
vn -0.0183 -0.0000 0.9998
vn -0.0148 0.0670 0.9976
vn 0.0000 -0.0000 1.0000
vn -0.5006 0.8648 -0.0393
vn 0.0164 0.9985 -0.0525
vn 0.0164 0.9985 0.0525
vn 0.0180 0.0000 -0.9998
vn -0.0183 0.0000 -0.9998
vn -0.4310 0.7920 -0.4324
vn 0.0163 0.8671 -0.4979
vn -0.8660 -0.0000 0.5000
vn -0.8646 0.5008 -0.0395
vn -0.4324 0.4310 -0.7920
vn -0.7920 0.4324 -0.4310
vn -0.9967 0.0630 -0.0505
vn -0.8643 0.0488 -0.5006
vn -0.5009 0.0491 -0.8641
vn -0.9986 -0.0000 0.0535
vn -0.9986 -0.0000 -0.0535
vn 1.0000 0.0000 -0.0000
vn -0.8660 0.0000 -0.5000
vn -0.5000 0.0000 -0.8660
vn 0.0041 0.5046 0.8633
vn 0.0164 0.8671 0.4978
vn 0.0422 0.8637 -0.5023
vn 0.0506 0.9973 -0.0529
vn 0.4310 0.4324 -0.7920
vn 0.5006 0.0560 -0.8638
vn 0.7920 0.4310 -0.4324
vn 0.4324 0.7920 -0.4310
vn 0.8636 0.0563 -0.5009
vn 0.9962 0.0719 -0.0501
vn 0.8648 0.5006 -0.0393
vn 0.0506 0.9973 0.0529
vn 0.5000 -0.0000 -0.8660
vn 0.5008 0.8646 -0.0395
vn 0.0180 -0.0000 0.9998
vn 0.0187 0.0705 0.9973
vn 0.0000 -1.0000 -0.0000
vn 0.8660 -0.0000 -0.5000
vn 0.0422 0.8636 0.5024
vn 0.0297 0.4959 0.8679
vn 0.9986 0.0000 -0.0535
vn 0.5006 0.8648 0.0393
vn 0.4310 0.7920 0.4324
vn 0.4324 0.4310 0.7920
vn 0.5009 0.0563 0.8636
vn 0.8646 0.5008 0.0395
vn 0.7920 0.4324 0.4310
vn 0.9962 0.0719 0.0501
vn 0.8638 0.0560 0.5006
vn 0.0000 0.0000 -1.0000
vn 0.9986 0.0000 0.0535
vn 0.5000 -0.0000 0.8660
vn 0.8660 -0.0000 0.5000
vn -1.0000 0.0000 -0.0000
vn -0.0000 1.0000 -0.0000
vn 0.0000 1.0000 0.0000
vn 0.0000 1.0000 -0.0000
# 72 vertex normals

vt 0.2753 0.1245 0.0000
vt 0.2788 0.4015 0.0000
vt 0.2548 0.1255 0.0000
vt 0.2583 0.4024 0.0000
vt 0.1204 0.4450 0.0000
vt 0.1026 0.4350 0.0000
vt 0.1192 0.4232 0.0000
vt 0.1382 0.4444 0.0000
vt 0.1380 0.4243 0.0000
vt 0.0938 0.4502 0.0000
vt 0.1116 0.4605 0.0000
vt 0.1180 0.4639 0.0000
vt 0.1385 0.4647 0.0000
vt 0.0156 0.4238 0.0000
vt 0.0158 0.4031 0.0000
vt 0.0773 0.4249 0.0000
vt 0.0768 0.4042 0.0000
vt 0.7995 0.5563 0.0000
vt 0.3909 0.5563 0.0000
vt 0.7995 0.4432 0.0000
vt 0.3909 0.4432 0.0000
vt 0.2185 0.4232 0.0000
vt 0.2175 0.4032 0.0000
vt 0.1382 0.4043 0.0000
vt 0.3263 0.1219 0.0000
vt 0.3397 0.3988 0.0000
vt 0.2372 0.4216 0.0000
vt 0.2379 0.4030 0.0000
vt 0.0809 0.5132 0.0000
vt 0.0631 0.5028 0.0000
vt 0.2186 0.4435 0.0000
vt 0.2592 0.4201 0.0000
vt 0.2494 0.4381 0.0000
vt 0.2367 0.4439 0.0000
vt 0.2187 0.4638 0.0000
vt 0.2393 0.4627 0.0000
vt 0.2785 0.4220 0.0000
vt 0.1392 0.5256 0.0000
vt 0.1184 0.5256 0.0000
vt 0.2195 0.5246 0.0000
vt 0.3909 0.7606 0.0000
vt 0.2778 0.5563 0.0000
vt 0.2779 0.7606 0.0000
vt 0.2648 0.4467 0.0000
vt 0.2748 0.4286 0.0000
vt 0.2402 0.5242 0.0000
vt 0.3404 0.4196 0.0000
vt 0.3282 0.4582 0.0000
vt 0.3182 0.4762 0.0000
vt 0.0965 0.4226 0.0000
vt 0.0973 0.4046 0.0000
vt 0.1178 0.4047 0.0000
vt 0.2343 0.1263 0.0000
vt 0.2138 0.1271 0.0000
vt 0.2547 0.1075 0.0000
vt 0.2733 0.1040 0.0000
vt 0.2314 0.0863 0.0000
vt 0.2492 0.0963 0.0000
vt 0.2325 0.1079 0.0000
vt 0.2339 0.0674 0.0000
vt 0.2134 0.0666 0.0000
vt 0.2136 0.0869 0.0000
vt 0.1344 0.1282 0.0000
vt 0.3249 0.1012 0.0000
vt 0.2139 0.1070 0.0000
vt 0.0220 0.1259 0.0000
vt 0.0730 0.1272 0.0000
vt 0.7995 0.7606 0.0000
vt 0.2657 0.0265 0.0000
vt 0.2835 0.0368 0.0000
vt 0.2401 0.0708 0.0000
vt 0.2580 0.0811 0.0000
vt 0.1139 0.1281 0.0000
vt 0.0935 0.1277 0.0000
vt 0.2130 0.0156 0.0000
vt 0.2338 0.0157 0.0000
vt 0.1336 0.1081 0.0000
vt 0.1152 0.1096 0.0000
vt 0.0935 0.1100 0.0000
vt 0.0746 0.1068 0.0000
vt 0.1335 0.0878 0.0000
vt 0.1155 0.0874 0.0000
vt 0.1333 0.0675 0.0000
vt 0.1127 0.0687 0.0000
vt 0.7995 0.8736 0.0000
vt 0.3909 0.8737 0.0000
vt 0.1039 0.0924 0.0000
vt 0.1325 0.0166 0.0000
vt 0.0228 0.1051 0.0000
vt 0.1118 0.0171 0.0000
vt 0.9126 0.7605 0.0000
vt 0.9125 0.5563 0.0000
vt 0.0346 0.0743 0.0000
vt 0.0453 0.0567 0.0000
vt 0.0782 0.1009 0.0000
vt 0.0889 0.0832 0.0000
vt 0.7764 0.3318 0.0000
vt 0.7764 0.2520 0.0000
vt 0.7995 0.3940 0.0000
vt 0.7995 0.1897 0.0000
vt 0.7365 0.2121 0.0000
vt 0.4600 0.2122 0.0000
vt 0.3910 0.1898 0.0000
vt 0.7564 0.2175 0.0000
vt 0.7710 0.2321 0.0000
vt 0.4401 0.2175 0.0000
vt 0.7710 0.3517 0.0000
vt 0.4255 0.2321 0.0000
vt 0.7564 0.3663 0.0000
vt 0.4202 0.2520 0.0000
vt 0.3910 0.3940 0.0000
vt 0.4202 0.3318 0.0000
vt 0.4255 0.3517 0.0000
vt 0.4401 0.3663 0.0000
vt 0.7365 0.3716 0.0000
vt 0.4600 0.3716 0.0000
# 116 texture coords

o tub_low
g tub_low
usemtl lambert1
s off
f 1/1/1 2/2/2 3/3/3 
f 3/3/3 2/2/2 4/4/4 
f 5/5/5 6/6/6 7/7/7 
f 5/5/5 7/7/7 8/8/8 
f 8/8/8 7/7/7 9/9/9 
f 6/6/6 5/5/5 10/10/10 
f 10/10/10 5/5/5 11/11/11 
f 11/12/11 5/5/5 12/13/12 
f 12/13/12 5/5/5 8/8/8 
f 13/14/13 14/15/14 10/16/10 
f 10/16/10 14/15/14 15/17/15 
f 16/18/16 17/19/16 18/20/16 
f 18/20/16 17/19/16 19/21/16 
f 20/22/17 9/9/9 21/23/18 
f 21/23/18 9/9/9 22/24/19 
f 23/25/20 24/26/21 1/1/1 
f 1/1/1 24/26/21 2/2/2 
f 20/22/17 21/23/18 25/27/22 
f 25/27/22 21/23/18 26/28/23 
f 27/29/24 13/30/13 11/11/11 
f 11/11/11 13/30/13 10/10/10 
f 28/31/25 8/8/8 20/22/17 
f 20/22/17 8/8/8 9/9/9 
f 25/27/22 29/32/26 30/33/27 
f 28/31/25 30/34/27 31/35/28 
f 31/35/28 30/34/27 32/36/29 
f 4/4/4 2/2/2 29/32/26 
f 29/32/26 2/2/2 33/37/30 
f 34/38/31 27/39/24 12/13/12 
f 12/13/12 27/39/24 11/12/11 
f 31/35/28 12/13/12 28/31/25 
f 28/31/25 12/13/12 8/8/8 
f 25/27/22 30/34/27 20/22/17 
f 20/22/17 30/34/27 28/31/25 
f 29/32/26 25/27/22 4/4/4 
f 4/4/4 25/27/22 26/28/23 
f 35/40/32 34/38/31 31/35/28 
f 31/35/28 34/38/31 12/13/12 
f 17/19/33 36/41/33 19/42/33 
f 19/42/33 36/41/33 37/43/33 
f 30/33/27 29/32/26 32/44/29 
f 32/44/29 29/32/26 33/45/30 
f 38/46/34 35/40/32 32/36/29 
f 32/36/29 35/40/32 31/35/28 
f 24/26/21 39/47/35 2/2/2 
f 2/2/2 39/47/35 33/37/30 
f 39/48/35 38/49/34 33/45/30 
f 33/45/30 38/49/34 32/44/29 
f 10/16/10 15/17/15 6/50/6 
f 6/50/6 15/17/15 40/51/36 
f 9/9/9 7/7/7 22/24/19 
f 22/24/19 7/7/7 41/52/37 
f 7/7/7 6/50/6 41/52/37 
f 41/52/37 6/50/6 40/51/36 
f 3/3/3 4/4/4 42/53/38 
f 42/53/38 4/4/4 26/28/23 
f 42/53/38 26/28/23 43/54/39 
f 43/54/39 26/28/23 21/23/18 
f 3/3/3 44/55/40 1/1/1 
f 1/1/1 44/55/40 45/56/41 
f 46/57/42 44/58/40 47/59/43 
f 48/60/44 46/57/42 49/61/45 
f 49/61/45 46/57/42 50/62/46 
f 51/63/47 43/54/39 22/24/19 
f 22/24/19 43/54/39 21/23/18 
f 52/64/48 23/25/20 45/56/41 
f 45/56/41 23/25/20 1/1/1 
f 53/65/49 47/59/43 43/54/39 
f 43/54/39 47/59/43 42/53/38 
f 54/66/50 55/67/51 14/15/14 
f 14/15/14 55/67/51 15/17/15 
f 56/68/52 36/41/52 16/18/52 
f 16/18/52 36/41/52 17/19/52 
f 57/69/53 52/70/48 48/71/44 
f 48/71/44 52/70/48 45/72/41 
f 22/24/19 41/52/37 51/63/47 
f 51/63/47 41/52/37 58/73/54 
f 40/51/36 15/17/15 59/74/55 
f 59/74/55 15/17/15 55/67/51 
f 41/52/37 40/51/36 58/73/54 
f 58/73/54 40/51/36 59/74/55 
f 60/75/56 57/76/53 49/61/45 
f 49/61/45 57/76/53 48/60/44 
f 61/77/57 51/63/47 62/78/58 
f 62/78/58 51/63/47 58/73/54 
f 59/74/55 55/67/51 63/79/59 
f 63/79/59 55/67/51 64/80/60 
f 65/81/61 66/82/62 67/83/63 
f 67/83/63 66/82/62 68/84/64 
f 69/85/65 37/86/65 56/68/65 
f 56/68/65 37/86/65 36/41/65 
f 47/59/43 44/55/40 42/53/38 
f 42/53/38 44/55/40 3/3/3 
f 44/58/40 46/57/42 45/72/41 
f 45/72/41 46/57/42 48/71/44 
f 62/78/58 63/79/59 66/87/62 
f 46/57/42 47/59/43 50/62/46 
f 50/62/46 47/59/43 53/65/49 
f 70/88/66 60/75/56 67/83/63 
f 67/83/63 60/75/56 49/61/45 
f 43/54/39 51/63/47 53/65/49 
f 53/65/49 51/63/47 61/77/57 
f 50/62/46 65/81/61 49/61/45 
f 49/61/45 65/81/61 67/83/63 
f 53/65/49 61/77/57 50/62/46 
f 50/62/46 61/77/57 65/81/61 
f 54/66/50 71/89/67 55/67/51 
f 55/67/51 71/89/67 64/80/60 
f 72/90/68 70/88/66 68/84/64 
f 68/84/64 70/88/66 67/83/63 
f 56/68/69 16/18/69 69/91/69 
f 69/91/69 16/18/69 18/92/69 
f 71/93/67 72/94/68 64/95/60 
f 64/95/60 72/94/68 68/96/64 
f 63/79/59 62/78/58 59/74/55 
f 59/74/55 62/78/58 58/73/54 
f 62/78/58 66/82/62 61/77/57 
f 61/77/57 66/82/62 65/81/61 
f 66/87/62 63/79/59 68/96/64 
f 68/96/64 63/79/59 64/95/60 
f 60/97/70 70/98/71 18/99/70 
f 18/99/70 70/98/71 69/100/71 
f 54/101/71 14/102/71 69/100/71 
f 69/100/71 14/102/71 37/103/71 
f 54/101/71 69/100/71 71/104/71 
f 70/98/71 72/105/71 69/100/71 
f 72/105/71 71/104/71 69/100/71 
f 14/102/71 13/106/71 37/103/71 
f 60/97/71 18/99/71 57/107/71 
f 13/106/71 27/108/71 37/103/71 
f 57/107/71 18/99/71 52/109/71 
f 27/108/71 34/110/71 37/103/71 
f 37/103/71 34/110/71 19/111/71 
f 34/110/71 35/112/71 19/111/71 
f 35/112/71 38/113/72 19/111/71 
f 38/113/72 39/114/71 19/111/71 
f 52/109/71 18/99/71 23/115/71 
f 18/99/71 19/111/71 23/115/71 
f 23/115/71 19/111/71 24/116/71 
f 19/111/71 39/114/71 24/116/71 
# 140 faces

#
# object overflow_low
#

v  3.6502 -0.2295 -1.0537
v  3.6502 -0.3108 -1.0873
v  3.6234 -0.2295 -1.0537
v  3.6234 -0.3108 -1.0873
v  3.6502 -0.3920 -1.0537
v  3.6234 -0.3920 -1.0537
v  3.6502 -0.4256 -0.9724
v  3.6234 -0.4256 -0.9724
v  3.6502 -0.3920 -0.8912
v  3.6234 -0.3920 -0.8912
v  3.6502 -0.3108 -0.8576
v  3.6234 -0.3108 -0.8576
v  3.6502 -0.2295 -0.8912
v  3.6234 -0.2295 -0.8912
v  3.6502 -0.1959 -0.9724
v  3.6234 -0.1959 -0.9724
v  3.6234 -0.3108 -0.9724
# 17 vertices

vn -0.0000 0.7071 -0.7071
vn -0.0000 -0.0000 -1.0000
vn 0.0000 -0.0000 -1.0000
vn 0.0000 -0.7071 -0.7071
vn -0.0000 -1.0000 0.0000
vn 0.0000 -0.7071 0.7071
vn 0.0000 0.0000 1.0000
vn -0.0000 0.0000 1.0000
vn -0.0000 0.7071 0.7071
vn -0.0000 1.0000 0.0000
vn -1.0000 -0.0000 -0.0000
vn -1.0000 0.0000 -0.0000
vn -1.0000 -0.0000 0.0000
# 13 vertex normals

vt 0.1445 0.6481 0.0000
vt 0.1410 0.6431 0.0000
vt 0.1460 0.6470 0.0000
vt 0.1426 0.6420 0.0000
vt 0.1407 0.6417 0.0000
vt 0.1418 0.6357 0.0000
vt 0.1436 0.6360 0.0000
vt 0.1426 0.6345 0.0000
vt 0.1476 0.6310 0.0000
vt 0.1487 0.6325 0.0000
vt 0.1490 0.6307 0.0000
vt 0.1550 0.6318 0.0000
vt 0.1547 0.6336 0.0000
vt 0.1562 0.6325 0.0000
vt 0.1597 0.6376 0.0000
vt 0.1582 0.6386 0.0000
vt 0.1600 0.6390 0.0000
vt 0.1589 0.6450 0.0000
vt 0.1571 0.6446 0.0000
vt 0.1581 0.6462 0.0000
vt 0.1531 0.6496 0.0000
vt 0.1520 0.6481 0.0000
vt 0.1517 0.6499 0.0000
vt 0.1457 0.6488 0.0000
vt 0.1504 0.6403 0.0000
# 25 texture coords

o overflow_low
g overflow_low
usemtl lambert1
s off
f 73/117/73 74/118/74 75/119/73 
f 75/119/73 74/118/74 76/120/75 
f 74/121/74 77/122/76 76/120/75 
f 76/120/75 77/122/76 78/123/76 
f 77/124/76 79/125/77 78/123/76 
f 78/123/76 79/125/77 80/126/77 
f 79/127/77 81/128/78 80/126/77 
f 80/126/77 81/128/78 82/129/78 
f 81/130/78 83/131/79 82/129/78 
f 82/129/78 83/131/79 84/132/80 
f 83/133/79 85/134/81 84/132/80 
f 84/132/80 85/134/81 86/135/81 
f 85/136/81 87/137/82 86/135/81 
f 86/135/81 87/137/82 88/138/82 
f 87/139/82 73/140/73 88/138/82 
f 88/138/82 73/140/73 75/119/73 
f 75/119/83 76/120/83 89/141/83 
f 76/120/83 78/123/84 89/141/83 
f 78/123/84 80/126/84 89/141/83 
f 80/126/84 82/129/85 89/141/83 
f 82/129/85 84/132/83 89/141/83 
f 84/132/83 86/135/84 89/141/83 
f 86/135/84 88/138/84 89/141/83 
f 88/138/84 75/119/83 89/141/83 
# 24 faces

#
# object drain_low
#

v  2.9755 -1.4466 -1.0856
v  2.8624 -1.4425 -1.1325
v  2.9769 -1.4093 -1.0856
v  2.8637 -1.4052 -1.1325
v  2.7493 -1.4384 -1.0856
v  2.7506 -1.4012 -1.0856
v  2.7024 -1.4368 -0.9724
v  2.7038 -1.3995 -0.9724
v  2.7493 -1.4384 -0.8592
v  2.7506 -1.4012 -0.8592
v  2.8624 -1.4425 -0.8123
v  2.8637 -1.4052 -0.8123
v  2.9755 -1.4466 -0.8592
v  2.9769 -1.4093 -0.8592
v  3.0224 -1.4483 -0.9724
v  3.0237 -1.4110 -0.9724
v  2.8637 -1.4052 -0.9724
# 17 vertices

vn 0.7066 -0.0254 -0.7071
vn -0.0000 0.0000 -1.0000
vn 0.0000 0.0000 -1.0000
vn -0.7066 0.0254 -0.7071
vn -0.9994 0.0360 -0.0000
vn -0.7066 0.0254 0.7071
vn -0.0000 -0.0000 1.0000
vn 0.0000 -0.0000 1.0000
vn 0.7066 -0.0254 0.7071
vn 0.7067 -0.0254 0.7071
vn 0.9994 -0.0360 0.0000
vn 0.9994 -0.0360 -0.0000
vn 0.0360 0.9994 0.0000
vn 0.0360 0.9994 -0.0000
# 14 vertex normals

vt 0.1124 0.6575 0.0000
vt 0.1050 0.6534 0.0000
vt 0.1137 0.6553 0.0000
vt 0.1063 0.6511 0.0000
vt 0.1038 0.6518 0.0000
vt 0.1014 0.6437 0.0000
vt 0.1039 0.6429 0.0000
vt 0.1017 0.6417 0.0000
vt 0.1058 0.6342 0.0000
vt 0.1081 0.6355 0.0000
vt 0.1073 0.6330 0.0000
vt 0.1155 0.6307 0.0000
vt 0.1162 0.6332 0.0000
vt 0.1175 0.6309 0.0000
vt 0.1249 0.6350 0.0000
vt 0.1237 0.6373 0.0000
vt 0.1262 0.6366 0.0000
vt 0.1285 0.6448 0.0000
vt 0.1260 0.6455 0.0000
vt 0.1283 0.6468 0.0000
vt 0.1241 0.6542 0.0000
vt 0.1219 0.6529 0.0000
vt 0.1226 0.6554 0.0000
vt 0.1144 0.6578 0.0000
vt 0.1150 0.6442 0.0000
# 25 texture coords

o drain_low
g drain_low
usemtl lambert1
s off
f 90/142/86 91/143/87 92/144/86 
f 92/144/86 91/143/87 93/145/88 
f 91/146/87 94/147/89 93/145/88 
f 93/145/88 94/147/89 95/148/89 
f 94/149/89 96/150/90 95/148/89 
f 95/148/89 96/150/90 97/151/90 
f 96/152/90 98/153/91 97/151/90 
f 97/151/90 98/153/91 99/154/91 
f 98/155/91 100/156/92 99/154/91 
f 99/154/91 100/156/92 101/157/93 
f 100/158/92 102/159/94 101/157/93 
f 101/157/93 102/159/94 103/160/95 
f 102/161/94 104/162/96 103/160/95 
f 103/160/95 104/162/96 105/163/97 
f 104/164/96 90/165/86 105/163/97 
f 105/163/97 90/165/86 92/144/86 
f 92/144/98 93/145/98 106/166/99 
f 93/145/98 95/148/98 106/166/99 
f 95/148/98 97/151/99 106/166/99 
f 97/151/99 99/154/99 106/166/99 
f 99/154/99 101/157/98 106/166/99 
f 101/157/98 103/160/98 106/166/99 
f 103/160/98 105/163/98 106/166/99 
f 105/163/98 92/144/98 106/166/99 
# 24 faces

#
# object tap_low
#

v  3.4293 0.3896 -0.9086
v  3.5581 0.3896 -0.9086
v  3.4293 0.5173 -0.9086
v  3.5581 0.5173 -0.9086
v  3.4293 0.5173 -1.0362
v  3.5581 0.5173 -1.0362
v  3.4293 0.3896 -1.0362
v  3.5581 0.3896 -1.0362
v  3.4293 0.2892 -1.0362
v  3.5581 0.2892 -1.0362
v  3.4293 0.2892 -0.9086
v  3.5581 0.2892 -0.9086
v  4.0400 0.5173 -0.9086
v  4.0400 0.5173 -1.0362
v  4.0400 0.3896 -1.0362
v  4.0400 0.3896 -0.9086
v  4.0400 0.5822 -0.7820
v  4.0400 0.0065 -0.7820
v  4.0400 0.5822 -1.1628
v  4.0400 0.0065 -1.1628
v  4.0697 0.5822 -0.7820
v  4.0697 0.0065 -0.7820
v  4.0697 0.5822 -1.1628
v  4.0697 0.0065 -1.1628
# 24 vertices

vn 0.0000 -0.0000 1.0000
vn 0.0000 1.0000 0.0000
vn 0.0000 0.0000 -1.0000
vn 0.0000 -1.0000 -0.0000
vn -1.0000 0.0000 -0.0000
vn 1.0000 0.0000 -0.0000
# 6 vertex normals

vt 0.1221 0.7421 0.0000
vt 0.1222 0.7510 0.0000
vt 0.1132 0.7422 0.0000
vt 0.1134 0.7512 0.0000
vt 0.1043 0.7423 0.0000
vt 0.1131 0.7333 0.0000
vt 0.1041 0.7335 0.0000
vt 0.1129 0.7244 0.0000
vt 0.1219 0.7332 0.0000
vt 0.1218 0.7243 0.0000
vt 0.1289 0.7331 0.0000
vt 0.1379 0.7330 0.0000
vt 0.1291 0.7420 0.0000
vt 0.1380 0.7418 0.0000
vt 0.0708 0.7429 0.0000
vt 0.0707 0.7340 0.0000
vt 0.1045 0.7601 0.0000
vt 0.1047 0.7689 0.0000
vt 0.0711 0.7606 0.0000
vt 0.0712 0.7695 0.0000
vt 0.1044 0.7512 0.0000
vt 0.0709 0.7517 0.0000
vt 0.1288 0.7242 0.0000
vt 0.1115 0.7600 0.0000
vt 0.1114 0.7511 0.0000
vt 0.1292 0.7509 0.0000
vt 0.1705 0.7617 0.0000
vt 0.1705 0.7528 0.0000
vt 0.1793 0.7662 0.0000
vt 0.1793 0.7262 0.0000
vt 0.1616 0.7617 0.0000
vt 0.1528 0.7662 0.0000
vt 0.1616 0.7528 0.0000
vt 0.1528 0.7262 0.0000
vt 0.1814 0.7662 0.0000
vt 0.1814 0.7262 0.0000
vt 0.1528 0.7683 0.0000
vt 0.1793 0.7683 0.0000
vt 0.1508 0.7262 0.0000
vt 0.1508 0.7662 0.0000
vt 0.1793 0.7242 0.0000
vt 0.1528 0.7242 0.0000
vt 0.1793 0.8083 0.0000
vt 0.1529 0.8083 0.0000
# 44 texture coords

o tap_low
g tap_low
usemtl lambert1
s off
f 107/167/100 108/168/100 109/169/100 
f 109/169/100 108/168/100 110/170/100 
f 109/169/101 110/171/101 111/172/101 
f 111/172/101 110/171/101 112/173/101 
f 111/172/102 112/174/102 113/175/102 
f 113/175/102 112/174/102 114/176/102 
f 115/177/103 116/178/103 117/179/103 
f 117/179/103 116/178/103 118/180/103 
f 113/175/104 107/167/104 111/172/104 
f 111/172/104 107/167/104 109/169/104 
f 110/171/101 119/181/101 112/173/101 
f 112/173/101 119/181/101 120/182/101 
f 114/183/102 112/184/102 121/185/102 
f 121/185/102 112/184/102 120/186/102 
f 108/187/103 114/183/103 122/188/103 
f 122/188/103 114/183/103 121/185/103 
f 110/171/100 108/187/100 119/181/100 
f 119/181/100 108/187/100 122/188/100 
f 113/175/102 114/176/102 115/177/102 
f 115/177/102 114/176/102 116/189/102 
f 114/183/105 108/187/105 116/190/105 
f 116/190/105 108/187/105 118/191/105 
f 108/168/100 107/167/100 118/192/100 
f 118/192/100 107/167/100 117/179/100 
f 107/167/104 113/175/104 117/179/104 
f 117/179/104 113/175/104 115/177/104 
f 119/193/104 122/194/104 123/195/104 
f 123/195/104 122/194/104 124/196/104 
f 120/197/104 119/193/104 125/198/104 
f 125/198/104 119/193/104 123/195/104 
f 120/197/104 125/198/104 121/199/104 
f 121/199/104 125/198/104 126/200/104 
f 122/194/104 121/199/104 124/196/104 
f 124/196/104 121/199/104 126/200/104 
f 123/195/100 124/196/100 127/201/100 
f 127/201/100 124/196/100 128/202/100 
f 125/198/101 123/195/101 129/203/101 
f 129/203/101 123/195/101 127/204/101 
f 126/200/102 125/198/102 130/205/102 
f 130/205/102 125/198/102 129/206/102 
f 124/196/103 126/200/103 128/207/103 
f 128/207/103 126/200/103 130/208/103 
f 127/204/105 128/209/105 129/203/105 
f 129/203/105 128/209/105 130/210/105 
# 44 faces

