# 3ds Max Wavefront OBJ Exporter v0.97b - (c)2007 guruware
# File Created: 03.06.2019 00:31:56

mtllib caja.mtl

#
# object crate002
#

v  -25.3532 4.2366 17.4238
v  24.8026 4.2366 17.4238
v  24.8026 55.9277 17.4238
v  -25.3532 55.9277 17.4238
v  29.0237 0.6796 20.5468
v  29.0268 59.4237 20.5488
v  24.8026 55.9277 20.5548
v  24.8026 4.2366 20.5548
v  -29.5682 59.5496 20.5548
v  -25.3532 55.9277 20.5548
v  -29.5087 0.6634 20.4265
v  -25.3532 4.2366 20.5548
v  16.4703 53.1083 18.6039
v  -23.7817 11.8320 18.6039
v  3.1142 28.6477 18.5092
v  23.4819 47.9805 18.5092
v  24.1518 48.5196 16.8760
v  16.9352 54.4867 16.9735
v  -24.8059 11.3419 16.9735
v  -18.5773 4.3192 16.8761
v  -18.0615 5.0074 18.5093
v  3.5285 28.9219 16.8760
v  26.6121 4.9270 -35.3778
v  26.6121 55.0828 -35.3778
v  26.6121 55.0828 16.3133
v  26.6121 4.9270 16.3133
v  29.7431 59.4987 -38.9440
v  29.7431 59.4550 19.9423
v  29.7431 55.0828 16.3133
v  29.7431 55.0828 -35.3778
v  29.7431 0.7120 19.9352
v  29.7431 4.9270 16.3133
v  29.7431 0.6076 -38.8953
v  29.7431 4.9270 -35.3778
v  29.0268 0.0049 19.9352
v  29.0268 0.0049 -38.9997
v  27.7923 46.7505 13.4939
v  27.7923 6.4985 -27.7825
v  27.6976 33.3944 -10.9667
v  27.6976 53.7621 8.3661
v  26.0644 54.4320 8.9052
v  26.1618 47.2154 14.8723
v  26.1618 5.4743 -28.2725
v  26.0644 11.7029 -35.2952
v  27.6976 12.2187 -34.6071
v  26.0644 33.8087 -10.6925
v  -25.3532 3.1359 -35.3778
v  24.8026 3.1359 -35.3778
v  24.8026 3.1359 16.3133
v  -25.3532 3.1359 16.3133
v  24.8026 0.0049 16.3133
v  24.8026 0.0049 -35.3778
v  -29.5682 0.0049 19.9352
v  -25.3532 0.0049 16.3133
v  -29.5682 0.0049 -38.9997
v  -25.3532 0.0049 -35.3778
v  -30.2753 0.6634 19.8914
v  -30.2753 0.6076 -38.8953
v  16.4703 1.9558 13.4939
v  -23.7817 1.9557 -27.7825
v  3.1142 2.0504 -10.9667
v  23.4819 2.0504 8.3661
v  24.1518 3.6836 8.9052
v  16.9352 3.5862 14.8723
v  -24.8059 3.5862 -28.2725
v  -18.5773 3.6836 -35.2952
v  -18.0615 2.0504 -34.6071
v  3.5285 3.6836 -10.6925
v  24.8210 57.0311 -35.3707
v  -25.3348 57.0311 -35.3707
v  -25.3348 57.0311 16.3204
v  24.8210 57.0311 16.3204
v  -29.5559 60.1541 -38.9278
v  -29.5590 60.1561 19.8164
v  -25.3348 60.1621 16.3204
v  -25.3348 60.1621 -35.3707
v  29.0360 60.1621 19.9423
v  24.8210 60.1621 16.3204
v  29.0360 60.1561 -38.9440
v  24.8210 60.1621 -35.3707
v  -17.0024 58.2112 13.5010
v  23.2495 58.2112 -27.7754
v  -3.6464 58.1166 -10.9596
v  -24.0140 58.1166 8.3732
v  -24.6840 56.4834 8.9123
v  -17.4674 56.5808 14.8794
v  24.2737 56.5808 -28.2654
v  18.0451 56.4834 -35.2881
v  17.5294 58.1166 -34.6000
v  -4.0607 56.4834 -10.6854
v  -26.9007 4.2295 -33.6403
v  -26.9007 4.2295 16.5154
v  -26.9007 55.9206 16.5154
v  -26.9007 55.9206 -33.6403
v  -30.2753 59.5425 19.6905
v  -30.2753 55.9206 15.4755
v  -30.2753 4.2295 15.4755
v  -30.2753 59.5425 -38.8953
v  -30.2753 55.9206 -34.6803
v  -30.2753 4.2295 -34.6803
v  -29.5590 0.6076 -39.6024
v  -29.5590 59.5425 -39.6024
v  -28.3244 53.1012 7.1431
v  -28.3245 11.8248 -33.1088
v  -28.2298 28.6406 -6.2129
v  -28.2298 47.9734 14.1547
v  -26.5966 48.5125 14.8247
v  -26.6940 54.4796 7.6081
v  -26.6940 11.3348 -34.1330
v  -26.5966 4.3121 -27.9044
v  -28.2298 5.0002 -27.3887
v  -26.5966 28.9148 -5.7986
v  24.8210 4.2295 -36.4714
v  -25.3348 4.2295 -36.4714
v  -25.3348 55.9206 -36.4714
v  24.8210 55.9206 -36.4714
v  29.0360 0.6076 -39.6024
v  -25.3348 55.9206 -39.6024
v  -25.3348 4.2295 -39.6024
v  29.0360 59.5425 -39.6024
v  24.8210 55.9206 -39.6024
v  24.8210 4.2295 -39.6024
v  -17.0024 53.1012 -37.6516
v  23.2495 11.8248 -37.6516
v  -3.6464 28.6406 -37.5569
v  -24.0140 47.9734 -37.5569
v  -24.6840 48.5125 -35.9237
v  -17.4674 54.4796 -36.0211
v  24.2737 11.3348 -36.0212
v  18.0451 4.3121 -35.9237
v  17.5293 5.0002 -37.5569
v  -4.0607 28.9148 -35.9237
# 132 vertices

vn 0.0000 0.0000 1.0000
vn 0.3164 -0.2872 0.9041
vn 0.3163 0.2968 0.9010
vn 0.0009 0.0004 1.0000
vn 0.0003 -0.0083 1.0000
vn -0.3466 0.3148 0.8836
vn -0.0076 -0.0001 1.0000
vn -0.3160 -0.2732 0.9086
vn -0.0082 -0.0087 0.9999
vn -0.0000 1.0000 -0.0000
vn -1.0000 0.0000 0.0000
vn 0.0000 -1.0000 0.0000
vn 1.0000 0.0000 -0.0000
vn 0.0085 -0.0073 0.9999
vn 0.0081 -0.0063 0.9999
vn 0.0085 -0.0072 0.9999
vn 0.5450 0.5917 0.5941
vn -0.7280 0.6076 0.3175
vn -0.6767 -0.5081 0.5328
vn 0.7612 -0.6460 0.0572
vn 0.7405 -0.6700 0.0517
vn 0.7708 -0.6343 0.0598
vn 0.0080 -0.0062 0.9999
vn 0.7903 -0.6092 0.0653
vn 1.0000 -0.0000 -0.0000
vn 0.8826 0.3152 -0.3487
vn 0.8693 0.3128 0.3827
vn 0.8700 -0.3171 0.3775
vn 0.8827 -0.3269 -0.3375
vn -0.0000 -0.0000 -1.0000
vn 0.3541 -0.8470 0.3965
vn 0.3527 -0.8555 -0.3792
vn 0.9999 0.0073 -0.0085
vn 0.9999 0.0069 -0.0074
vn 0.9999 0.0073 -0.0084
vn 0.5808 0.4578 0.6732
vn 0.3187 -0.6281 0.7099
vn 0.5405 -0.5899 -0.5999
vn 0.0573 0.6553 -0.7532
vn 0.0513 0.6314 -0.7737
vn 0.0604 0.6673 -0.7423
vn 1.0000 0.0069 -0.0072
vn 0.0663 0.6902 -0.7206
vn -0.3444 -0.8404 0.4184
vn -0.3519 -0.8555 -0.3798
vn -0.8736 -0.3109 0.3744
vn -0.8825 -0.3281 -0.3368
vn 0.0099 -0.9999 -0.0099
vn 0.0094 -0.9999 -0.0086
vn 0.0099 -0.9999 -0.0098
vn 0.5365 -0.5026 0.6779
vn -0.6928 -0.2596 0.6728
vn -0.6710 -0.4539 -0.5863
vn 0.7119 -0.0461 -0.7008
vn 0.6881 -0.0412 -0.7245
vn 0.7206 -0.0479 -0.6916
vn 0.0093 -0.9999 -0.0083
vn 0.7433 -0.0528 -0.6669
vn 0.0000 1.0000 -0.0000
vn -0.3417 0.8697 -0.3563
vn -0.3565 0.8607 0.3634
vn -0.0010 1.0000 0.0005
vn -0.0009 1.0000 -0.0012
vn 0.3528 0.8549 0.3802
vn 0.0004 1.0000 0.0005
vn 0.3597 0.8629 -0.3549
vn 0.0004 1.0000 -0.0012
vn -0.0099 0.9999 -0.0099
vn -0.0094 0.9999 -0.0086
vn -0.0099 0.9999 -0.0098
vn -0.5365 0.5026 0.6779
vn 0.6928 0.2596 0.6728
vn 0.6710 0.4539 -0.5863
vn -0.7119 0.0461 -0.7008
vn -0.6881 0.0412 -0.7245
vn -0.7206 0.0479 -0.6916
vn -0.0093 0.9999 -0.0083
vn -0.7433 0.0528 -0.6669
vn -0.8807 0.3438 0.3258
vn -1.0000 -0.0000 0.0000
vn -0.8760 0.3402 -0.3420
vn 0.2945 -0.0000 -0.9556
vn -0.0000 -1.0000 0.0000
vn -0.2945 0.0000 0.9556
vn -0.3426 -0.3101 -0.8868
vn -0.3404 0.3295 -0.8806
vn -0.9999 -0.0073 0.0085
vn -0.9999 -0.0063 0.0081
vn -0.9999 -0.0072 0.0085
vn -0.5941 0.5917 0.5450
vn -0.3175 0.6076 -0.7280
vn -0.5328 -0.5081 -0.6767
vn -0.0572 -0.6460 0.7612
vn -0.0517 -0.6700 0.7405
vn -0.0598 -0.6343 0.7708
vn -0.9999 -0.0062 0.0080
vn -0.0653 -0.6092 0.7903
vn 0.3419 -0.3111 -0.8867
vn -0.0000 0.0000 -1.0000
vn 0.3388 0.3323 -0.8802
vn -0.0085 -0.0073 -0.9999
vn -0.0081 -0.0063 -0.9999
vn -0.0085 -0.0072 -0.9999
vn -0.5450 0.5917 -0.5941
vn 0.7280 0.6076 -0.3175
vn 0.6767 -0.5081 -0.5328
vn -0.7612 -0.6460 -0.0572
vn -0.7405 -0.6700 -0.0517
vn -0.7708 -0.6343 -0.0598
vn -0.0080 -0.0062 -0.9999
vn -0.7903 -0.6092 -0.0653
# 111 vertex normals

vt 0.4659 0.5389 0.0000
vt 0.4659 0.9867 0.0000
vt 0.0181 0.9867 0.0000
vt 0.0181 0.5389 0.0000
vt 0.7270 0.5247 0.0000
vt 0.7271 0.0162 0.0000
vt 0.7570 0.0442 0.0000
vt 0.7572 0.4908 0.0000
vt 0.0060 0.0168 0.0000
vt 0.5031 0.0138 0.0000
vt 0.4712 0.0465 0.0000
vt 0.0365 0.0472 0.0000
vt 0.0062 0.0166 0.0000
vt 0.5025 0.0146 0.0000
vt 0.4714 0.0460 0.0000
vt 0.0366 0.0472 0.0000
vt 0.7571 0.4907 0.0000
vt 0.7571 0.0439 0.0000
vt 0.7817 0.0472 0.0000
vt 0.7817 0.4940 0.0000
vt 0.7807 0.0477 0.0000
vt 0.7816 0.4938 0.0000
vt 0.4712 0.0691 0.0000
vt 0.0365 0.0699 0.0000
vt 0.4715 0.0693 0.0000
vt 0.0363 0.0714 0.0000
vt 0.7271 0.5247 0.0000
vt 0.7272 0.0162 0.0000
vt 0.8148 0.5077 0.0000
vt 0.8017 0.0429 0.0000
vt 0.8682 0.2806 0.0000
vt 0.8831 0.5053 0.0000
vt 0.8837 0.5187 0.0000
vt 0.8107 0.5232 0.0000
vt 0.7890 0.0351 0.0000
vt 0.8021 0.5182 0.0000
vt 0.7966 0.0287 0.0000
vt 0.8703 0.0083 0.0000
vt 0.8715 0.0230 0.0000
vt 0.8804 0.2840 0.0000
vt 0.8956 0.5112 0.0000
vt 0.8838 0.0162 0.0000
vt 0.9281 0.5395 0.0000
vt 0.9281 0.9873 0.0000
vt 0.4803 0.9873 0.0000
vt 0.4803 0.5395 0.0000
vt 0.9896 0.4863 0.0000
vt 0.9885 0.9947 0.0000
vt 0.9577 0.9637 0.0000
vt 0.9572 0.5178 0.0000
vt 0.7160 0.0167 0.0000
vt 0.7167 0.5225 0.0000
vt 0.6805 0.4849 0.0000
vt 0.6803 0.0536 0.0000
vt 0.5730 0.5294 0.0000
vt 0.5727 0.0220 0.0000
vt 0.6020 0.0519 0.0000
vt 0.6041 0.4980 0.0000
vt 0.9459 0.4856 0.0000
vt 0.9421 0.0484 0.0000
vt 0.9695 0.0478 0.0000
vt 0.9719 0.4859 0.0000
vt 0.9340 0.9637 0.0000
vt 0.9340 0.5178 0.0000
vt 0.6533 0.4854 0.0000
vt 0.6533 0.0538 0.0000
vt 0.6252 0.0518 0.0000
vt 0.6273 0.4979 0.0000
vt 0.7228 0.5290 0.0000
vt 0.5638 0.0220 0.0000
vt 0.5649 0.5292 0.0000
vt 0.9086 0.5230 0.0000
vt 0.9045 0.0121 0.0000
vt 0.8138 0.5077 0.0000
vt 0.8006 0.0429 0.0000
vt 0.8671 0.2806 0.0000
vt 0.8820 0.5053 0.0000
vt 0.8826 0.5187 0.0000
vt 0.8096 0.5232 0.0000
vt 0.7879 0.0351 0.0000
vt 0.8022 0.5179 0.0000
vt 0.7965 0.0286 0.0000
vt 0.8692 0.0083 0.0000
vt 0.8704 0.0230 0.0000
vt 0.8804 0.2842 0.0000
vt 0.8945 0.5112 0.0000
vt 0.8837 0.0164 0.0000
vt 0.4678 0.0828 0.0000
vt 0.4678 0.5306 0.0000
vt 0.0200 0.5306 0.0000
vt 0.0200 0.0828 0.0000
vt 0.5342 0.4996 0.0000
vt 0.5333 0.0544 0.0000
vt 0.7162 0.0165 0.0000
vt 0.7166 0.5222 0.0000
vt 0.6808 0.4851 0.0000
vt 0.9458 0.4858 0.0000
vt 0.5100 0.4993 0.0000
vt 0.5100 0.0544 0.0000
vt 0.6533 0.4855 0.0000
vt 0.6531 0.0542 0.0000
vt 0.7230 0.5289 0.0000
vt 0.5025 0.0072 0.0000
vt 0.0060 0.0096 0.0000
vt 0.9086 0.5231 0.0000
vt 0.8148 0.5081 0.0000
vt 0.8017 0.0433 0.0000
vt 0.8682 0.2810 0.0000
vt 0.8831 0.5057 0.0000
vt 0.8837 0.5192 0.0000
vt 0.8107 0.5236 0.0000
vt 0.7890 0.0356 0.0000
vt 0.8021 0.5186 0.0000
vt 0.7964 0.0288 0.0000
vt 0.8703 0.0088 0.0000
vt 0.8715 0.0234 0.0000
vt 0.8804 0.2845 0.0000
vt 0.8956 0.5116 0.0000
vt 0.8838 0.0166 0.0000
vt 0.5031 0.0066 0.0000
vt 0.5094 0.0102 0.0000
vt 0.0060 0.0095 0.0000
vt 0.5726 0.0137 0.0000
vt 0.7202 0.0104 0.0000
vt 0.9959 0.9947 0.0000
vt 0.9964 0.4864 0.0000
vt 0.8979 0.0096 0.0000
vt 0.9009 0.5257 0.0000
vt 0.5091 0.0052 0.0000
# 129 texture coords

o crate002
g crate002
usemtl Material__51
s off
f 1/1/1 2/2/1 3/3/1 
f 3/3/1 4/4/1 1/1/1 
f 5/5/2 6/6/3 7/7/4 
f 7/7/4 8/8/5 5/5/2 
f 6/9/3 9/10/6 10/11/7 
f 10/11/7 7/12/4 6/9/3 
f 9/13/6 11/14/8 12/15/9 
f 12/15/9 10/16/7 9/13/6 
f 12/17/10 8/18/10 2/19/10 
f 2/19/10 1/20/10 12/17/10 
f 8/8/11 7/7/11 3/21/11 
f 3/21/11 2/22/11 8/8/11 
f 7/12/12 10/11/12 4/23/12 
f 4/23/12 3/24/12 7/12/12 
f 10/16/13 12/15/13 1/25/13 
f 1/25/13 4/26/13 10/16/13 
f 8/18/5 12/17/9 11/27/8 
f 11/27/8 5/28/2 8/18/5 
f 13/29/14 14/30/15 15/31/16 
f 15/31/16 16/32/14 13/29/14 
f 17/33/17 18/34/17 13/29/17 
f 13/29/17 16/32/17 17/33/17 
f 19/35/18 14/30/18 13/29/18 
f 13/29/18 18/36/18 19/35/18 
f 19/37/19 20/38/19 21/39/19 
f 21/39/19 14/30/19 19/37/19 
f 22/40/20 17/41/21 16/32/21 
f 16/32/21 15/31/22 22/40/20 
f 14/30/15 21/39/23 15/31/16 
f 21/39/24 20/42/24 22/40/20 
f 22/40/20 15/31/22 21/39/24 
f 23/43/25 24/44/25 25/45/25 
f 25/45/25 26/46/25 23/43/25 
f 27/47/26 28/48/27 29/49/25 
f 29/49/25 30/50/25 27/47/26 
f 28/51/27 31/52/28 32/53/25 
f 32/53/25 29/54/25 28/51/27 
f 31/55/28 33/56/29 34/57/25 
f 34/57/25 32/58/25 31/55/28 
f 34/59/1 30/60/1 24/61/1 
f 24/61/1 23/62/1 34/59/1 
f 30/50/12 29/49/12 25/63/12 
f 25/63/12 24/64/12 30/50/12 
f 29/54/30 32/53/30 26/65/30 
f 26/65/30 25/66/30 29/54/30 
f 32/58/10 34/57/10 23/67/10 
f 23/67/10 26/68/10 32/58/10 
f 31/52/28 5/5/2 35/69/31 
f 5/5/2 31/52/28 28/51/27 
f 28/51/27 6/6/3 5/5/2 
f 36/70/32 33/56/29 31/55/28 
f 31/55/28 35/71/31 36/70/32 
f 30/60/25 34/59/25 33/72/29 
f 33/72/29 27/73/26 30/60/25 
f 37/74/33 38/75/34 39/76/35 
f 39/76/35 40/77/33 37/74/33 
f 41/78/36 42/79/36 37/74/36 
f 37/74/36 40/77/36 41/78/36 
f 43/80/37 38/75/37 37/74/37 
f 37/74/37 42/81/37 43/80/37 
f 43/82/38 44/83/38 45/84/38 
f 45/84/38 38/75/38 43/82/38 
f 46/85/39 41/86/40 40/77/40 
f 40/77/40 39/76/41 46/85/39 
f 38/75/34 45/84/42 39/76/35 
f 45/84/43 44/87/43 46/85/39 
f 46/85/39 39/76/41 45/84/43 
f 47/88/12 48/89/12 49/90/12 
f 49/90/12 50/91/12 47/88/12 
f 36/70/32 35/71/31 51/92/12 
f 51/92/12 52/93/12 36/70/32 
f 35/94/31 53/95/44 54/96/12 
f 54/96/12 51/54/12 35/94/31 
f 53/13/44 55/14/45 56/15/12 
f 56/15/12 54/16/12 53/13/44 
f 56/97/1 52/60/1 48/61/1 
f 48/61/1 47/62/1 56/97/1 
f 52/93/11 51/92/11 49/98/11 
f 49/98/11 48/99/11 52/93/11 
f 51/54/30 54/96/30 50/100/30 
f 50/100/30 49/101/30 51/54/30 
f 54/16/13 56/15/13 47/25/13 
f 47/25/13 50/26/13 54/16/13 
f 53/95/44 11/27/8 57/102/46 
f 11/27/8 53/95/44 35/94/31 
f 35/94/31 5/28/2 11/27/8 
f 58/103/47 55/14/45 53/13/44 
f 53/13/44 57/104/46 58/103/47 
f 52/60/12 56/97/12 55/105/45 
f 55/105/45 36/73/32 52/60/12 
f 59/106/48 60/107/49 61/108/50 
f 61/108/50 62/109/48 59/106/48 
f 63/110/51 64/111/51 59/106/51 
f 59/106/51 62/109/51 63/110/51 
f 65/112/52 60/107/52 59/106/52 
f 59/106/52 64/113/52 65/112/52 
f 65/114/53 66/115/53 67/116/53 
f 67/116/53 60/107/53 65/114/53 
f 68/117/54 63/118/55 62/109/55 
f 62/109/55 61/108/56 68/117/54 
f 60/107/49 67/116/57 61/108/50 
f 67/116/58 66/119/58 68/117/54 
f 68/117/54 61/108/56 67/116/58 
f 69/1/59 70/2/59 71/3/59 
f 71/3/59 72/4/59 69/1/59 
f 73/5/60 74/6/61 75/7/62 
f 75/7/62 76/8/63 73/5/60 
f 74/9/61 77/10/64 78/11/65 
f 78/11/65 75/12/62 74/9/61 
f 77/13/64 79/14/66 80/15/67 
f 80/15/67 78/16/65 77/13/64 
f 80/17/1 76/18/1 70/19/1 
f 70/19/1 69/20/1 80/17/1 
f 76/8/13 75/7/13 71/21/13 
f 71/21/13 70/22/13 76/8/13 
f 75/12/30 78/11/30 72/23/30 
f 72/23/30 71/24/30 75/12/30 
f 78/16/11 80/15/11 69/25/11 
f 69/25/11 72/26/11 78/16/11 
f 77/10/64 6/120/3 28/121/27 
f 6/120/3 77/10/64 74/9/61 
f 74/9/61 9/122/6 6/120/3 
f 27/103/26 79/14/66 77/13/64 
f 77/13/64 28/104/27 27/103/26 
f 76/18/63 80/17/67 79/27/66 
f 79/27/66 73/28/60 76/18/63 
f 81/29/68 82/30/69 83/31/70 
f 83/31/70 84/32/68 81/29/68 
f 85/33/71 86/34/71 81/29/71 
f 81/29/71 84/32/71 85/33/71 
f 87/35/72 82/30/72 81/29/72 
f 81/29/72 86/36/72 87/35/72 
f 87/37/73 88/38/73 89/39/73 
f 89/39/73 82/30/73 87/37/73 
f 90/40/74 85/41/75 84/32/75 
f 84/32/75 83/31/76 90/40/74 
f 82/30/69 89/39/77 83/31/70 
f 89/39/78 88/42/78 90/40/74 
f 90/40/74 83/31/76 89/39/78 
f 91/43/11 92/44/11 93/45/11 
f 93/45/11 94/46/11 91/43/11 
f 57/47/46 95/48/79 96/49/11 
f 96/49/11 97/50/80 57/47/46 
f 95/51/79 98/52/81 99/53/11 
f 99/53/11 96/54/11 95/51/79 
f 98/55/81 58/56/47 100/57/80 
f 100/57/80 99/58/11 98/55/81 
f 100/59/59 97/60/59 92/61/59 
f 92/61/59 91/62/59 100/59/59 
f 97/50/82 96/49/82 93/63/82 
f 93/63/82 92/64/82 97/50/82 
f 96/54/83 99/53/83 94/65/83 
f 94/65/83 93/66/83 96/54/83 
f 99/58/84 100/57/84 91/67/84 
f 91/67/84 94/68/84 99/58/84 
f 58/56/47 101/70/85 55/123/45 
f 9/124/6 74/6/61 95/51/79 
f 98/52/81 73/5/60 102/69/86 
f 73/5/60 98/52/81 95/51/79 
f 95/51/79 74/6/61 73/5/60 
f 9/125/6 95/48/79 57/47/46 
f 57/47/46 11/126/8 9/125/6 
f 101/70/85 58/56/47 98/55/81 
f 98/55/81 102/71/86 101/70/85 
f 97/60/80 100/59/80 58/72/47 
f 58/72/47 57/73/46 97/60/80 
f 103/74/87 104/75/88 105/76/89 
f 105/76/89 106/77/87 103/74/87 
f 107/78/90 108/79/90 103/74/90 
f 103/74/90 106/77/90 107/78/90 
f 109/80/91 104/75/91 103/74/91 
f 103/74/91 108/81/91 109/80/91 
f 109/82/92 110/83/92 111/84/92 
f 111/84/92 104/75/92 109/82/92 
f 112/85/93 107/86/94 106/77/94 
f 106/77/94 105/76/95 112/85/93 
f 104/75/88 111/84/96 105/76/89 
f 111/84/97 110/87/97 112/85/93 
f 112/85/93 105/76/95 111/84/97 
f 113/88/30 114/89/30 115/90/30 
f 115/90/30 116/91/30 113/88/30 
f 55/127/45 101/73/85 117/105/98 
f 117/105/98 36/128/32 55/127/45 
f 101/70/85 102/71/86 118/92/99 
f 118/92/99 119/93/30 101/70/85 
f 102/94/86 120/95/100 121/96/99 
f 121/96/99 118/54/99 102/94/86 
f 120/13/100 117/14/98 122/15/30 
f 122/15/30 121/16/99 120/13/100 
f 122/97/59 119/60/59 114/61/59 
f 114/61/59 113/62/59 122/97/59 
f 119/93/25 118/92/25 115/98/25 
f 115/98/25 114/99/25 119/93/25 
f 118/54/12 121/96/12 116/100/12 
f 116/100/12 115/101/12 118/54/12 
f 121/16/11 122/15/11 113/25/11 
f 113/25/11 116/26/11 121/16/11 
f 117/14/98 33/103/29 36/129/32 
f 120/95/100 79/27/66 27/102/26 
f 79/27/66 120/95/100 102/94/86 
f 102/94/86 73/28/60 79/27/66 
f 33/103/29 117/14/98 120/13/100 
f 120/13/100 27/104/26 33/103/29 
f 119/60/30 122/97/30 117/105/98 
f 117/105/98 101/73/85 119/60/30 
f 123/106/101 124/107/102 125/108/103 
f 125/108/103 126/109/101 123/106/101 
f 127/110/104 128/111/104 123/106/104 
f 123/106/104 126/109/104 127/110/104 
f 129/112/105 124/107/105 123/106/105 
f 123/106/105 128/113/105 129/112/105 
f 129/114/106 130/115/106 131/116/106 
f 131/116/106 124/107/106 129/114/106 
f 132/117/107 127/118/108 126/109/108 
f 126/109/108 125/108/109 132/117/107 
f 124/107/102 131/116/110 125/108/103 
f 131/116/111 130/119/111 132/117/107 
f 132/117/107 125/108/109 131/116/111 
# 218 faces

