# 3ds Max Wavefront OBJ Exporter v0.97b - (c)2007 guruware
# File Created: 30.05.2019 18:52:15

mtllib sueloalmacen4.mtl

#
# object Box001
#

v  76.9914 11.6700 -61.7974
v  73.7490 11.6700 49.1883
v  73.1463 11.6700 49.1883
v  71.5339 11.6700 -61.7974
v  73.7490 13.1809 49.1883
v  76.9914 13.1809 -61.7974
v  71.5339 13.1809 -61.7974
v  73.1463 13.1809 49.1883
v  73.7490 11.6700 49.1734
v  73.7490 13.1809 49.1734
v  71.5339 13.1809 49.1734
v  71.5339 11.6700 49.1734
v  200.5273 11.6700 69.6124
v  200.5273 11.6700 -61.7974
v  200.5273 13.1809 -61.7974
v  200.5273 13.1809 69.6124
v  130.5763 11.6700 -61.7974
v  130.5763 13.1809 -61.7974
v  -95.5967 11.6700 -61.7974
v  -95.5967 11.6700 69.6124
v  -95.5967 13.1809 69.6124
v  -95.5967 13.1809 -61.7974
v  130.5763 11.6700 69.6124
v  130.5763 13.1809 69.6124
v  128.3112 11.6700 -61.7974
v  128.3112 13.1809 -61.7974
v  127.1243 11.6700 49.0025
v  127.1243 13.1809 49.0025
v  130.5763 11.6700 72.0025
v  130.5763 13.1809 72.0025
v  127.1243 13.1809 72.0025
v  127.1243 11.6700 72.0025
v  111.6063 11.6700 -61.7974
v  111.6063 13.1809 -61.7974
v  112.8470 11.6700 49.0025
v  112.8470 13.1809 49.0025
v  109.4357 11.6700 -61.7974
v  109.4357 13.1809 -61.7974
v  109.4357 11.6700 69.6124
v  109.4357 13.1809 69.6124
v  112.8470 11.6700 72.0025
v  112.8470 13.1809 72.0025
v  109.4357 13.1809 72.0025
v  109.4357 11.6700 72.0025
v  83.2145 11.6700 -61.7974
v  83.2145 13.1809 -61.7974
v  88.3102 13.1809 -61.7974
v  88.3102 11.6700 -61.7974
v  90.4483 11.6700 69.6124
v  90.4483 11.6700 -61.7974
v  86.9064 11.6700 49.1883
v  -3.9544 11.6700 69.6124
v  -3.9544 11.6700 -61.7974
v  40.7603 11.6700 -61.7974
v  40.7603 11.6700 69.6124
v  69.2963 11.6700 69.6124
v  69.2963 11.6700 -61.7974
v  90.4483 13.1809 -61.7974
v  90.4483 13.1809 69.6124
v  86.9064 13.1809 49.1883
v  -3.9544 13.1809 -61.7974
v  -3.9544 13.1809 69.6124
v  40.7603 13.1809 69.6124
v  40.7603 13.1809 -61.7974
v  69.2963 13.1809 -61.7974
v  69.2963 13.1809 69.6124
v  90.4483 11.6700 72.0084
v  90.4483 13.1809 72.0084
v  86.9064 13.1809 72.0084
v  86.9064 11.6700 72.0084
v  69.2963 13.1809 72.0084
v  69.2963 11.6700 72.0084
v  73.1463 11.6700 72.0084
v  73.1463 13.1809 72.0084
v  -12.9154 11.6700 -61.7974
v  -12.9154 11.6700 69.6124
v  49.9960 11.6700 69.6124
v  49.9960 11.6700 -61.7974
v  -12.9154 13.1809 69.6124
v  -12.9154 13.1809 -61.7974
v  49.9960 13.1809 -61.7974
v  49.9960 13.1809 69.6124
v  -12.9154 13.1809 133.3457
v  -12.9154 11.6700 133.3457
v  -3.9544 11.6700 133.3457
v  -3.9544 13.1809 133.3457
v  49.9960 11.6700 133.3457
v  49.9960 13.1809 133.3457
v  40.7603 13.1809 133.3457
v  40.7603 11.6700 133.3457
v  86.5842 11.6700 49.1883
v  86.5842 13.1809 49.1883
v  88.3102 11.6700 49.2303
v  88.3102 13.1809 49.2303
v  86.5842 13.1809 49.2303
v  86.5842 11.6700 49.2303
# 96 vertices

vn 0.0000 -1.0000 -0.0000
vn 0.0000 1.0000 -0.0000
vn 0.0000 0.0000 1.0000
vn 1.0000 0.0000 -0.0000
vn 0.0000 0.0000 -1.0000
vn -1.0000 0.0000 -0.0000
vn -1.0000 -0.0000 -0.0000
vn 1.0000 -0.0000 -0.0000
vn 0.0299 0.0000 -0.9996
vn 0.0092 -0.0000 -1.0000
# 10 vertex normals

vt 0.9719 1.0000 0.0000
vt 0.9719 0.0000 0.0000
vt 0.9750 0.0000 0.0000
vt 0.9750 1.0000 0.0000
vt 0.0281 0.0000 0.0000
vt 0.0281 1.0000 0.0000
vt 0.0250 1.0000 0.0000
vt 0.0250 0.0000 0.0000
vt 0.0000 0.0000 0.0000
vt 1.0000 0.0000 0.0000
vt 1.0000 1.0000 0.0000
vt 0.0000 1.0000 0.0000
vt 0.5000 0.0000 0.0000
vt 0.5000 1.0000 0.0000
vt 0.7500 0.0000 0.0000
vt 0.7500 1.0000 0.0000
vt 0.2500 1.0000 0.0000
vt 0.2500 0.0000 0.0000
vt 0.8750 0.0000 0.0000
vt 0.8750 1.0000 0.0000
vt 0.1250 1.0000 0.0000
vt 0.1250 0.0000 0.0000
vt 0.9375 0.0000 0.0000
vt 0.9375 1.0000 0.0000
vt 0.0625 1.0000 0.0000
vt 0.0625 0.0000 0.0000
vt 0.9688 0.0000 0.0000
vt 0.9688 1.0000 0.0000
vt 0.9625 1.0000 0.0000
vt 0.9625 0.0000 0.0000
vt 0.9500 0.0000 0.0000
vt 0.9500 1.0000 0.0000
vt 0.9950 0.0000 0.0000
vt 0.9950 1.0000 0.0000
vt 0.9925 1.0000 0.0000
vt 0.9925 0.0000 0.0000
vt 0.9875 0.0000 0.0000
vt 0.9875 1.0000 0.0000
vt 0.0500 1.0000 0.0000
vt 0.0500 0.0000 0.0000
vt 0.0375 1.0000 0.0000
vt 0.0375 0.0000 0.0000
vt 0.0050 1.0000 0.0000
vt 0.0050 0.0000 0.0000
vt 0.0075 0.0000 0.0000
vt 0.0075 1.0000 0.0000
vt 0.0125 1.0000 0.0000
vt 0.0125 0.0000 0.0000
vt 0.9975 1.0000 0.0000
vt 0.9975 0.0000 0.0000
vt 0.9900 0.0000 0.0000
vt 0.9900 1.0000 0.0000
vt 0.0025 0.0000 0.0000
vt 0.0025 1.0000 0.0000
vt 0.0100 1.0000 0.0000
vt 0.0100 0.0000 0.0000
vt 0.0313 1.0000 0.0000
vt 0.0313 0.0000 0.0000
# 58 texture coords

o Box001
g Box001
usemtl wire_028089177
s 2
f 1/1/1 2/2/1 3/3/1 
f 3/3/1 4/4/1 1/1/1 
s 4
f 5/5/2 6/6/2 7/7/2 
f 7/7/2 8/8/2 5/5/2 
s 8
f 9/5/3 10/6/3 11/7/3 
f 11/7/3 12/8/3 9/5/3 
s 16
f 13/9/4 14/10/4 15/11/4 
f 15/11/4 16/12/4 13/9/4 
s 32
f 17/13/5 18/14/5 15/12/5 
f 15/12/5 14/9/5 17/13/5 
s 64
f 19/9/6 20/10/6 21/11/6 
f 21/11/6 22/12/6 19/9/6 
s 2
f 14/12/1 13/9/1 23/13/1 
f 23/13/1 17/14/1 14/12/1 
s 4
f 16/10/2 15/11/2 18/14/2 
f 18/14/2 24/13/2 16/10/2 
s 8
f 13/10/3 16/11/3 24/14/3 
f 24/14/3 23/13/3 13/10/3 
s 32
f 25/15/5 26/16/5 18/14/5 
f 18/14/5 17/13/5 25/15/5 
s 2
f 17/14/1 23/13/1 27/15/1 
f 27/15/1 25/16/1 17/14/1 
s 4
f 24/13/2 18/14/2 26/17/2 
f 26/17/2 28/18/2 24/13/2 
s 8
f 29/13/3 30/14/3 31/17/3 
f 31/17/3 32/18/3 29/13/3 
s 32
f 33/19/5 34/20/5 26/16/5 
f 26/16/5 25/15/5 33/19/5 
s 2
f 25/16/1 27/15/1 35/19/1 
f 35/19/1 33/20/1 25/16/1 
s 4
f 28/18/2 26/17/2 34/21/2 
f 34/21/2 36/22/2 28/18/2 
s 8
f 27/18/3 28/17/3 36/21/3 
f 36/21/3 35/22/3 27/18/3 
s 32
f 37/23/5 38/24/5 34/20/5 
f 34/20/5 33/19/5 37/23/5 
s 2
f 33/20/1 35/19/1 39/23/1 
f 39/23/1 37/24/1 33/20/1 
s 4
f 36/22/2 34/21/2 38/25/2 
f 38/25/2 40/26/2 36/22/2 
s 8
f 41/22/3 42/21/3 43/25/3 
f 43/25/3 44/26/3 41/22/3 
s 32
f 45/27/5 46/28/5 47/29/5 
f 47/29/5 48/30/5 45/27/5 
s off
f 27/18/1 23/13/1 29/13/1 
f 29/13/1 32/18/1 27/18/1 
f 23/13/4 24/14/4 30/14/4 
f 30/14/4 29/13/4 23/13/4 
f 24/14/2 28/17/2 31/17/2 
f 31/17/2 30/14/2 24/14/2 
f 28/17/6 27/18/6 32/18/6 
f 32/18/6 31/17/6 28/17/6 
f 39/26/1 35/22/1 41/22/1 
f 41/22/1 44/26/1 39/26/1 
f 35/22/4 36/21/4 42/21/4 
f 42/21/4 41/22/4 35/22/4 
f 36/21/2 40/25/2 43/25/2 
f 43/25/2 42/21/2 36/21/2 
f 40/25/7 39/26/7 44/26/7 
f 44/26/7 43/25/7 40/25/7 
s 2
f 37/24/1 39/23/1 49/31/1 
f 49/31/1 50/32/1 37/24/1 
f 50/32/1 49/31/1 51/30/1 
f 51/30/1 48/29/1 50/32/1 
f 52/33/1 53/34/1 54/35/1 
f 54/35/1 55/36/1 52/33/1 
f 56/37/1 57/38/1 4/4/1 
f 4/4/1 3/3/1 56/37/1 
s 4
f 40/26/2 38/25/2 58/39/2 
f 58/39/2 59/40/2 40/26/2 
f 59/40/2 58/39/2 47/41/2 
f 47/41/2 60/42/2 59/40/2 
f 61/43/2 62/44/2 63/45/2 
f 63/45/2 64/46/2 61/43/2 
f 65/47/2 66/48/2 8/8/2 
f 8/8/2 7/7/2 65/47/2 
s 8
f 39/26/3 40/25/3 59/39/3 
f 59/39/3 49/40/3 39/26/3 
f 67/40/3 68/39/3 69/41/3 
f 69/41/3 70/42/3 67/40/3 
f 62/43/3 52/44/3 55/45/3 
f 55/45/3 63/46/3 62/43/3 
f 71/47/3 72/48/3 73/8/3 
f 73/8/3 74/7/3 71/47/3 
s 32
f 53/33/5 61/34/5 64/35/5 
f 64/35/5 54/36/5 53/33/5 
f 57/37/5 65/38/5 7/4/5 
f 7/4/5 4/3/5 57/37/5 
f 38/24/5 37/23/5 50/31/5 
f 50/31/5 58/32/5 38/24/5 
f 58/32/5 50/31/5 48/30/5 
f 48/30/5 47/29/5 58/32/5 
s off
f 59/39/2 60/41/2 69/41/2 
f 69/41/2 68/39/2 59/39/2 
f 60/41/7 51/42/7 70/42/7 
f 70/42/7 69/41/7 60/41/7 
f 51/42/1 49/40/1 67/40/1 
f 67/40/1 70/42/1 51/42/1 
f 49/40/4 59/39/4 68/39/4 
f 68/39/4 67/40/4 49/40/4 
f 8/7/2 66/47/2 71/47/2 
f 71/47/2 74/7/2 8/7/2 
f 66/47/6 56/48/6 72/48/6 
f 72/48/6 71/47/6 66/47/6 
f 56/48/1 3/8/1 73/8/1 
f 73/8/1 72/48/1 56/48/1 
f 3/8/8 8/7/8 74/7/8 
f 74/7/8 73/8/8 3/8/8 
s 2
f 20/10/1 19/11/1 75/49/1 
f 75/49/1 76/50/1 20/10/1 
f 76/50/1 75/49/1 53/34/1 
f 53/34/1 52/33/1 76/50/1 
f 57/38/1 56/37/1 77/51/1 
f 77/51/1 78/52/1 57/38/1 
f 78/52/1 77/51/1 55/36/1 
f 55/36/1 54/35/1 78/52/1 
s 4
f 22/12/2 21/9/2 79/53/2 
f 79/53/2 80/54/2 22/12/2 
f 80/54/2 79/53/2 62/44/2 
f 62/44/2 61/43/2 80/54/2 
f 66/48/2 65/47/2 81/55/2 
f 81/55/2 82/56/2 66/48/2 
f 82/56/2 81/55/2 64/46/2 
f 64/46/2 63/45/2 82/56/2 
s 8
f 21/12/3 20/9/3 76/53/3 
f 76/53/3 79/54/3 21/12/3 
f 83/54/3 84/53/3 85/44/3 
f 85/44/3 86/43/3 83/54/3 
f 56/48/3 66/47/3 82/55/3 
f 82/55/3 77/56/3 56/48/3 
f 87/56/3 88/55/3 89/46/3 
f 89/46/3 90/45/3 87/56/3 
s 32
f 19/10/5 22/11/5 80/49/5 
f 80/49/5 75/50/5 19/10/5 
f 75/50/5 80/49/5 61/34/5 
f 61/34/5 53/33/5 75/50/5 
f 65/38/5 57/37/5 78/51/5 
f 78/51/5 81/52/5 65/38/5 
f 81/52/5 78/51/5 54/36/5 
f 54/36/5 64/35/5 81/52/5 
s off
f 62/43/2 79/54/2 83/54/2 
f 83/54/2 86/43/2 62/43/2 
f 79/54/6 76/53/6 84/53/6 
f 84/53/6 83/54/6 79/54/6 
f 76/53/1 52/44/1 85/44/1 
f 85/44/1 84/53/1 76/53/1 
f 52/44/8 62/43/8 86/43/8 
f 86/43/8 85/44/8 52/44/8 
f 82/55/2 63/46/2 89/46/2 
f 89/46/2 88/55/2 82/55/2 
f 63/46/6 55/45/6 90/45/6 
f 90/45/6 89/46/6 63/46/6 
f 55/45/1 77/56/1 87/56/1 
f 87/56/1 90/45/1 55/45/1 
f 77/56/8 82/55/8 88/55/8 
f 88/55/8 87/56/8 77/56/8 
s 2
f 48/29/1 51/30/1 91/27/1 
f 91/27/1 45/28/1 48/29/1 
s 4
f 60/42/2 47/41/2 46/57/2 
f 46/57/2 92/58/2 60/42/2 
s 8
f 93/42/3 94/41/3 95/57/3 
f 95/57/3 96/58/3 93/42/3 
s 32
f 1/2/5 6/1/5 46/28/5 
f 46/28/5 45/27/5 1/2/5 
s off
f 91/58/1 51/42/1 93/42/1 
f 93/42/1 96/58/1 91/58/1 
f 51/42/9 60/41/9 94/41/9 
f 94/41/9 93/42/9 51/42/9 
f 60/41/2 92/57/2 95/57/2 
f 95/57/2 94/41/2 60/41/2 
f 92/57/7 91/58/7 96/58/7 
f 96/58/7 95/57/7 92/57/7 
s 2
f 45/28/1 91/27/1 2/2/1 
f 2/2/1 1/1/1 45/28/1 
s 4
f 92/58/2 46/57/2 6/6/2 
f 6/6/2 5/5/2 92/58/2 
s 8
f 91/58/3 92/57/3 5/6/3 
f 5/6/3 2/5/3 91/58/3 
s 32
f 4/3/5 7/4/5 6/1/5 
f 6/1/5 1/2/5 4/3/5 
s off
f 5/6/1 8/7/1 11/7/1 
f 11/7/1 10/6/1 5/6/1 
f 8/7/10 3/8/10 12/8/10 
f 12/8/10 11/7/10 8/7/10 
f 3/8/2 2/5/2 9/5/2 
f 9/5/2 12/8/2 3/8/2 
f 2/5/6 5/6/6 10/6/6 
f 10/6/6 9/5/6 2/5/6 
# 188 faces

