# 
# Generated by Sweet Home 3D - lun abr 08 14:33:24 CEST 2019
# http://www.sweethome3d.com/
# 
mtllib Edificio1techo.mtl
g ground_1
usemtl ground_1
v 5000.0 0.0 4.253001
v 5000.0 0.0 5000.0
v 2.6814437 0.0 5000.0
v 2.6814437 0.0 11938.893
v 11969.181 0.0 11938.893
v 11969.181 0.0 4.253001
vn 0.0 1.0 0.0
vn 0.0 0.0 0.0
f 5//1 6//1 1//1
f 5//1 1//1 2//1
f 5//1 2//1 3//1
f 5//1 3//1 4//1
v 2.6814437 0.0 4.253001
f 7//1 3//1 2//1
f 7//1 2//1 1//1
g wall_1_2
usemtl wall_1_2
v 6.431946 0.0 4.5004673
v 6.431946 0.0 11495.001
v 10.181946 0.0 11491.387
v 10.181946 0.0 4.5004673
vn 0.0 -1.0 0.0
f 11//3 10//3 9//3
f 11//3 9//3 8//3
g wall_1_3
usemtl wall_1_3
v 2.6819458 0.0 4.5004673
v 2.6819458 0.0 11498.615
f 8//3 9//3 13//3
f 8//3 13//3 12//3
g wall_1_4
usemtl wall_1_2
v 10.181946 250.1 11491.387
v 6.431946 250.1 11495.001
v 10.181946 250.1 4.5004673
v 6.431946 250.1 4.5004673
vn 0.6939551 0.0 0.72001827
vn 1.0 0.0 0.0
vn 0.0 0.0 -1.0
f 9//4 10//4 14//4 15//4
f 10//5 11//5 16//5 14//5
f 11//6 8//6 17//6 16//6
g wall_1_5
usemtl wall_1_3
v 2.6819458 250.1 11498.615
v 2.6819458 250.1 4.5004673
vt 0.0 0.0 0
vt 574.70575 0.0 0
vt 574.70575 12.505 0
vt 0.0 12.505 0
vt 0.26041007 0.0 0
vt 0.26041007 12.505 0
vt 0.1875 0.0 0
vt 0.1875 12.505 0
vn -1.0 0.0 0.0
f 12/1/7 13/2/7 18/3/7 19/4/7
f 13/1/4 9/5/4 15/6/4 18/4/4
f 8/1/6 12/7/6 19/8/6 17/4/6
g wall_1_6
usemtl wall_1_2
f 17//1 15//1 14//1
f 17//1 14//1 16//1
g wall_1_7
usemtl wall_1_3
f 19//1 18//1 15//1
f 19//1 15//1 17//1
g wall_2_8
usemtl wall_1_2
v 11965.43 0.0 11935.002
v 11961.68 0.0 11931.111
f 21//3 20//3 9//3
f 21//3 9//3 10//3
g wall_2_9
usemtl wall_1_3
v 11969.18 0.0 11938.893
f 20//3 22//3 13//3
f 20//3 13//3 9//3
g wall_2_10
usemtl wall_1_2
v 11961.68 250.1 11931.111
v 11965.43 250.1 11935.002
vn -0.6939551 0.0 -0.72001827
vn 0.7199991 0.0 -0.693975
vn 0.03676755 0.0 -0.99932384
f 10//8 9//8 15//8 14//8
f 20//9 21//9 23//9 24//9
f 21//10 10//10 14//10 23//10
g wall_2_11
usemtl wall_1_3
v 11969.18 250.1 11938.893
vt 598.72974 0.0 0
vt 598.72974 12.505 0
vt 0.27018264 0.0 0
vt 0.27018264 12.505 0
vn -0.03676762 0.0 0.99932384
f 9/1/8 13/5/8 18/6/8 15/4/8
f 13/1/11 22/9/11 25/10/11 18/4/11
f 22/1/9 20/11/9 24/12/9 25/4/9
g wall_2_12
usemtl wall_1_2
f 14//1 15//1 24//1
f 14//1 24//1 23//1
g wall_2_13
usemtl wall_1_3
f 15//1 18//1 25//1
f 15//1 25//1 24//1
g wall_3_14
usemtl wall_1_2
v 11965.43 0.0 448.0005
v 11961.68 0.0 451.61505
f 20//3 21//3 27//3
f 20//3 27//3 26//3
g wall_3_15
usemtl wall_1_3
v 11969.18 0.0 444.3859
f 22//3 20//3 26//3
f 22//3 26//3 28//3
g wall_3_16
usemtl wall_1_2
v 11961.68 250.1 451.61505
v 11965.43 250.1 448.0005
vn -0.69398546 0.0 -0.719989
vn -0.7199991 0.0 0.693975
f 26//12 27//12 29//12 30//12
f 27//7 21//7 23//7 29//7
f 21//13 20//13 24//13 23//13
g wall_3_17
usemtl wall_1_3
v 11969.18 250.1 444.3859
vt 0.26042172 0.0 0
vt 0.26042172 12.505 0
vt 574.72534 0.0 0
vt 574.72534 12.505 0
vn -0.69398856 0.0 -0.7199861
f 28/1/14 26/13/14 30/14/14 31/4/14
f 20/1/13 22/11/13 25/12/13 24/4/13
f 22/1/5 28/15/5 31/16/5 25/4/5
g wall_3_18
usemtl wall_1_2
f 30//1 29//1 23//1
f 30//1 23//1 24//1
g wall_3_19
usemtl wall_1_3
f 31//1 30//1 24//1
f 31//1 24//1 25//1
g wall_4_20
usemtl wall_1_2
v 3.0317993 0.0 8.000467
v 2.8939602 0.0 11.747933
f 26//3 27//3 33//3
f 26//3 33//3 32//3
g wall_4_21
usemtl wall_1_3
v 3.1696384 0.0 4.253001
f 28//3 26//3 32//3
f 28//3 32//3 34//3
g wall_4_22
usemtl wall_1_2
v 2.8939602 250.1 11.747933
v 3.0317993 250.1 8.000467
vn -0.9993242 0.0 -0.03675708
vn -0.036757063 0.0 0.9993242
vn 0.69398546 0.0 0.719989
f 32//15 33//15 35//15 36//15
f 33//16 27//16 29//16 35//16
f 27//17 26//17 30//17 29//17
g wall_4_23
usemtl wall_1_3
v 3.1696384 250.1 4.253001
vt 0.18750001 0.0 0
vt 0.18750001 12.505 0
vt 598.7051 0.0 0
vt 598.7051 12.505 0
vn 0.69398856 0.0 0.7199861
vn 0.03675707 0.0 -0.9993242
f 34/1/15 32/17/15 36/18/15 37/4/15
f 26/1/18 28/13/18 31/14/18 30/4/18
f 28/1/19 34/19/19 37/20/19 31/4/19
g wall_4_24
usemtl wall_1_2
f 36//1 35//1 29//1
f 36//1 29//1 30//1
g wall_4_25
usemtl wall_1_3
f 37//1 36//1 30//1
f 37//1 30//1 31//1
g room_5_26
usemtl wall_1_2
v 2.6819458 262.0 11491.387
v 2.6814437 262.0 4.5004673
v 11937.073 262.0 11938.893
v 11937.072 262.0 451.61505
v 0.0 0.0 0.0
f 40//1 41//1 39//1
f 39//1 40//1 41//1
f 38//3 39//3 40//3
f 40//3 39//3 41//3
v 2.6819458 250.0 11491.387
v 2.6814437 250.0 4.5004673
v 11937.073 250.0 11938.893
v 11937.072 250.0 451.61505
vn 1.0 0.0 -0
vn -0.7071068 0.0 0.70710677
vn 1.0 0.0 -0.0000001
vn 0.037438117 0.0 -0.99929893
vn 0.037470832 0.0 -0.99929774
f 38//20 43//20 44//20 39//20
f 39//21 44//21 45//21 40//21
f 40//22 45//22 46//22 41//22
f 41//23 46//23 44//23 39//23
f 39//21 44//21 45//21 40//21
f 40//24 45//24 43//24 38//24
f 44//3 46//3 45//3
f 45//3 44//3 46//3
f 45//1 46//1 43//1
f 43//1 46//1 44//1
