# 3ds Max Wavefront OBJ Exporter v0.97b - (c)2007 guruware
# File Created: 03.06.2019 11:47:37

mtllib caja3.mtl

#
# object BoxLP
#

v  -174.8326 521.1545 -250.0544
v  -145.2576 496.1689 -250.0544
v  -173.2116 496.1689 -250.0544
v  -208.0058 521.1545 -250.0544
v  -145.2576 103.8311 192.2546
v  -173.2116 103.8311 192.2546
v  -208.0058 78.8455 192.2546
v  -174.8326 78.8455 192.2546
v  234.3033 103.8311 -187.3063
v  234.3033 78.8455 -216.8813
v  234.3033 78.8455 -250.0544
v  234.3033 103.8311 -215.2603
v  234.3033 112.0187 -250.0544
v  199.5092 133.2565 -250.0544
v  199.5092 496.1689 -250.0544
v  234.3033 521.1545 -250.0544
v  234.3033 133.2565 -215.2603
v  -208.0058 487.9813 -250.0544
v  -208.0058 78.8455 -250.0544
v  -208.0058 103.8311 -215.2603
v  -208.0058 466.7435 -215.2603
v  -173.2116 466.7435 -250.0544
v  -173.2116 133.2565 192.2546
v  -208.0058 112.0187 192.2546
v  -208.0058 521.1545 192.2546
v  -208.0058 496.1689 157.4605
v  -208.0058 133.2565 157.4605
v  199.5092 466.7435 192.2546
v  234.3033 487.9813 192.2546
v  234.3033 521.1545 192.2546
v  199.5092 496.1689 192.2546
v  234.3033 78.8455 192.2546
v  234.3033 103.8311 157.4605
v  234.3033 466.7435 157.4605
v  201.1301 521.1545 192.2546
v  -173.2116 496.1689 192.2546
v  171.5551 496.1689 192.2546
v  -190.6087 496.1689 -187.3063
v  -190.6087 496.1689 157.4605
v  -208.0058 496.1689 -187.3063
v  -173.2116 496.1689 -187.3063
v  -173.2116 521.1545 -187.3063
v  -173.2116 521.1545 157.4605
v  -173.2116 496.1689 157.4605
v  201.1301 78.8455 -250.0544
v  171.5551 78.8455 -215.2603
v  -173.2116 78.8455 -215.2603
v  -145.2576 496.1689 -232.6574
v  199.5092 496.1689 -232.6574
v  199.5092 496.1689 129.5065
v  199.5092 496.1689 157.4605
v  199.5092 521.1545 157.4605
v  199.5092 521.1545 129.5065
v  -208.0058 521.1545 -216.8813
v  -173.2116 521.1545 -215.2603
v  171.5551 521.1545 157.4605
v  234.3033 521.1545 159.0815
v  -145.2576 521.1545 -215.2603
v  -173.2116 78.8455 157.4605
v  -145.2576 78.8455 157.4605
v  199.5092 78.8455 157.4605
v  199.5092 78.8455 -187.3063
v  199.5092 78.8455 -215.2603
v  -208.0058 78.8455 159.0815
v  -173.2116 78.8455 129.5065
v  -190.6087 466.7435 -215.2603
v  -190.6087 103.8311 -215.2603
v  -173.2116 103.8311 -215.2603
v  -173.2116 466.7435 -215.2603
v  216.9062 466.7435 157.4605
v  216.9062 103.8311 157.4605
v  199.5092 103.8311 157.4605
v  199.5092 466.7435 157.4605
v  216.9062 133.2565 -215.2603
v  216.9062 496.1689 -215.2603
v  199.5092 496.1689 -215.2603
v  199.5092 133.2565 -215.2603
v  216.9062 103.8311 -187.3063
v  199.5092 103.8311 -187.3063
v  199.5092 103.8311 192.2546
v  -190.6087 133.2565 157.4605
v  -173.2116 133.2565 157.4605
v  -190.6087 103.8311 129.5065
v  -173.2116 103.8311 129.5065
v  -173.2116 496.1689 174.8576
v  171.5551 496.1689 174.8576
v  -145.2576 103.8311 174.8576
v  199.5092 103.8311 174.8576
v  -145.2576 103.8311 157.4605
v  171.5551 103.8311 -232.6574
v  -173.2116 103.8311 -232.6574
v  171.5551 103.8311 -215.2603
v  -208.0058 496.1689 -215.2603
v  234.3033 496.1689 129.5065
v  234.3033 496.1689 157.4605
v  -208.0058 103.8311 129.5065
v  -208.0058 103.8311 157.4605
v  199.5092 103.8311 -215.2603
v  199.5092 466.7435 174.8576
v  234.3033 496.1689 -215.2603
v  216.9062 496.1689 129.5065
v  199.5092 521.1545 -215.2603
v  199.5092 133.2565 -232.6574
v  199.5092 103.8311 -250.0544
v  171.5551 103.8311 -250.0544
v  -173.2116 103.8311 -250.0544
v  -173.2116 466.7435 -232.6574
v  -145.2576 496.1689 -215.2603
v  -173.2116 496.1689 -215.2603
v  -173.2116 103.8311 157.4605
v  -173.2116 133.2565 174.8576
v  171.5551 496.1689 157.4605
v  -186.8512 100.0000 -228.8999
v  -186.8512 500.0000 -228.8999
v  213.1488 500.0000 -228.8999
v  213.1488 100.0000 -228.8999
v  213.1488 500.0000 171.1001
v  213.1488 100.0000 171.1001
v  -186.8512 500.0000 171.1001
v  -186.8512 100.0000 171.1001
v  -163.1392 123.7121 147.3881
v  -163.1392 123.7121 -205.1879
v  -163.1392 476.2880 -205.1879
v  -163.1392 476.2880 147.3881
v  189.4367 123.7121 -205.1879
v  189.4367 476.2880 -205.1879
v  189.4367 123.7121 147.3881
v  189.4367 476.2880 147.3881
# 128 vertices

vn 0.0000 0.0000 -1.0000
vn 0.0000 -0.0000 -1.0000
vn 0.0000 0.0000 1.0000
vn 1.0000 0.0000 -0.0000
vn -1.0000 0.0000 -0.0000
vn 0.0000 -1.0000 -0.0000
vn 0.0000 1.0000 -0.0000
vn -0.0000 1.0000 -0.0000
vn -0.0000 -1.0000 -0.0000
vn 0.0000 0.6887 -0.7250
vn 0.0000 -0.6887 0.7250
vn -0.7250 -0.6887 -0.0000
vn 0.7250 0.6887 -0.0000
vn 0.0000 -0.6887 -0.7250
vn 0.0000 0.6887 0.7250
vn 0.7250 -0.6887 -0.0000
vn -0.7250 0.6887 -0.0000
# 17 vertex normals

vt 0.9391 0.8066 0.0000
vt 0.9512 0.7921 0.0000
vt 0.9512 0.8058 0.0000
vt 0.9391 0.8229 0.0000
vt 0.8952 0.6365 0.0000
vt 0.8952 0.6228 0.0000
vt 0.9073 0.6057 0.0000
vt 0.9073 0.6220 0.0000
vt 0.9304 0.1495 0.0000
vt 0.9183 0.1349 0.0000
vt 0.9183 0.1186 0.0000
vt 0.9304 0.1357 0.0000
vt 0.5832 0.6169 0.0000
vt 0.6001 0.6273 0.0000
vt 0.6001 0.8056 0.0000
vt 0.5832 0.8178 0.0000
vt 0.6099 0.6273 0.0000
vt 0.6099 0.6129 0.0000
vt 0.6268 0.6006 0.0000
vt 0.6268 0.6169 0.0000
vt 0.5565 0.8015 0.0000
vt 0.5565 0.6006 0.0000
vt 0.5734 0.6129 0.0000
vt 0.5734 0.7911 0.0000
vt 0.6366 0.7911 0.0000
vt 0.6535 0.8015 0.0000
vt 0.6535 0.8178 0.0000
vt 0.6366 0.8056 0.0000
vt 0.5298 0.7911 0.0000
vt 0.5467 0.8015 0.0000
vt 0.5467 0.8178 0.0000
vt 0.5298 0.8056 0.0000
vt 0.5200 0.6169 0.0000
vt 0.5200 0.8178 0.0000
vt 0.5030 0.8056 0.0000
vt 0.5030 0.6273 0.0000
vt 0.0049 0.8144 0.0000
vt 0.0218 0.8248 0.0000
vt 0.0218 0.8411 0.0000
vt 0.0049 0.8289 0.0000
vt 0.0316 0.8248 0.0000
vt 0.0316 0.6239 0.0000
vt 0.0485 0.6362 0.0000
vt 0.0485 0.8144 0.0000
vt 0.9402 0.3196 0.0000
vt 0.9402 0.1186 0.0000
vt 0.9524 0.1357 0.0000
vt 0.9524 0.3051 0.0000
vt 0.3246 0.7836 0.0000
vt 0.3246 0.9530 0.0000
vt 0.3161 0.9530 0.0000
vt 0.3161 0.7836 0.0000
vt 0.1773 0.9813 0.0000
vt 0.1652 0.9813 0.0000
vt 0.1652 0.8120 0.0000
vt 0.1773 0.8120 0.0000
vt 0.0752 0.6239 0.0000
vt 0.0752 0.8248 0.0000
vt 0.0583 0.8103 0.0000
vt 0.0583 0.6410 0.0000
vt 0.2712 0.9530 0.0000
vt 0.2627 0.9530 0.0000
vt 0.2627 0.7836 0.0000
vt 0.2712 0.7836 0.0000
vt 0.9743 0.2880 0.0000
vt 0.9743 0.3017 0.0000
vt 0.9621 0.3017 0.0000
vt 0.9621 0.2880 0.0000
vt 0.6802 0.6169 0.0000
vt 0.6633 0.6314 0.0000
vt 0.6633 0.6177 0.0000
vt 0.6802 0.6006 0.0000
vt 0.7167 0.7870 0.0000
vt 0.7337 0.8015 0.0000
vt 0.7337 0.8178 0.0000
vt 0.7167 0.8008 0.0000
vt 0.1020 0.6402 0.0000
vt 0.0850 0.6547 0.0000
vt 0.0850 0.6410 0.0000
vt 0.1020 0.6239 0.0000
vt 0.4763 0.7870 0.0000
vt 0.4933 0.8015 0.0000
vt 0.4933 0.8178 0.0000
vt 0.4763 0.8008 0.0000
vt 0.4665 0.8015 0.0000
vt 0.4665 0.8178 0.0000
vt 0.4496 0.8008 0.0000
vt 0.4496 0.7870 0.0000
vt 0.1287 0.6402 0.0000
vt 0.1287 0.8411 0.0000
vt 0.1117 0.8240 0.0000
vt 0.1117 0.6547 0.0000
vt 0.0752 0.8411 0.0000
vt 0.0583 0.8240 0.0000
vt 0.7070 0.6169 0.0000
vt 0.6900 0.6314 0.0000
vt 0.6900 0.6177 0.0000
vt 0.7070 0.6006 0.0000
vt 0.8733 0.1186 0.0000
vt 0.8733 0.2969 0.0000
vt 0.8648 0.2969 0.0000
vt 0.8648 0.1186 0.0000
vt 0.8502 0.6057 0.0000
vt 0.8502 0.7839 0.0000
vt 0.8418 0.7839 0.0000
vt 0.8418 0.6057 0.0000
vt 0.7334 0.1832 0.0000
vt 0.7334 0.0049 0.0000
vt 0.7419 0.0049 0.0000
vt 0.7419 0.1832 0.0000
vt 0.3513 0.9530 0.0000
vt 0.3429 0.9530 0.0000
vt 0.3429 0.7836 0.0000
vt 0.3513 0.7836 0.0000
vt 0.8952 0.8058 0.0000
vt 0.9073 0.8229 0.0000
vt 0.1469 0.8021 0.0000
vt 0.1469 0.6239 0.0000
vt 0.1554 0.6239 0.0000
vt 0.1554 0.8021 0.0000
vt 0.1469 0.8120 0.0000
vt 0.1554 0.8120 0.0000
vt 0.1554 0.9813 0.0000
vt 0.1469 0.9813 0.0000
vt 0.2979 0.9530 0.0000
vt 0.2979 0.7836 0.0000
vt 0.3064 0.7836 0.0000
vt 0.3064 0.9530 0.0000
vt 0.2445 0.9530 0.0000
vt 0.2445 0.7836 0.0000
vt 0.2529 0.7836 0.0000
vt 0.2529 0.9530 0.0000
vt 0.9779 0.3923 0.0000
vt 0.9779 0.5616 0.0000
vt 0.9658 0.5616 0.0000
vt 0.9658 0.3923 0.0000
vt 0.9830 0.7750 0.0000
vt 0.9830 0.6057 0.0000
vt 0.9951 0.6057 0.0000
vt 0.9951 0.7750 0.0000
vt 0.2177 0.7836 0.0000
vt 0.2177 0.9530 0.0000
vt 0.2093 0.9530 0.0000
vt 0.2093 0.7836 0.0000
vt 0.9171 0.7921 0.0000
vt 0.9293 0.8066 0.0000
vt 0.9293 0.8229 0.0000
vt 0.9171 0.8058 0.0000
vt 0.9219 0.5650 0.0000
vt 0.9341 0.5795 0.0000
vt 0.9341 0.5958 0.0000
vt 0.9219 0.5787 0.0000
vt 0.7516 0.0187 0.0000
vt 0.7638 0.0187 0.0000
vt 0.7638 0.1880 0.0000
vt 0.7516 0.1880 0.0000
vt 0.9560 0.4094 0.0000
vt 0.9438 0.3949 0.0000
vt 0.9438 0.3786 0.0000
vt 0.9560 0.3957 0.0000
vt 0.4103 0.6101 0.0000
vt 0.4103 0.8559 0.0000
vt 0.4005 0.8664 0.0000
vt 0.4005 0.6006 0.0000
vt 0.6265 0.1832 0.0000
vt 0.6265 0.0049 0.0000
vt 0.6350 0.0049 0.0000
vt 0.6350 0.1832 0.0000
vt 0.0316 0.8411 0.0000
vt 0.0485 0.8289 0.0000
vt 0.0049 0.6362 0.0000
vt 0.0218 0.6239 0.0000
vt 0.9219 0.3957 0.0000
vt 0.9341 0.3786 0.0000
vt 0.8502 0.7938 0.0000
vt 0.8502 0.9631 0.0000
vt 0.8418 0.9631 0.0000
vt 0.8418 0.7938 0.0000
vt 0.1020 0.8411 0.0000
vt 0.0850 0.8240 0.0000
vt 0.9743 0.1186 0.0000
vt 0.9621 0.1186 0.0000
vt 0.9779 0.3786 0.0000
vt 0.9658 0.3786 0.0000
vt 0.1287 0.6239 0.0000
vt 0.1117 0.6410 0.0000
vt 0.9304 0.3188 0.0000
vt 0.9183 0.3359 0.0000
vt 0.7912 0.8715 0.0000
vt 0.7827 0.8715 0.0000
vt 0.7827 0.6932 0.0000
vt 0.7912 0.6932 0.0000
vt 0.7067 0.1832 0.0000
vt 0.7067 0.0049 0.0000
vt 0.7151 0.0049 0.0000
vt 0.7151 0.1832 0.0000
vt 0.6099 0.8056 0.0000
vt 0.6268 0.8178 0.0000
vt 0.5832 0.6006 0.0000
vt 0.6001 0.6129 0.0000
vt 0.7617 0.6932 0.0000
vt 0.7702 0.6932 0.0000
vt 0.7702 0.8715 0.0000
vt 0.7617 0.8715 0.0000
vt 0.4300 0.8664 0.0000
vt 0.4300 0.6006 0.0000
vt 0.4398 0.6111 0.0000
vt 0.4398 0.8569 0.0000
vt 0.8854 0.6057 0.0000
vt 0.8854 0.6220 0.0000
vt 0.8732 0.6365 0.0000
vt 0.8732 0.6228 0.0000
vt 0.7516 0.0049 0.0000
vt 0.7638 0.0049 0.0000
vt 0.8854 0.8229 0.0000
vt 0.8732 0.8058 0.0000
vt 0.9000 0.1186 0.0000
vt 0.9000 0.2969 0.0000
vt 0.8915 0.2969 0.0000
vt 0.8915 0.1186 0.0000
vt 0.6366 0.6129 0.0000
vt 0.6535 0.6006 0.0000
vt 0.5565 0.8178 0.0000
vt 0.5734 0.8056 0.0000
vt 0.9610 0.7750 0.0000
vt 0.9610 0.6057 0.0000
vt 0.9732 0.6057 0.0000
vt 0.9732 0.7750 0.0000
vt 0.9610 0.7887 0.0000
vt 0.9732 0.7887 0.0000
vt 0.4763 0.6177 0.0000
vt 0.4933 0.6006 0.0000
vt 0.9171 0.6228 0.0000
vt 0.9293 0.6057 0.0000
vt 0.6802 0.8178 0.0000
vt 0.6633 0.8008 0.0000
vt 0.1773 0.9951 0.0000
vt 0.1652 0.9951 0.0000
vt 0.9560 0.5787 0.0000
vt 0.9438 0.5958 0.0000
vt 0.9830 0.7887 0.0000
vt 0.9951 0.7887 0.0000
vt 0.7070 0.8178 0.0000
vt 0.6900 0.8008 0.0000
vt 0.8207 0.8715 0.0000
vt 0.8207 0.6932 0.0000
vt 0.8292 0.6932 0.0000
vt 0.8292 0.8715 0.0000
vt 0.5200 0.6006 0.0000
vt 0.5030 0.6129 0.0000
vt 0.5298 0.6129 0.0000
vt 0.5467 0.6006 0.0000
vt 0.9610 0.9679 0.0000
vt 0.9610 0.7986 0.0000
vt 0.9732 0.7986 0.0000
vt 0.9732 0.9679 0.0000
vt 0.9610 0.9817 0.0000
vt 0.9732 0.9817 0.0000
vt 0.7167 0.6177 0.0000
vt 0.7337 0.6006 0.0000
vt 0.9402 0.3359 0.0000
vt 0.9524 0.3188 0.0000
vt 0.1871 0.8120 0.0000
vt 0.1993 0.8120 0.0000
vt 0.1993 0.8257 0.0000
vt 0.1871 0.8257 0.0000
vt 0.1993 0.9951 0.0000
vt 0.1871 0.9951 0.0000
vt 0.4665 0.6006 0.0000
vt 0.4496 0.6177 0.0000
vt 0.6800 0.1832 0.0000
vt 0.6800 0.0049 0.0000
vt 0.6884 0.0049 0.0000
vt 0.6884 0.1832 0.0000
vt 0.8769 0.5958 0.0000
vt 0.8685 0.5958 0.0000
vt 0.8685 0.4176 0.0000
vt 0.8769 0.4176 0.0000
vt 0.8025 0.4270 0.0000
vt 0.8025 0.6729 0.0000
vt 0.7926 0.6834 0.0000
vt 0.7926 0.4176 0.0000
vt 0.7827 0.6739 0.0000
vt 0.7827 0.4281 0.0000
vt 0.7631 0.6834 0.0000
vt 0.7631 0.4176 0.0000
vt 0.7730 0.4281 0.0000
vt 0.7730 0.6739 0.0000
vt 0.7532 0.6729 0.0000
vt 0.7532 0.4270 0.0000
vt 0.8502 0.5958 0.0000
vt 0.8502 0.4176 0.0000
vt 0.8587 0.4176 0.0000
vt 0.8587 0.5958 0.0000
vt 0.8353 0.3750 0.0000
vt 0.8353 0.1291 0.0000
vt 0.8452 0.1186 0.0000
vt 0.8452 0.3844 0.0000
vt 0.8550 0.1281 0.0000
vt 0.8550 0.3739 0.0000
vt 0.1736 0.8021 0.0000
vt 0.1736 0.6239 0.0000
vt 0.1821 0.6239 0.0000
vt 0.1821 0.8021 0.0000
vt 0.8123 0.6729 0.0000
vt 0.8123 0.4270 0.0000
vt 0.8221 0.4176 0.0000
vt 0.8221 0.6834 0.0000
vt 0.8320 0.4281 0.0000
vt 0.8320 0.6739 0.0000
vt 0.7862 0.3844 0.0000
vt 0.7862 0.1186 0.0000
vt 0.7960 0.1281 0.0000
vt 0.7960 0.3739 0.0000
vt 0.9037 0.5958 0.0000
vt 0.9037 0.4176 0.0000
vt 0.9121 0.4176 0.0000
vt 0.9121 0.5958 0.0000
vt 0.8058 0.3739 0.0000
vt 0.8058 0.1281 0.0000
vt 0.8157 0.1186 0.0000
vt 0.8157 0.3844 0.0000
vt 0.8255 0.1291 0.0000
vt 0.8255 0.3750 0.0000
vt 0.6532 0.1832 0.0000
vt 0.6532 0.0049 0.0000
vt 0.6617 0.0049 0.0000
vt 0.6617 0.1832 0.0000
vt 0.7763 0.3750 0.0000
vt 0.7763 0.1291 0.0000
vt 0.1995 0.4077 0.0000
vt 0.0049 0.4077 0.0000
vt 0.0049 0.2113 0.0000
vt 0.1995 0.2113 0.0000
vt 0.1995 0.2014 0.0000
vt 0.0049 0.2014 0.0000
vt 0.0049 0.0049 0.0000
vt 0.1995 0.0049 0.0000
vt 0.2093 0.4077 0.0000
vt 0.2093 0.2113 0.0000
vt 0.4039 0.2113 0.0000
vt 0.4039 0.4077 0.0000
vt 0.4137 0.2014 0.0000
vt 0.4137 0.0049 0.0000
vt 0.6083 0.0049 0.0000
vt 0.6083 0.2014 0.0000
vt 0.1995 0.4176 0.0000
vt 0.1995 0.6140 0.0000
vt 0.0049 0.6140 0.0000
vt 0.0049 0.4176 0.0000
vt 0.5950 0.2113 0.0000
vt 0.7665 0.2113 0.0000
vt 0.7665 0.3844 0.0000
vt 0.5950 0.3844 0.0000
vt 0.7435 0.5907 0.0000
vt 0.5719 0.5907 0.0000
vt 0.5719 0.4176 0.0000
vt 0.7435 0.4176 0.0000
vt 0.5852 0.2113 0.0000
vt 0.5852 0.3844 0.0000
vt 0.4137 0.3844 0.0000
vt 0.4137 0.2113 0.0000
vt 0.2093 0.6006 0.0000
vt 0.3808 0.6006 0.0000
vt 0.3808 0.7738 0.0000
vt 0.2093 0.7738 0.0000
vt 0.5621 0.5907 0.0000
vt 0.3906 0.5907 0.0000
vt 0.3906 0.4176 0.0000
vt 0.5621 0.4176 0.0000
vt 0.2093 0.4176 0.0000
vt 0.3808 0.4176 0.0000
vt 0.3808 0.5907 0.0000
vt 0.2093 0.5907 0.0000
vt 0.4201 0.8559 0.0000
vt 0.4201 0.6101 0.0000
vt 0.3906 0.8569 0.0000
vt 0.3906 0.6111 0.0000
vt 0.9391 0.6057 0.0000
vt 0.9512 0.6228 0.0000
vt 0.6448 0.1832 0.0000
vt 0.6448 0.0049 0.0000
vt 0.8123 0.8715 0.0000
vt 0.8123 0.6932 0.0000
vt 0.2894 0.9530 0.0000
vt 0.2894 0.7836 0.0000
vt 0.7997 0.8715 0.0000
vt 0.7997 0.6932 0.0000
vt 0.8587 0.7938 0.0000
vt 0.8587 0.9631 0.0000
vt 0.7249 0.1832 0.0000
vt 0.7249 0.0049 0.0000
vt 0.8854 0.5958 0.0000
vt 0.8854 0.4176 0.0000
vt 0.6982 0.1832 0.0000
vt 0.6982 0.0049 0.0000
vt 0.2796 0.9530 0.0000
vt 0.2796 0.7836 0.0000
vt 0.1652 0.8021 0.0000
vt 0.1652 0.6239 0.0000
vt 0.1385 0.8021 0.0000
vt 0.1385 0.6239 0.0000
vt 0.3331 0.7836 0.0000
vt 0.3331 0.9530 0.0000
vt 0.8418 0.5958 0.0000
vt 0.8418 0.4176 0.0000
vt 0.1385 0.8120 0.0000
vt 0.1385 0.9813 0.0000
vt 0.8818 0.1186 0.0000
vt 0.8818 0.2969 0.0000
vt 0.6715 0.1832 0.0000
vt 0.6715 0.0049 0.0000
vt 0.9085 0.1186 0.0000
vt 0.9085 0.2969 0.0000
vt 0.2262 0.7836 0.0000
vt 0.2262 0.9530 0.0000
vt 0.8952 0.5958 0.0000
vt 0.8952 0.4176 0.0000
vt 0.6181 0.1832 0.0000
vt 0.6181 0.0049 0.0000
vt 0.2360 0.9530 0.0000
vt 0.2360 0.7836 0.0000
vt 0.7532 0.6932 0.0000
vt 0.7532 0.8715 0.0000
vt 0.3598 0.9530 0.0000
vt 0.3598 0.7836 0.0000
vt 0.8587 0.6057 0.0000
vt 0.8587 0.7839 0.0000
vt 0.4039 0.0049 0.0000
vt 0.4039 0.2014 0.0000
vt 0.2093 0.2014 0.0000
vt 0.2093 0.0049 0.0000
# 432 texture coords

o BoxLP
g BoxLP
usemtl Normal
s off
f 1/1/1 2/2/2 3/3/2 
f 3/3/2 4/4/1 1/1/1 
f 5/5/3 6/6/3 7/7/3 
f 7/7/3 8/8/3 5/5/3 
f 9/9/4 10/10/4 11/11/4 
f 11/11/4 12/12/4 9/9/4 
f 13/13/1 14/14/2 15/15/1 
f 15/15/1 16/16/1 13/13/1 
f 17/17/4 12/18/4 11/19/4 
f 11/19/4 13/20/4 17/17/4 
f 18/21/5 19/22/5 20/23/5 
f 20/23/5 21/24/5 18/21/5 
f 22/25/1 18/26/1 4/27/1 
f 4/27/1 3/28/2 22/25/1 
f 23/29/3 24/30/3 7/31/3 
f 7/31/3 6/32/3 23/29/3 
f 24/33/5 25/34/5 26/35/5 
f 26/35/5 27/36/5 24/33/5 
f 28/37/3 29/38/3 30/39/3 
f 30/39/3 31/40/3 28/37/3 
f 29/41/4 32/42/4 33/43/4 
f 33/43/4 34/44/4 29/41/4 
f 35/45/3 25/46/3 36/47/3 
f 36/47/3 37/48/3 35/45/3 
f 38/49/6 39/50/6 26/51/6 
f 26/51/6 40/52/6 38/49/6 
f 41/53/4 42/54/4 43/55/4 
f 43/55/4 44/56/4 41/53/4 
f 19/57/6 45/58/6 46/59/6 
f 46/59/6 47/60/6 19/57/6 
f 48/61/6 2/62/6 15/63/6 
f 15/63/6 49/64/6 48/61/6 
f 50/65/5 51/66/5 52/67/5 
f 52/67/5 53/68/5 50/65/5 
f 54/69/7 42/70/7 55/71/7 
f 55/71/7 4/72/7 54/69/7 
f 56/73/7 35/74/7 30/75/8 
f 30/75/8 52/76/8 56/73/7 
f 57/77/8 53/78/8 52/79/8 
f 52/79/8 30/80/8 57/77/8 
f 58/81/7 1/82/7 4/83/7 
f 4/83/7 55/84/7 58/81/7 
f 8/85/6 7/86/6 59/87/6 
f 59/87/6 60/88/6 8/85/6 
f 10/89/6 32/90/9 61/91/9 
f 61/91/9 62/92/9 10/89/6 
f 45/58/6 11/93/6 63/94/6 
f 63/94/6 46/59/6 45/58/6 
f 64/95/6 65/96/6 59/97/6 
f 59/97/6 7/98/6 64/95/6 
f 66/99/3 67/100/3 68/101/3 
f 68/101/3 69/102/3 66/99/3 
f 70/103/1 71/104/1 72/105/1 
f 72/105/1 73/106/1 70/103/1 
f 74/107/3 75/108/3 76/109/3 
f 76/109/3 77/110/3 74/107/3 
f 78/111/7 79/112/7 72/113/7 
f 72/113/7 71/114/7 78/111/7 
f 80/115/3 5/5/3 8/8/3 
f 8/8/3 32/116/3 80/115/3 
f 81/117/1 39/118/1 44/119/1 
f 44/119/1 82/120/1 81/117/1 
f 83/121/7 84/122/7 68/123/7 
f 68/123/7 67/124/7 83/121/7 
f 85/125/6 86/126/6 37/127/6 
f 37/127/6 36/128/6 85/125/6 
f 87/129/7 88/130/7 72/131/7 
f 72/131/7 89/132/7 87/129/7 
f 62/133/5 61/134/5 72/135/5 
f 72/135/5 79/136/5 62/133/5 
f 65/137/4 47/138/4 68/139/4 
f 68/139/4 84/140/4 65/137/4 
f 90/141/7 91/142/7 68/143/7 
f 68/143/7 92/144/7 90/141/7 
f 40/145/5 54/146/5 4/147/5 
f 4/147/5 93/148/5 40/145/5 
f 94/149/4 57/150/4 30/151/4 
f 30/151/4 95/152/4 94/149/4 
f 46/153/3 92/154/3 68/155/3 
f 68/155/3 47/156/3 46/153/3 
f 96/157/5 64/158/5 7/159/5 
f 7/159/5 97/160/5 96/157/5 
f 79/161/5 73/162/5 51/163/5 
f 51/163/5 98/164/5 79/161/5 
f 88/165/5 99/166/5 73/167/5 
f 73/167/5 72/168/5 88/165/5 
f 30/169/4 29/41/4 34/44/4 
f 34/44/4 95/170/4 30/169/4 
f 80/171/3 32/172/3 29/38/3 
f 29/38/3 28/37/3 80/171/3 
f 100/173/4 16/174/4 57/150/4 
f 57/150/4 94/149/4 100/173/4 
f 75/175/6 101/176/6 50/177/6 
f 50/177/6 76/178/6 75/175/6 
f 16/179/8 102/180/8 53/78/8 
f 53/78/8 57/77/8 16/179/8 
f 76/181/5 50/65/5 53/68/5 
f 53/68/5 102/182/5 76/181/5 
f 63/183/5 62/133/5 79/136/5 
f 79/136/5 98/184/5 63/183/5 
f 11/185/6 10/89/6 62/92/9 
f 62/92/9 63/186/6 11/185/6 
f 33/187/4 32/188/4 10/10/4 
f 10/10/4 9/9/4 33/187/4 
f 101/189/10 94/190/10 17/191/10 
f 17/191/10 74/192/10 101/189/10 
f 49/193/5 103/194/5 77/195/5 
f 77/195/5 76/196/5 49/193/5 
f 100/197/4 17/17/4 13/20/4 
f 13/20/4 16/198/4 100/197/4 
f 11/199/1 104/200/2 14/14/2 
f 14/14/2 13/13/1 11/199/1 
f 70/201/11 73/202/11 79/203/11 
f 79/203/11 78/204/11 70/201/11 
f 12/205/4 95/206/4 34/207/4 
f 34/207/4 9/208/4 12/205/4 
f 11/209/1 45/210/1 105/211/1 
f 105/211/1 104/212/2 11/209/1 
f 63/213/3 98/214/3 92/154/3 
f 92/154/3 46/153/3 63/213/3 
f 45/210/1 19/215/1 106/216/1 
f 106/216/1 105/211/1 45/210/1 
f 91/217/4 107/218/4 69/219/4 
f 69/219/4 68/220/4 91/217/4 
f 106/221/1 19/222/1 18/26/1 
f 18/26/1 22/25/1 106/221/1 
f 4/223/5 18/21/5 21/24/5 
f 21/24/5 93/224/5 4/223/5 
f 108/225/3 76/226/3 102/227/3 
f 102/227/3 58/228/3 108/225/3 
f 109/229/3 108/225/3 58/228/3 
f 58/228/3 55/230/3 109/229/3 
f 102/231/8 16/232/8 1/82/7 
f 1/82/7 58/81/7 102/231/8 
f 26/233/5 25/234/5 54/146/5 
f 54/146/5 40/145/5 26/233/5 
f 25/235/7 43/236/7 42/70/7 
f 42/70/7 54/69/7 25/235/7 
f 109/237/4 55/238/4 42/54/4 
f 42/54/4 41/53/4 109/237/4 
f 20/239/5 19/240/5 64/158/5 
f 64/158/5 96/157/5 20/239/5 
f 59/241/4 65/137/4 84/140/4 
f 84/140/4 110/242/4 59/241/4 
f 19/243/6 47/244/6 65/96/6 
f 65/96/6 64/95/6 19/243/6 
f 85/245/4 111/246/4 82/247/4 
f 82/247/4 44/248/4 85/245/4 
f 7/249/5 24/33/5 27/36/5 
f 27/36/5 97/250/5 7/249/5 
f 36/251/3 25/252/3 24/30/3 
f 24/30/3 23/29/3 36/251/3 
f 112/253/1 44/254/1 43/255/1 
f 43/255/1 56/256/1 112/253/1 
f 51/257/1 112/253/1 56/256/1 
f 56/256/1 52/258/1 51/257/1 
f 43/259/7 25/260/7 35/74/7 
f 35/74/7 56/73/7 43/259/7 
f 30/261/3 35/45/3 37/48/3 
f 37/48/3 31/262/3 30/261/3 
f 59/263/1 110/264/1 89/265/1 
f 89/265/1 60/266/1 59/263/1 
f 60/266/1 89/265/1 72/267/1 
f 72/267/1 61/268/1 60/266/1 
f 32/269/9 8/85/6 60/88/6 
f 60/88/6 61/270/9 32/269/9 
f 90/271/12 107/272/12 22/273/12 
f 22/273/12 105/274/12 90/271/12 
f 103/275/13 14/276/13 2/277/13 
f 2/277/13 48/278/13 103/275/13 
f 105/279/1 22/280/1 3/281/2 
f 3/281/2 104/282/2 105/279/1 
f 104/282/2 3/281/2 2/283/2 
f 2/283/2 14/284/2 104/282/2 
f 98/285/3 109/286/3 69/287/3 
f 69/287/3 92/288/3 98/285/3 
f 109/286/3 98/285/3 77/289/3 
f 77/289/3 108/290/3 109/286/3 
f 83/291/14 66/292/14 69/293/14 
f 69/293/14 84/294/14 83/291/14 
f 84/295/4 69/296/4 109/297/4 
f 109/297/4 110/298/4 84/295/4 
f 110/298/4 109/297/4 41/299/4 
f 41/299/4 82/300/4 110/298/4 
f 81/301/15 38/302/15 40/303/15 
f 40/303/15 27/304/15 81/301/15 
f 27/305/5 40/306/5 93/307/5 
f 93/307/5 97/308/5 27/305/5 
f 97/308/5 93/307/5 21/309/5 
f 21/309/5 96/310/5 97/308/5 
f 31/311/3 6/312/3 5/313/3 
f 5/313/3 28/314/3 31/311/3 
f 99/315/16 87/316/16 89/317/16 
f 89/317/16 73/318/16 99/315/16 
f 73/319/1 89/320/1 110/321/1 
f 110/321/1 51/322/1 73/319/1 
f 51/322/1 110/321/1 82/323/1 
f 82/323/1 112/324/1 51/322/1 
f 86/325/17 111/326/17 23/327/17 
f 23/327/17 37/328/17 86/325/17 
f 37/329/3 23/330/3 6/312/3 
f 6/312/3 31/311/3 37/329/3 
f 113/331/1 114/332/1 115/333/1 
f 115/333/1 116/334/1 113/331/1 
f 116/335/4 115/336/4 117/337/4 
f 117/337/4 118/338/4 116/335/4 
f 118/339/3 117/340/3 119/341/3 
f 119/341/3 120/342/3 118/339/3 
f 113/343/6 116/344/6 118/345/6 
f 118/345/6 120/346/6 113/343/6 
f 115/347/7 114/348/7 119/349/7 
f 119/349/7 117/350/7 115/347/7 
f 121/351/4 122/352/4 123/353/4 
f 123/353/4 124/354/4 121/351/4 
f 122/355/3 125/356/3 126/357/3 
f 126/357/3 123/358/3 122/355/3 
f 125/359/5 127/360/5 128/361/5 
f 128/361/5 126/362/5 125/359/5 
f 127/363/1 121/364/1 124/365/1 
f 124/365/1 128/366/1 127/363/1 
f 122/367/7 121/368/7 127/369/7 
f 127/369/7 125/370/7 122/367/7 
f 126/371/6 128/372/6 124/373/6 
f 124/373/6 123/374/6 126/371/6 
f 95/206/4 12/205/4 17/375/4 
f 17/375/4 94/376/4 95/206/4 
f 98/164/5 51/163/5 50/377/5 
f 50/377/5 77/378/5 98/164/5 
f 16/379/1 15/380/1 2/2/2 
f 2/2/2 1/1/1 16/379/1 
f 112/381/17 82/382/17 111/326/17 
f 111/326/17 86/325/17 112/381/17 
f 36/383/4 23/384/4 111/246/4 
f 111/246/4 85/245/4 36/383/4 
f 44/385/6 112/386/6 86/126/6 
f 86/126/6 85/125/6 44/385/6 
f 50/387/10 101/189/10 74/192/10 
f 74/192/10 77/388/10 50/387/10 
f 100/389/6 94/390/6 101/176/6 
f 101/176/6 75/175/6 100/389/6 
f 17/391/3 100/392/3 75/108/3 
f 75/108/3 74/107/3 17/391/3 
f 77/393/13 103/275/13 48/278/13 
f 48/278/13 108/394/13 77/393/13 
f 15/395/5 14/396/5 103/194/5 
f 103/194/5 49/193/5 15/395/5 
f 108/397/6 48/61/6 49/64/6 
f 49/64/6 76/398/6 108/397/6 
f 82/399/15 41/400/15 38/302/15 
f 38/302/15 81/301/15 82/399/15 
f 27/401/1 26/402/1 39/118/1 
f 39/118/1 81/117/1 27/401/1 
f 41/403/6 44/404/6 39/50/6 
f 39/50/6 38/49/6 41/403/6 
f 96/405/14 21/406/14 66/292/14 
f 66/292/14 83/291/14 96/405/14 
f 96/407/7 83/121/7 67/124/7 
f 67/124/7 20/408/7 96/407/7 
f 21/409/3 20/410/3 67/100/3 
f 67/100/3 66/99/3 21/409/3 
f 92/411/12 69/412/12 107/272/12 
f 107/272/12 90/271/12 92/411/12 
f 106/413/4 22/414/4 107/218/4 
f 107/218/4 91/217/4 106/413/4 
f 105/415/7 106/416/7 91/142/7 
f 91/142/7 90/141/7 105/415/7 
f 28/417/16 5/418/16 87/316/16 
f 87/316/16 99/315/16 28/417/16 
f 80/419/5 28/420/5 99/166/5 
f 99/166/5 88/165/5 80/419/5 
f 5/421/7 80/422/7 88/130/7 
f 88/130/7 87/129/7 5/421/7 
f 34/423/11 70/201/11 78/204/11 
f 78/204/11 9/424/11 34/423/11 
f 9/425/7 78/111/7 71/114/7 
f 71/114/7 33/426/7 9/425/7 
f 34/427/1 33/428/1 71/104/1 
f 71/104/1 70/103/1 34/427/1 
f 113/429/5 120/430/5 119/431/5 
f 119/431/5 114/432/5 113/429/5 
# 280 faces

