# This file uses centimeters as units for non-parametric coordinates.

mtllib Crate.mtl
g default
v 399.818535 0.181465 399.818535
v -399.818535 0.181465 399.818535
v 399.818535 0.181465 -399.818535
v -399.818535 0.181465 -399.818535
v 399.818535 799.818535 -399.818535
v -399.818535 799.818535 -399.818535
v 399.818535 799.818535 399.818535
v -399.818535 799.818535 399.818535
v 319.854928 0.181465 319.854928
v -319.854928 0.181465 319.854928
v -319.854928 0.181465 -319.854928
v 319.854928 0.181465 -319.854928
v 319.854928 80.145072 -399.818535
v -319.854928 80.145072 -399.818535
v -319.854928 719.854928 -399.818535
v 319.854928 719.854928 -399.818535
v 319.854928 799.818535 -319.854928
v -319.854928 799.818535 -319.854928
v -319.854928 799.818535 319.854928
v 319.854928 799.818535 319.854928
v 319.854928 719.854928 399.818535
v -319.854928 719.854928 399.818535
v -319.854928 80.145072 399.818535
v 319.854928 80.145072 399.818535
v -399.818535 719.854928 319.854928
v -399.818535 80.145072 319.854928
v -399.818535 719.854928 -319.854928
v -399.818535 80.145072 -319.854928
v 399.818535 719.854928 319.854928
v 399.818535 80.145072 319.854928
v 399.818535 80.145072 -319.854928
v 399.818535 719.854928 -319.854928
v 319.854928 46.563774 319.854928
v -319.854928 46.563774 319.854928
v -319.854928 46.563774 -319.854928
v 319.854928 46.563774 -319.854928
v 319.854928 80.145072 -353.436226
v -319.854928 80.145072 -353.436226
v -319.854928 719.854928 -353.436226
v 319.854928 719.854928 -353.436226
v 319.854928 753.436226 -319.854928
v -319.854928 753.436226 -319.854928
v -319.854928 753.436226 319.854928
v 319.854928 753.436226 319.854928
v 319.854928 719.854928 353.436226
v -319.854928 719.854928 353.436226
v -319.854928 80.145072 353.436226
v 319.854928 80.145072 353.436226
v -353.436226 719.854928 319.854928
v -353.436226 80.145072 319.854928
v -353.436226 719.854928 -319.854928
v -353.436226 80.145072 -319.854928
v 353.436226 719.854928 319.854928
v 353.436226 80.145072 319.854928
v 353.436226 80.145072 -319.854928
v 353.436226 719.854928 -319.854928
vt 0.368121 0.699953
vt 0.634992 0.699953
vt 0.634992 0.966881
vt 0.368121 0.966881
vt 0.367927 0.366037
vt 0.635806 0.366037
vt 0.635806 0.633973
vt 0.367927 0.633973
vt 0.367213 0.301288
vt 0.367213 0.032049
vt 0.636510 0.032049
vt 0.636510 0.301288
vt 0.033378 0.299927
vt 0.033378 0.033409
vt 0.299953 0.033409
vt 0.299953 0.299927
vt 0.032711 0.699113
vt 0.301102 0.699113
vt 0.301102 0.967563
vt 0.032711 0.967563
vt 0.034121 0.632252
vt 0.334886 0.666751
vt 0.668225 0.666751
vt 0.034121 0.367211
vt 0.648208 0.686733
vt 0.000237 0.666673
vt 0.333574 0.666673
vt 0.354904 0.686733
vt 0.335196 0.333339
vt 0.335196 0.000000
vt 0.000000 0.333339
vt -0.000000 0.000000
vt 0.020176 0.020210
vt 0.020176 0.313127
vt 0.314397 0.685816
vt 0.019416 0.685816
vt 0.299219 0.367211
vt 0.299219 0.632251
vt 0.335196 0.333339
vt 0.668535 0.333339
vt 0.649073 0.352767
vt 0.354660 0.352767
vt 0.668535 0.666669
vt 0.649073 0.647243
vt 0.335196 0.666669
vt 0.354660 0.647243
vt 0.000004 0.666402
vt 0.000004 0.333063
vt 0.020991 0.354084
vt 0.020991 0.645379
vt 0.333335 0.333063
vt 0.312350 0.354084
vt 0.333335 0.666402
vt 0.312350 0.645379
vt 0.668225 1.000081
vt 0.648208 0.980101
vt 0.334886 1.000081
vt 0.354904 0.980101
vt 0.353875 0.018714
vt 0.353876 0.314623
vt 0.668526 0.000000
vt 0.649849 0.018714
vt 0.668526 0.333339
vt 0.649849 0.314623
vt 0.333574 1.000002
vt 0.314397 0.980861
vt 0.000237 1.000002
vt 0.019416 0.980861
vt 0.333331 0.000000
vt 0.313156 0.020210
vt 0.333331 0.333339
vt 0.313156 0.313127
vn -0.000000 -1.000000 0.000000
vn -0.000000 -1.000000 0.000000
vn -0.000000 -1.000000 0.000000
vn -0.000000 -1.000000 0.000000
vn -0.000000 -0.000000 -1.000000
vn -0.000000 -0.000000 -1.000000
vn -0.000000 -0.000000 -1.000000
vn -0.000000 -0.000000 -1.000000
vn 0.000000 1.000000 -0.000000
vn 0.000000 1.000000 -0.000000
vn 0.000000 1.000000 -0.000000
vn 0.000000 1.000000 -0.000000
vn 0.000000 0.000000 1.000000
vn 0.000000 0.000000 1.000000
vn 0.000000 0.000000 1.000000
vn 0.000000 0.000000 1.000000
vn -1.000000 0.000000 -0.000000
vn -1.000000 0.000000 -0.000000
vn -1.000000 0.000000 -0.000000
vn -1.000000 0.000000 -0.000000
vn 1.000000 -0.000000 0.000000
vn 1.000000 -0.000000 0.000000
vn 1.000000 -0.000000 0.000000
vn 1.000000 -0.000000 0.000000
vn 0.000000 -1.000000 0.000000
vn -0.000000 -1.000000 0.000000
vn -0.000000 -1.000000 0.000000
vn 0.000000 -1.000000 0.000000
vn -0.000000 -1.000000 0.000000
vn -0.000000 -1.000000 0.000000
vn 0.000000 -1.000000 0.000000
vn 0.000000 -1.000000 0.000000
vn -0.000000 -0.000000 -1.000000
vn -0.000000 -0.000000 -1.000000
vn -0.000000 -0.000000 -1.000000
vn -0.000000 -0.000000 -1.000000
vn 0.000000 0.000000 -1.000000
vn 0.000000 0.000000 -1.000000
vn 0.000000 0.000000 -1.000000
vn 0.000000 0.000000 -1.000000
vn 0.000000 1.000000 -0.000000
vn -0.000000 1.000000 -0.000000
vn -0.000000 1.000000 -0.000000
vn 0.000000 1.000000 -0.000000
vn -0.000000 1.000000 -0.000000
vn -0.000000 1.000000 -0.000000
vn 0.000000 1.000000 -0.000000
vn 0.000000 1.000000 -0.000000
vn 0.000000 0.000000 1.000000
vn 0.000000 0.000000 1.000000
vn 0.000000 0.000000 1.000000
vn 0.000000 0.000000 1.000000
vn -0.000000 -0.000000 1.000000
vn -0.000000 -0.000000 1.000000
vn -0.000000 -0.000000 1.000000
vn -0.000000 -0.000000 1.000000
vn -1.000000 0.000000 0.000000
vn -1.000000 0.000000 0.000000
vn -1.000000 0.000000 0.000000
vn -1.000000 0.000000 0.000000
vn -1.000000 0.000000 -0.000000
vn -1.000000 0.000000 -0.000000
vn -1.000000 0.000000 -0.000000
vn -1.000000 0.000000 -0.000000
vn 1.000000 -0.000000 0.000000
vn 1.000000 -0.000000 0.000000
vn 1.000000 -0.000000 0.000000
vn 1.000000 -0.000000 0.000000
vn 1.000000 -0.000000 -0.000000
vn 1.000000 -0.000000 -0.000000
vn 1.000000 -0.000000 -0.000000
vn 1.000000 -0.000000 -0.000000
vn -0.000000 -0.000000 -1.000000
vn -0.000000 -0.000000 -1.000000
vn -0.000000 -0.000000 -1.000000
vn -0.000000 -0.000000 -1.000000
vn 1.000000 -0.000000 0.000000
vn 1.000000 -0.000000 0.000000
vn 1.000000 -0.000000 0.000000
vn 1.000000 -0.000000 0.000000
vn 0.000000 0.000000 1.000000
vn 0.000000 0.000000 1.000000
vn 0.000000 0.000000 1.000000
vn 0.000000 0.000000 1.000000
vn -1.000000 0.000000 -0.000000
vn -1.000000 0.000000 -0.000000
vn -1.000000 0.000000 -0.000000
vn -1.000000 0.000000 -0.000000
vn 0.000000 1.000000 -0.000000
vn 0.000000 1.000000 -0.000000
vn 0.000000 1.000000 -0.000000
vn 0.000000 1.000000 -0.000000
vn 1.000000 -0.000000 0.000000
vn 1.000000 -0.000000 0.000000
vn 1.000000 -0.000000 0.000000
vn 1.000000 -0.000000 0.000000
vn -0.000000 -1.000000 0.000000
vn -0.000000 -1.000000 0.000000
vn -0.000000 -1.000000 0.000000
vn -0.000000 -1.000000 0.000000
vn -1.000000 0.000000 -0.000000
vn -1.000000 0.000000 -0.000000
vn -1.000000 0.000000 -0.000000
vn -1.000000 0.000000 -0.000000
vn 0.000000 0.000000 1.000000
vn 0.000000 0.000000 1.000000
vn 0.000000 0.000000 1.000000
vn 0.000000 0.000000 1.000000
vn 1.000000 -0.000000 0.000000
vn 1.000000 -0.000000 0.000000
vn 1.000000 -0.000000 0.000000
vn 1.000000 -0.000000 0.000000
vn -0.000000 -0.000000 -1.000000
vn -0.000000 -0.000000 -1.000000
vn -0.000000 -0.000000 -1.000000
vn -0.000000 -0.000000 -1.000000
vn -1.000000 0.000000 -0.000000
vn -1.000000 0.000000 -0.000000
vn -1.000000 0.000000 -0.000000
vn -1.000000 0.000000 -0.000000
vn -0.000000 -1.000000 0.000000
vn -0.000000 -1.000000 0.000000
vn -0.000000 -1.000000 0.000000
vn -0.000000 -1.000000 0.000000
vn 1.000000 -0.000000 0.000000
vn 1.000000 -0.000000 0.000000
vn 1.000000 -0.000000 0.000000
vn 1.000000 -0.000000 0.000000
vn 0.000000 1.000000 -0.000000
vn 0.000000 1.000000 -0.000000
vn 0.000000 1.000000 -0.000000
vn 0.000000 1.000000 -0.000000
vn -1.000000 0.000000 -0.000000
vn -1.000000 0.000000 -0.000000
vn -1.000000 0.000000 -0.000000
vn -1.000000 0.000000 -0.000000
vn -0.000000 -0.000000 -1.000000
vn -0.000000 -0.000000 -1.000000
vn -0.000000 -0.000000 -1.000000
vn -0.000000 -0.000000 -1.000000
vn -0.000000 -1.000000 0.000000
vn -0.000000 -1.000000 0.000000
vn -0.000000 -1.000000 0.000000
vn -0.000000 -1.000000 0.000000
vn 0.000000 0.000000 1.000000
vn 0.000000 0.000000 1.000000
vn 0.000000 0.000000 1.000000
vn 0.000000 0.000000 1.000000
vn 0.000000 1.000000 -0.000000
vn 0.000000 1.000000 -0.000000
vn 0.000000 1.000000 -0.000000
vn 0.000000 1.000000 -0.000000
vn -0.000000 -0.000000 -1.000000
vn -0.000000 -0.000000 -1.000000
vn -0.000000 -0.000000 -1.000000
vn -0.000000 -0.000000 -1.000000
vn 0.000000 1.000000 -0.000000
vn 0.000000 1.000000 -0.000000
vn 0.000000 1.000000 -0.000000
vn 0.000000 1.000000 -0.000000
vn 0.000000 0.000000 1.000000
vn 0.000000 0.000000 1.000000
vn 0.000000 0.000000 1.000000
vn 0.000000 0.000000 1.000000
vn -0.000000 -1.000000 0.000000
vn -0.000000 -1.000000 0.000000
vn -0.000000 -1.000000 0.000000
vn -0.000000 -1.000000 0.000000
s off
g pCube1
usemtl blinn1SG
f 33/1/1 34/2/2 35/3/3 36/4/4
f 37/5/5 38/6/6 39/7/7 40/8/8
f 41/9/9 42/10/10 43/11/11 44/12/12
f 45/13/13 46/14/14 47/15/15 48/16/16
f 50/17/17 49/18/18 51/19/19 52/20/20
f 53/21/21 54/24/22 55/37/23 56/38/24
s 1
f 1/22/25 2/23/26 10/25/27 9/28/28
f 2/23/26 4/55/29 11/56/30 10/25/27
f 4/55/29 3/57/31 12/58/32 11/56/30
f 3/57/31 1/22/25 9/28/28 12/58/32
s 2
f 3/39/33 4/40/34 14/41/35 13/42/36
f 4/40/34 6/43/37 15/44/38 14/41/35
f 6/43/37 5/45/39 16/46/40 15/44/38
f 5/45/39 3/39/33 13/42/36 16/46/40
s 3
f 5/29/41 6/30/42 18/59/43 17/60/44
f 6/30/42 8/61/45 19/62/46 18/59/43
f 8/61/45 7/63/47 20/64/48 19/62/46
f 7/63/47 5/29/41 17/60/44 20/64/48
s 4
f 7/31/49 8/32/50 22/33/51 21/34/52
f 8/32/50 2/69/53 23/70/54 22/33/51
f 2/69/53 1/71/55 24/72/56 23/70/54
f 1/71/55 7/31/49 21/34/52 24/72/56
s 5
f 2/26/57 8/27/58 25/35/59 26/36/60
f 8/27/58 6/65/61 27/66/62 25/35/59
f 6/65/61 4/67/63 28/68/64 27/66/62
f 4/67/63 2/26/57 26/36/60 28/68/64
s 6
f 7/47/65 1/48/66 30/49/67 29/50/68
f 1/48/66 3/51/69 31/52/70 30/49/67
f 3/51/69 5/53/71 32/54/72 31/52/70
f 5/53/71 7/47/65 29/50/68 32/54/72
s off
f 9/28/73 10/25/74 34/2/75 33/1/76
f 10/25/77 11/56/78 35/3/79 34/2/80
f 11/56/81 12/58/82 36/4/83 35/3/84
f 12/58/85 9/28/86 33/1/87 36/4/88
f 13/42/89 14/41/90 38/6/91 37/5/92
f 14/41/93 15/44/94 39/7/95 38/6/96
f 15/44/97 16/46/98 40/8/99 39/7/100
f 16/46/101 13/42/102 37/5/103 40/8/104
f 17/60/105 18/59/106 42/10/107 41/9/108
f 18/59/109 19/62/110 43/11/111 42/10/112
f 19/62/113 20/64/114 44/12/115 43/11/116
f 20/64/117 17/60/118 41/9/119 44/12/120
f 21/34/121 22/33/122 46/14/123 45/13/124
f 22/33/125 23/70/126 47/15/127 46/14/128
f 23/70/129 24/72/130 48/16/131 47/15/132
f 24/72/133 21/34/134 45/13/135 48/16/136
f 26/36/137 25/35/138 49/18/139 50/17/140
f 25/35/141 27/66/142 51/19/143 49/18/144
f 27/66/145 28/68/146 52/20/147 51/19/148
f 28/68/149 26/36/150 50/17/151 52/20/152
f 29/50/153 30/49/154 54/24/155 53/21/156
f 30/49/157 31/52/158 55/37/159 54/24/160
f 31/52/161 32/54/162 56/38/163 55/37/164
f 32/54/165 29/50/166 53/21/167 56/38/168
