# 3ds Max Wavefront OBJ Exporter v0.97b - (c)2007 guruware
# File Created: 23.03.2019 02:01:27

mtllib Barandilla.mtl

#
# object polySurface24
#

v  1.0717 2.3779 -3.9684
v  1.1450 2.3779 -3.9684
v  1.1450 3.1174 -3.9777
v  1.0717 3.1174 -3.9777
v  1.0717 3.1719 -4.0487
v  1.1450 3.1719 -4.0487
v  1.1450 2.3779 -4.0579
v  1.0717 2.3779 -4.0579
v  1.0714 2.1438 -3.6789
v  1.1446 2.1438 -3.6789
v  1.1446 2.8833 -3.6881
v  1.0714 2.8833 -3.6881
v  1.1446 2.9378 -3.7591
v  1.0714 2.9378 -3.7591
v  1.1446 2.1438 -3.7683
v  1.0714 2.1438 -3.7683
v  1.0714 1.9165 -3.3868
v  1.1446 1.9165 -3.3868
v  1.1446 2.6560 -3.3960
v  1.0714 2.6560 -3.3960
v  1.1446 2.7105 -3.4670
v  1.0714 2.7105 -3.4670
v  1.1446 1.9165 -3.4763
v  1.0714 1.9165 -3.4763
v  1.0714 1.6892 -3.0627
v  1.1446 1.6892 -3.0627
v  1.1446 2.4287 -3.0719
v  1.0714 2.4287 -3.0719
v  1.1446 2.4832 -3.1429
v  1.0714 2.4832 -3.1429
v  1.1446 1.6892 -3.1521
v  1.0714 1.6892 -3.1521
v  1.0714 1.4428 -2.7612
v  1.1446 1.4428 -2.7612
v  1.1446 2.1823 -2.7705
v  1.0714 2.1823 -2.7705
v  1.1446 2.2368 -2.8414
v  1.0714 2.2368 -2.8414
v  1.1446 1.4428 -2.8507
v  1.0714 1.4428 -2.8507
v  1.0714 1.2051 -2.4696
v  1.1446 1.2051 -2.4696
v  1.1446 1.9446 -2.4788
v  1.0714 1.9446 -2.4788
v  1.1446 1.9991 -2.5498
v  1.0714 1.9991 -2.5498
v  1.1446 1.2051 -2.5590
v  1.0714 1.2051 -2.5590
v  1.0714 0.9240 -2.1509
v  1.1446 0.9240 -2.1509
v  1.1446 1.6635 -2.1601
v  1.0714 1.6635 -2.1601
v  1.1446 1.7180 -2.2311
v  1.0714 1.7180 -2.2311
v  1.1446 0.9240 -2.2404
v  1.0714 0.9240 -2.2404
v  1.0714 0.6429 -1.8322
v  1.1446 0.6429 -1.8322
v  1.1446 1.3824 -1.8415
v  1.0714 1.3824 -1.8415
v  1.1446 1.4369 -1.9124
v  1.0714 1.4369 -1.9124
v  1.1446 0.6429 -1.9217
v  1.0714 0.6429 -1.9217
v  1.0714 0.3841 -1.5135
v  1.1446 0.3841 -1.5135
v  1.1446 1.1236 -1.5228
v  1.0714 1.1236 -1.5228
v  1.1446 1.1781 -1.5937
v  1.0714 1.1781 -1.5937
v  1.1446 0.3841 -1.6030
v  1.0714 0.3841 -1.6030
v  1.0684 1.1128 -1.3933
v  1.1555 1.1128 -1.3933
v  1.1555 3.2844 -4.0782
v  1.0684 3.2844 -4.0782
v  1.1555 3.2115 -4.1371
v  1.0684 3.2115 -4.1371
v  1.1555 1.0399 -1.4522
v  1.0684 1.0399 -1.4522
# 80 vertices

vn 0.0000 0.0125 0.9999
vn 0.0000 0.0117 -0.9999
vn 1.0000 0.0000 0.0000
vn -1.0000 0.0000 0.0000
vn 0.0000 0.7931 0.6091
vn 0.0000 -1.0000 -0.0000
vn 1.0000 -0.0000 -0.0000
vn -1.0000 -0.0000 -0.0000
vn 0.0000 0.7775 0.6289
vn 0.0000 0.6289 -0.7775
vn 0.0000 -0.7775 -0.6289
vn 0.0000 -0.6289 0.7775
vn 1.0000 0.0000 -0.0000
vn -1.0000 0.0000 -0.0000
# 14 vertex normals

vt 0.2570 0.8838 0.0000
vt 0.2368 0.8838 0.0000
vt 0.2368 0.6802 0.0000
vt 0.2570 0.6802 0.0000
vt 0.2515 0.9715 0.0000
vt 0.2515 0.9917 0.0000
vt 0.0329 0.9917 0.0000
vt 0.0329 0.9715 0.0000
vt 0.2579 0.8906 0.0000
vt 0.2579 0.9153 0.0000
vt 0.0393 0.9127 0.0000
vt 0.0543 0.8932 0.0000
vt 0.2547 0.9165 0.0000
vt 0.2547 0.9412 0.0000
vt 0.0511 0.9386 0.0000
vt 0.0361 0.9191 0.0000
vt 0.3695 0.1267 0.0000
vt 0.3897 0.1267 0.0000
vt 0.3897 0.3303 0.0000
vt 0.3695 0.3303 0.0000
vt 0.5573 0.1294 0.0000
vt 0.5346 0.1294 0.0000
vt 0.5346 0.1073 0.0000
vt 0.5573 0.1073 0.0000
vt 0.0329 0.6252 0.0000
vt 0.0530 0.6252 0.0000
vt 0.0530 0.8438 0.0000
vt 0.0329 0.8438 0.0000
vt 0.1061 0.4666 0.0000
vt 0.1061 0.4868 0.0000
vt 0.0814 0.4868 0.0000
vt 0.0814 0.4666 0.0000
vt 0.2355 0.8826 0.0000
vt 0.2109 0.8826 0.0000
vt 0.2134 0.6640 0.0000
vt 0.2330 0.6791 0.0000
vt 0.1721 0.1494 0.0000
vt 0.1967 0.1494 0.0000
vt 0.1941 0.3530 0.0000
vt 0.1746 0.3680 0.0000
vt 0.3468 0.1300 0.0000
vt 0.3670 0.1300 0.0000
vt 0.3670 0.3336 0.0000
vt 0.3468 0.3336 0.0000
vt 0.4828 0.2045 0.0000
vt 0.4828 0.1818 0.0000
vt 0.5048 0.1818 0.0000
vt 0.5048 0.2045 0.0000
vt 0.0555 0.1656 0.0000
vt 0.0757 0.1656 0.0000
vt 0.0757 0.3842 0.0000
vt 0.0555 0.3842 0.0000
vt 0.0814 0.4181 0.0000
vt 0.1016 0.4181 0.0000
vt 0.1016 0.4427 0.0000
vt 0.0814 0.4427 0.0000
vt 0.2497 0.1397 0.0000
vt 0.2744 0.1397 0.0000
vt 0.2718 0.3583 0.0000
vt 0.2523 0.3433 0.0000
vt 0.1061 0.8826 0.0000
vt 0.0814 0.8826 0.0000
vt 0.0840 0.6791 0.0000
vt 0.1035 0.6640 0.0000
vt 0.3242 0.1332 0.0000
vt 0.3443 0.1332 0.0000
vt 0.3443 0.3368 0.0000
vt 0.3242 0.3368 0.0000
vt 0.6350 0.1196 0.0000
vt 0.6123 0.1196 0.0000
vt 0.6123 0.0976 0.0000
vt 0.6350 0.0976 0.0000
vt 0.1008 0.1591 0.0000
vt 0.1210 0.1591 0.0000
vt 0.1210 0.3777 0.0000
vt 0.1008 0.3777 0.0000
vt 0.1061 0.4439 0.0000
vt 0.1061 0.4641 0.0000
vt 0.0814 0.4641 0.0000
vt 0.0814 0.4439 0.0000
vt 0.1979 0.1462 0.0000
vt 0.2226 0.1462 0.0000
vt 0.2200 0.3647 0.0000
vt 0.2005 0.3497 0.0000
vt 0.2096 0.8826 0.0000
vt 0.1850 0.8826 0.0000
vt 0.1875 0.6791 0.0000
vt 0.2071 0.6640 0.0000
vt 0.4375 0.1170 0.0000
vt 0.4576 0.1170 0.0000
vt 0.4576 0.3206 0.0000
vt 0.4375 0.3206 0.0000
vt 0.6091 0.1229 0.0000
vt 0.5864 0.1229 0.0000
vt 0.5864 0.1008 0.0000
vt 0.6091 0.1008 0.0000
vt 0.0782 0.1623 0.0000
vt 0.0983 0.1623 0.0000
vt 0.0983 0.3809 0.0000
vt 0.0782 0.3809 0.0000
vt 0.1061 0.4893 0.0000
vt 0.1061 0.5094 0.0000
vt 0.0814 0.5094 0.0000
vt 0.0814 0.4893 0.0000
vt 0.1837 0.8826 0.0000
vt 0.1591 0.8826 0.0000
vt 0.1617 0.6640 0.0000
vt 0.1812 0.6791 0.0000
vt 0.2238 0.1429 0.0000
vt 0.2485 0.1429 0.0000
vt 0.2459 0.3465 0.0000
vt 0.2264 0.3615 0.0000
vt 0.3922 0.1235 0.0000
vt 0.4123 0.1235 0.0000
vt 0.4123 0.3271 0.0000
vt 0.3922 0.3271 0.0000
vt 0.5314 0.1326 0.0000
vt 0.5087 0.1326 0.0000
vt 0.5087 0.1106 0.0000
vt 0.5314 0.1106 0.0000
vt 0.0329 0.3986 0.0000
vt 0.0530 0.3986 0.0000
vt 0.0530 0.6172 0.0000
vt 0.0329 0.6172 0.0000
vt 0.1061 0.5605 0.0000
vt 0.1061 0.5806 0.0000
vt 0.0814 0.5806 0.0000
vt 0.0814 0.5605 0.0000
vt 0.1462 0.1526 0.0000
vt 0.1708 0.1526 0.0000
vt 0.1682 0.3712 0.0000
vt 0.1487 0.3562 0.0000
vt 0.0802 0.8826 0.0000
vt 0.0555 0.8826 0.0000
vt 0.0581 0.6791 0.0000
vt 0.0776 0.6640 0.0000
vt 0.3015 0.1364 0.0000
vt 0.3217 0.1364 0.0000
vt 0.3217 0.3400 0.0000
vt 0.3015 0.3400 0.0000
vt 0.5832 0.1261 0.0000
vt 0.5605 0.1261 0.0000
vt 0.5605 0.1041 0.0000
vt 0.5832 0.1041 0.0000
vt 0.0530 0.3906 0.0000
vt 0.0329 0.3906 0.0000
vt 0.0329 0.1721 0.0000
vt 0.0530 0.1721 0.0000
vt 0.4828 0.1494 0.0000
vt 0.5030 0.1494 0.0000
vt 0.5030 0.1740 0.0000
vt 0.4828 0.1740 0.0000
vt 0.1578 0.8826 0.0000
vt 0.1332 0.8826 0.0000
vt 0.1358 0.6640 0.0000
vt 0.1553 0.6791 0.0000
vt 0.0555 0.3922 0.0000
vt 0.0802 0.3922 0.0000
vt 0.0776 0.5957 0.0000
vt 0.0581 0.6107 0.0000
vt 0.4601 0.1138 0.0000
vt 0.4803 0.1138 0.0000
vt 0.4803 0.3174 0.0000
vt 0.4601 0.3174 0.0000
vt 0.6609 0.1164 0.0000
vt 0.6382 0.1164 0.0000
vt 0.6382 0.0944 0.0000
vt 0.6609 0.0944 0.0000
vt 0.1437 0.3745 0.0000
vt 0.1235 0.3745 0.0000
vt 0.1235 0.1559 0.0000
vt 0.1437 0.1559 0.0000
vt 0.0814 0.5346 0.0000
vt 0.1016 0.5346 0.0000
vt 0.1016 0.5592 0.0000
vt 0.0814 0.5592 0.0000
vt 0.2756 0.1397 0.0000
vt 0.3003 0.1397 0.0000
vt 0.2977 0.3583 0.0000
vt 0.2782 0.3433 0.0000
vt 0.1319 0.8826 0.0000
vt 0.1073 0.8826 0.0000
vt 0.1099 0.6791 0.0000
vt 0.1294 0.6640 0.0000
vt 0.4148 0.1203 0.0000
vt 0.4350 0.1203 0.0000
vt 0.4350 0.3238 0.0000
vt 0.4148 0.3238 0.0000
vt 0.6868 0.1132 0.0000
vt 0.6640 0.1132 0.0000
vt 0.6640 0.0911 0.0000
vt 0.6868 0.0911 0.0000
vt 0.2515 0.9424 0.0000
vt 0.2515 0.9626 0.0000
vt 0.0329 0.9626 0.0000
vt 0.0329 0.9424 0.0000
vt 0.1061 0.5119 0.0000
vt 0.1061 0.5321 0.0000
vt 0.0814 0.5321 0.0000
vt 0.0814 0.5119 0.0000
vt 0.2530 0.9929 0.0000
vt 0.2530 0.9683 0.0000
vt 0.4715 0.9709 0.0000
vt 0.4565 0.9904 0.0000
vt 0.4748 0.9424 0.0000
vt 0.4748 0.9670 0.0000
vt 0.2712 0.9645 0.0000
vt 0.2562 0.9450 0.0000
vt 0.9618 0.0555 0.0000
vt 0.9925 0.0555 0.0000
vt 0.9925 0.9995 0.0000
vt 0.9618 0.9995 0.0000
vt 0.1041 0.3889 0.0000
vt 0.1041 0.4160 0.0000
vt 0.0814 0.4160 0.0000
vt 0.0814 0.3889 0.0000
vt 0.0311 0.9898 0.0000
vt 0.0005 0.9898 0.0000
vt 0.0005 0.0458 0.0000
vt 0.0311 0.0458 0.0000
vt 0.5055 0.1138 0.0000
vt 0.5055 0.1409 0.0000
vt 0.4828 0.1409 0.0000
vt 0.4828 0.1138 0.0000
vt 0.0425 0.1652 0.0000
vt 0.0393 0.1396 0.0000
vt 0.9828 0.0232 0.0000
vt 0.9860 0.0488 0.0000
vt 0.0042 0.0423 0.0000
vt 0.0037 0.0165 0.0000
vt 0.9542 0.0005 0.0000
vt 0.9547 0.0263 0.0000
# 232 texture coords

o polySurface24
g polySurface24
usemtl Texture
s off
f 1/1/1 2/2/1 3/3/1 
f 3/3/1 4/4/1 1/1/1 
f 5/5/2 6/6/2 7/7/2 
f 7/7/2 8/8/2 5/5/2 
f 2/9/3 7/10/3 6/11/3 
f 6/11/3 3/12/3 2/9/3 
f 8/13/4 1/14/4 4/15/4 
f 4/15/4 5/16/4 8/13/4 
f 9/17/1 10/18/1 11/19/1 
f 11/19/1 12/20/1 9/17/1 
f 12/21/5 11/22/5 13/23/5 
f 13/23/5 14/24/5 12/21/5 
f 14/25/2 13/26/2 15/27/2 
f 15/27/2 16/28/2 14/25/2 
f 16/29/6 15/30/6 10/31/6 
f 10/31/6 9/32/6 16/29/6 
f 10/33/7 15/34/7 13/35/7 
f 13/35/7 11/36/7 10/33/7 
f 16/37/4 9/38/4 12/39/4 
f 12/39/4 14/40/4 16/37/4 
f 17/41/1 18/42/1 19/43/1 
f 19/43/1 20/44/1 17/41/1 
f 20/45/5 19/46/5 21/47/5 
f 21/47/5 22/48/5 20/45/5 
f 22/49/2 21/50/2 23/51/2 
f 23/51/2 24/52/2 22/49/2 
f 24/53/6 23/54/6 18/55/6 
f 18/55/6 17/56/6 24/53/6 
f 18/57/7 23/58/7 21/59/7 
f 21/59/7 19/60/7 18/57/7 
f 24/61/4 17/62/4 20/63/4 
f 20/63/4 22/64/4 24/61/4 
f 25/65/1 26/66/1 27/67/1 
f 27/67/1 28/68/1 25/65/1 
f 28/69/5 27/70/5 29/71/5 
f 29/71/5 30/72/5 28/69/5 
f 30/73/2 29/74/2 31/75/2 
f 31/75/2 32/76/2 30/73/2 
f 32/77/6 31/78/6 26/79/6 
f 26/79/6 25/80/6 32/77/6 
f 26/81/7 31/82/7 29/83/7 
f 29/83/7 27/84/7 26/81/7 
f 32/85/4 25/86/4 28/87/4 
f 28/87/4 30/88/4 32/85/4 
f 33/89/1 34/90/1 35/91/1 
f 35/91/1 36/92/1 33/89/1 
f 36/93/5 35/94/5 37/95/5 
f 37/95/5 38/96/5 36/93/5 
f 38/97/2 37/98/2 39/99/2 
f 39/99/2 40/100/2 38/97/2 
f 40/101/6 39/102/6 34/103/6 
f 34/103/6 33/104/6 40/101/6 
f 34/105/7 39/106/7 37/107/7 
f 37/107/7 35/108/7 34/105/7 
f 40/109/4 33/110/4 36/111/4 
f 36/111/4 38/112/4 40/109/4 
f 41/113/1 42/114/1 43/115/1 
f 43/115/1 44/116/1 41/113/1 
f 44/117/5 43/118/5 45/119/5 
f 45/119/5 46/120/5 44/117/5 
f 46/121/2 45/122/2 47/123/2 
f 47/123/2 48/124/2 46/121/2 
f 48/125/6 47/126/6 42/127/6 
f 42/127/6 41/128/6 48/125/6 
f 42/129/7 47/130/7 45/131/7 
f 45/131/7 43/132/7 42/129/7 
f 48/133/8 41/134/8 44/135/8 
f 44/135/8 46/136/8 48/133/8 
f 49/137/1 50/138/1 51/139/1 
f 51/139/1 52/140/1 49/137/1 
f 52/141/5 51/142/5 53/143/5 
f 53/143/5 54/144/5 52/141/5 
f 54/145/2 53/146/2 55/147/2 
f 55/147/2 56/148/2 54/145/2 
f 56/149/6 55/150/6 50/151/6 
f 50/151/6 49/152/6 56/149/6 
f 50/153/7 55/154/7 53/155/7 
f 53/155/7 51/156/7 50/153/7 
f 56/157/8 49/158/8 52/159/8 
f 52/159/8 54/160/8 56/157/8 
f 57/161/1 58/162/1 59/163/1 
f 59/163/1 60/164/1 57/161/1 
f 60/165/5 59/166/5 61/167/5 
f 61/167/5 62/168/5 60/165/5 
f 62/169/2 61/170/2 63/171/2 
f 63/171/2 64/172/2 62/169/2 
f 64/173/6 63/174/6 58/175/6 
f 58/175/6 57/176/6 64/173/6 
f 58/177/7 63/178/7 61/179/7 
f 61/179/7 59/180/7 58/177/7 
f 64/181/8 57/182/8 60/183/8 
f 60/183/8 62/184/8 64/181/8 
f 65/185/1 66/186/1 67/187/1 
f 67/187/1 68/188/1 65/185/1 
f 68/189/5 67/190/5 69/191/5 
f 69/191/5 70/192/5 68/189/5 
f 70/193/2 69/194/2 71/195/2 
f 71/195/2 72/196/2 70/193/2 
f 72/197/6 71/198/6 66/199/6 
f 66/199/6 65/200/6 72/197/6 
f 66/201/7 71/202/7 69/203/7 
f 69/203/7 67/204/7 66/201/7 
f 72/205/8 65/206/8 68/207/8 
f 68/207/8 70/208/8 72/205/8 
f 73/209/9 74/210/9 75/211/9 
f 75/211/9 76/212/9 73/209/9 
f 76/213/10 75/214/10 77/215/10 
f 77/215/10 78/216/10 76/213/10 
f 78/217/11 77/218/11 79/219/11 
f 79/219/11 80/220/11 78/217/11 
f 80/221/12 79/222/12 74/223/12 
f 74/223/12 73/224/12 80/221/12 
f 74/225/13 79/226/13 77/227/13 
f 77/227/13 75/228/13 74/225/13 
f 80/229/14 73/230/14 76/231/14 
f 76/231/14 78/232/14 80/229/14 
# 116 faces

