# 3ds Max Wavefront OBJ Exporter v0.97b - (c)2007 guruware
# File Created: 02.06.2019 18:20:54

mtllib cerveza.mtl

#
# object Bottle_Low
#

v  -8.8718 -0.0434 -2.0254
v  -8.5387 -0.0434 -1.7834
v  -9.0777 -0.0434 -1.3918
v  -9.2835 -0.0434 -2.0254
v  -9.6166 -0.0434 -1.7834
v  -9.7438 -0.0434 -1.3918
v  -9.6166 -0.0434 -1.0002
v  -9.2835 -0.0434 -0.7582
v  -8.8718 -0.0434 -0.7582
v  -8.5387 -0.0434 -1.0002
v  -8.4115 -0.0434 -1.3918
v  -8.7826 0.1222 -2.3000
v  -8.3051 0.1222 -1.9531
v  -9.3728 0.1222 -2.3000
v  -9.8503 0.1222 -1.9531
v  -10.0326 0.1222 -1.3918
v  -9.8503 0.1222 -0.8305
v  -9.3728 0.1222 -0.4836
v  -8.7826 0.1222 -0.4836
v  -8.3051 0.1222 -0.8305
v  -8.1227 0.1222 -1.3918
v  -8.2095 4.9421 -1.3918
v  -8.1369 4.5641 -1.3918
v  -8.3166 4.5641 -1.9448
v  -8.3753 4.9421 -1.9021
v  -8.3753 4.9421 -0.8815
v  -8.3166 4.5641 -0.8388
v  -8.8094 4.9421 -0.5661
v  -8.7870 4.5641 -0.4971
v  -9.3460 4.9421 -0.5661
v  -9.3684 4.5641 -0.4971
v  -9.7800 4.9421 -0.8815
v  -9.8388 4.5641 -0.8388
v  -9.9459 4.9421 -1.3918
v  -10.0184 4.5641 -1.3918
v  -9.7800 4.9421 -1.9021
v  -9.8388 4.5641 -1.9448
v  -9.3460 4.9421 -2.2175
v  -9.3684 4.5641 -2.2865
v  -8.8094 4.9421 -2.2175
v  -8.7870 4.5641 -2.2865
v  -8.2687 0.3971 -1.9796
v  -8.7687 0.3971 -2.3428
v  -9.3867 0.3971 -2.3428
v  -9.8867 0.3971 -1.9796
v  -10.0777 0.3971 -1.3918
v  -9.8867 0.3971 -0.8040
v  -9.3867 0.3971 -0.4407
v  -8.7687 0.3971 -0.4407
v  -8.2687 0.3971 -0.8040
v  -8.0777 0.3971 -1.3918
v  -8.6408 5.5271 -1.7092
v  -8.5376 5.5271 -1.3918
v  -8.4632 5.3233 -1.3918
v  -8.5806 5.3233 -1.7530
v  -8.9108 5.5271 -1.9054
v  -8.8878 5.3233 -1.9762
v  -9.2445 5.5271 -1.9054
v  -9.2676 5.3233 -1.9762
v  -9.5146 5.5271 -1.7092
v  -9.5748 5.3233 -1.7530
v  -9.6177 5.5271 -1.3918
v  -9.6921 5.3233 -1.3918
v  -9.5146 5.5271 -1.0744
v  -9.5748 5.3233 -1.0306
v  -9.2445 5.5271 -0.8782
v  -9.2676 5.3233 -0.8074
v  -8.9108 5.5271 -0.8782
v  -8.8878 5.3233 -0.8074
v  -8.6408 5.5271 -1.0744
v  -8.5806 5.3233 -1.0306
v  -8.8064 7.3950 -1.5889
v  -8.7424 7.3950 -1.3918
v  -8.9741 7.3950 -1.7107
v  -9.1813 7.3950 -1.7107
v  -9.3489 7.3950 -1.5889
v  -9.4129 7.3950 -1.3918
v  -9.3489 7.3950 -1.1947
v  -9.1813 7.3950 -1.0729
v  -8.9741 7.3950 -1.0729
v  -8.8064 7.3958 -1.1947
v  -8.3041 5.1475 -1.3918
v  -8.4518 5.1475 -1.8465
v  -8.8386 5.1475 -2.1275
v  -9.3167 5.1475 -2.1275
v  -9.7035 5.1475 -1.8465
v  -9.8512 5.1475 -1.3918
v  -9.7035 5.1475 -0.9371
v  -9.3167 5.1475 -0.6561
v  -8.8386 5.1475 -0.6561
v  -8.4518 5.1475 -0.9371
v  -8.6870 7.4419 -1.3918
v  -8.7616 7.4419 -1.1622
v  -8.7771 7.4222 -1.1734
v  -8.7062 7.4222 -1.3918
v  -8.9570 7.4419 -1.0203
v  -8.9629 7.4222 -1.0385
v  -9.1984 7.4419 -1.0203
v  -9.1925 7.4222 -1.0385
v  -9.3937 7.4419 -1.1622
v  -9.3782 7.4222 -1.1734
v  -9.4683 7.4419 -1.3918
v  -9.4491 7.4222 -1.3918
v  -9.3937 7.4419 -1.6214
v  -9.3782 7.4222 -1.6101
v  -9.1984 7.4419 -1.7633
v  -9.1925 7.4222 -1.7451
v  -8.9570 7.4419 -1.7633
v  -8.9629 7.4222 -1.7451
v  -8.7616 7.4419 -1.6214
v  -8.7771 7.4222 -1.6101
v  -8.7624 7.5869 -1.1627
v  -8.6879 7.5869 -1.3918
v  -8.9572 7.5869 -1.0211
v  -9.1981 7.5869 -1.0211
v  -9.3930 7.5869 -1.1627
v  -9.4674 7.5869 -1.3918
v  -9.3930 7.5869 -1.6209
v  -9.1981 7.5869 -1.7625
v  -8.9572 7.5869 -1.7625
v  -8.7624 7.5869 -1.6209
v  -8.7691 7.5869 -1.3918
v  -8.8281 7.5869 -1.5731
v  -8.9823 7.5869 -1.6852
v  -9.1730 7.5869 -1.6852
v  -9.3273 7.5869 -1.5731
v  -9.3862 7.5869 -1.3918
v  -9.3273 7.5869 -1.2104
v  -9.1730 7.5869 -1.0984
v  -8.9823 7.5869 -1.0984
v  -8.8281 7.5869 -1.2104
v  -8.7691 6.8847 -1.3918
v  -8.8281 6.8847 -1.5731
v  -8.9823 6.8847 -1.6852
v  -9.1730 6.8847 -1.6852
v  -9.3273 6.8847 -1.5731
v  -9.3862 6.8847 -1.3918
v  -9.3273 6.8847 -1.2104
v  -9.1730 6.8847 -1.0984
v  -8.9823 6.8847 -1.0984
v  -8.8281 6.8847 -1.2104
v  -9.0777 6.8847 -1.3918
# 142 vertices

vn 0.0392 -0.9919 -0.1206
vn 0.1026 -0.9919 -0.0745
vn 0.0000 -1.0000 -0.0000
vn -0.0392 -0.9919 -0.1206
vn -0.1026 -0.9919 -0.0745
vn -0.1268 -0.9919 -0.0000
vn -0.1026 -0.9919 0.0745
vn -0.0392 -0.9919 0.1206
vn 0.0392 -0.9919 0.1206
vn 0.1026 -0.9919 0.0745
vn 0.1268 -0.9919 -0.0000
vn 0.1620 -0.8516 -0.4985
vn 0.4240 -0.8516 -0.3081
vn -0.1620 -0.8516 -0.4985
vn -0.4240 -0.8516 -0.3081
vn -0.5241 -0.8516 -0.0000
vn -0.4240 -0.8516 0.3081
vn -0.1620 -0.8516 0.4985
vn 0.1620 -0.8516 0.4985
vn 0.4240 -0.8516 0.3081
vn 0.5241 -0.8516 0.0000
vn 0.8075 0.5898 0.0000
vn 0.9973 0.0734 0.0000
vn 0.8068 0.0734 -0.5862
vn 0.6533 0.5898 -0.4746
vn 0.6533 0.5898 0.4746
vn 0.8068 0.0734 0.5862
vn 0.2495 0.5898 0.7680
vn 0.3082 0.0734 0.9485
vn -0.2495 0.5898 0.7680
vn -0.3082 0.0734 0.9485
vn -0.6533 0.5898 0.4746
vn -0.8068 0.0734 0.5862
vn -0.8075 0.5898 0.0000
vn -0.9973 0.0734 0.0000
vn -0.6533 0.5898 -0.4746
vn -0.8068 0.0734 -0.5862
vn -0.2495 0.5898 -0.7680
vn -0.3082 0.0734 -0.9485
vn 0.2495 0.5898 -0.7680
vn 0.3082 0.0734 -0.9485
vn 0.8090 0.0107 -0.5878
vn 0.3090 0.0107 -0.9510
vn -0.3090 0.0107 -0.9510
vn -0.8090 0.0107 -0.5878
vn -0.9999 0.0107 0.0000
vn -0.8090 0.0107 0.5878
vn -0.3090 0.0107 0.9510
vn 0.3090 0.0107 0.9510
vn 0.8090 0.0107 0.5878
vn 0.9999 0.0107 0.0000
vn 0.7499 0.3752 -0.5448
vn 0.9269 0.3752 -0.0000
vn 0.4708 0.8822 0.0000
vn 0.3809 0.8822 -0.2767
vn 0.2864 0.3752 -0.8816
vn 0.1455 0.8822 -0.4478
vn -0.2864 0.3752 -0.8816
vn -0.1455 0.8822 -0.4478
vn -0.7499 0.3752 -0.5448
vn -0.3809 0.8822 -0.2767
vn -0.9269 0.3752 0.0000
vn -0.4708 0.8822 0.0000
vn -0.7499 0.3752 0.5448
vn -0.3809 0.8822 0.2767
vn -0.2864 0.3752 0.8816
vn -0.1455 0.8822 0.4478
vn 0.2864 0.3752 0.8816
vn 0.1455 0.8822 0.4478
vn 0.7499 0.3752 0.5448
vn 0.3809 0.8822 0.2767
vn 0.7850 0.2417 -0.5704
vn 0.9703 0.2417 0.0001
vn 0.2999 0.2417 -0.9229
vn -0.2999 0.2417 -0.9229
vn -0.7850 0.2417 -0.5704
vn -0.9703 0.2417 0.0000
vn -0.7850 0.2417 0.5704
vn -0.2999 0.2417 0.9229
vn 0.2999 0.2417 0.9228
vn 0.7850 0.2417 0.5704
vn 0.5123 0.8588 0.0000
vn 0.4144 0.8588 -0.3011
vn 0.1583 0.8588 -0.4872
vn -0.1583 0.8588 -0.4872
vn -0.4144 0.8588 -0.3011
vn -0.5123 0.8588 0.0000
vn -0.4144 0.8588 0.3011
vn -0.1583 0.8588 0.4872
vn 0.1583 0.8588 0.4872
vn 0.4144 0.8588 0.3011
vn 0.9711 -0.2385 0.0000
vn 0.7857 -0.2385 0.5708
vn 0.2448 -0.9531 0.1779
vn 0.3033 -0.9529 -0.0002
vn 0.3001 -0.2385 0.9236
vn 0.0936 -0.9529 0.2885
vn -0.3001 -0.2385 0.9236
vn -0.0940 -0.9526 0.2893
vn -0.7857 -0.2385 0.5708
vn -0.2461 -0.9526 0.1788
vn -0.9711 -0.2385 0.0000
vn -0.3042 -0.9526 0.0000
vn -0.7857 -0.2385 -0.5708
vn -0.2461 -0.9526 -0.1788
vn -0.3001 -0.2385 -0.9236
vn -0.0940 -0.9526 -0.2893
vn 0.3001 -0.2385 -0.9236
vn 0.0940 -0.9526 -0.2893
vn 0.7857 -0.2385 -0.5708
vn 0.2461 -0.9526 -0.1788
vn 0.8089 0.0169 0.5877
vn 0.9999 0.0169 0.0000
vn 0.3090 0.0169 0.9509
vn -0.3090 0.0169 0.9509
vn -0.8089 0.0169 0.5877
vn -0.9999 0.0169 -0.0000
vn -0.8089 0.0169 -0.5877
vn -0.3090 0.0169 -0.9509
vn 0.3090 0.0169 -0.9509
vn 0.8089 0.0169 -0.5877
vn 0.0000 1.0000 0.0000
vn 0.0000 1.0000 -0.0000
vn -1.0000 0.0000 -0.0000
vn -0.8090 -0.0000 0.5878
vn -0.3090 -0.0000 0.9511
vn 0.3090 -0.0000 0.9511
vn 0.8090 -0.0000 0.5878
vn 1.0000 0.0000 -0.0000
vn 0.8090 0.0000 -0.5878
vn 0.3090 0.0000 -0.9511
vn -0.3090 0.0000 -0.9511
vn -0.8090 0.0000 -0.5878
vn -0.0000 1.0000 0.0000
vn -0.0000 1.0000 -0.0000
# 135 vertex normals

vt 0.7883 0.3078 0.0000
vt 0.8452 0.2643 0.0000
vt 0.7531 0.1939 0.0000
vt 0.7179 0.3078 0.0000
vt 0.6609 0.2643 0.0000
vt 0.6392 0.1939 0.0000
vt 0.6609 0.1236 0.0000
vt 0.7179 0.0801 0.0000
vt 0.7883 0.0801 0.0000
vt 0.8452 0.1236 0.0000
vt 0.8670 0.1939 0.0000
vt 0.8035 0.3572 0.0000
vt 0.8852 0.2948 0.0000
vt 0.7026 0.3572 0.0000
vt 0.6210 0.2948 0.0000
vt 0.5898 0.1939 0.0000
vt 0.6210 0.0931 0.0000
vt 0.7026 0.0307 0.0000
vt 0.8035 0.0307 0.0000
vt 0.8852 0.0931 0.0000
vt 0.9163 0.1939 0.0000
vt 0.4062 0.6577 0.0000
vt 0.4062 0.6071 0.0000
vt 0.4600 0.6071 0.0000
vt 0.4600 0.6577 0.0000
vt 0.3523 0.6577 0.0000
vt 0.3523 0.6071 0.0000
vt 0.2984 0.6577 0.0000
vt 0.2984 0.6071 0.0000
vt 0.2445 0.6577 0.0000
vt 0.2445 0.6071 0.0000
vt 0.1907 0.6577 0.0000
vt 0.1907 0.6071 0.0000
vt 0.1368 0.6577 0.0000
vt 0.1368 0.6071 0.0000
vt 0.0829 0.6577 0.0000
vt 0.0829 0.6071 0.0000
vt 0.0290 0.6577 0.0000
vt 0.0290 0.6071 0.0000
vt 0.5139 0.6577 0.0000
vt 0.5139 0.6071 0.0000
vt 0.5678 0.6071 0.0000
vt 0.5678 0.6577 0.0000
vt 0.4600 0.0492 0.0000
vt 0.5139 0.0492 0.0000
vt 0.5678 0.0492 0.0000
vt 0.0290 0.0492 0.0000
vt 0.0829 0.0492 0.0000
vt 0.1368 0.0492 0.0000
vt 0.1907 0.0492 0.0000
vt 0.2445 0.0492 0.0000
vt 0.2984 0.0492 0.0000
vt 0.3523 0.0492 0.0000
vt 0.4062 0.0492 0.0000
vt 0.4600 0.7360 0.0000
vt 0.4062 0.7360 0.0000
vt 0.4062 0.7087 0.0000
vt 0.4600 0.7087 0.0000
vt 0.5139 0.7360 0.0000
vt 0.5139 0.7087 0.0000
vt 0.5678 0.7360 0.0000
vt 0.5678 0.7087 0.0000
vt 0.0829 0.7360 0.0000
vt 0.0290 0.7360 0.0000
vt 0.0290 0.7087 0.0000
vt 0.0829 0.7087 0.0000
vt 0.1368 0.7360 0.0000
vt 0.1368 0.7087 0.0000
vt 0.1907 0.7360 0.0000
vt 0.1907 0.7087 0.0000
vt 0.2445 0.7360 0.0000
vt 0.2445 0.7087 0.0000
vt 0.2984 0.7360 0.0000
vt 0.2984 0.7087 0.0000
vt 0.3523 0.7360 0.0000
vt 0.3523 0.7087 0.0000
vt 0.4600 0.9861 0.0000
vt 0.4062 0.9861 0.0000
vt 0.5139 0.9861 0.0000
vt 0.5678 0.9861 0.0000
vt 0.0829 0.9861 0.0000
vt 0.0290 0.9861 0.0000
vt 0.1368 0.9861 0.0000
vt 0.1907 0.9861 0.0000
vt 0.2445 0.9861 0.0000
vt 0.2984 0.9861 0.0000
vt 0.3523 0.9862 0.0000
vt 0.4062 0.6852 0.0000
vt 0.4600 0.6852 0.0000
vt 0.5139 0.6852 0.0000
vt 0.5678 0.6852 0.0000
vt 0.0290 0.6852 0.0000
vt 0.0829 0.6852 0.0000
vt 0.1368 0.6852 0.0000
vt 0.1907 0.6852 0.0000
vt 0.2445 0.6852 0.0000
vt 0.2984 0.6852 0.0000
vt 0.3523 0.6852 0.0000
vt 0.4062 0.0124 0.0000
vt 0.4600 0.0124 0.0000
vt 0.3523 0.0124 0.0000
vt 0.2984 0.0124 0.0000
vt 0.2445 0.0124 0.0000
vt 0.1907 0.0124 0.0000
vt 0.1368 0.0124 0.0000
vt 0.0829 0.0124 0.0000
vt 0.0290 0.0124 0.0000
vt 0.5139 0.0124 0.0000
vt 0.5678 0.0124 0.0000
vt 0.9414 0.2435 0.0000
vt 0.9414 0.3109 0.0000
vt 0.9359 0.3109 0.0000
vt 0.9359 0.2435 0.0000
vt 0.9414 0.3783 0.0000
vt 0.9359 0.3783 0.0000
vt 0.9414 0.4457 0.0000
vt 0.9359 0.4457 0.0000
vt 0.9414 0.5131 0.0000
vt 0.9359 0.5131 0.0000
vt 0.9414 0.5805 0.0000
vt 0.9359 0.5805 0.0000
vt 0.9414 0.6479 0.0000
vt 0.9359 0.6479 0.0000
vt 0.9414 0.7153 0.0000
vt 0.9359 0.7153 0.0000
vt 0.9414 0.0414 0.0000
vt 0.9414 0.1087 0.0000
vt 0.9359 0.1087 0.0000
vt 0.9359 0.0414 0.0000
vt 0.9414 0.1761 0.0000
vt 0.9359 0.1761 0.0000
vt 0.9820 0.3109 0.0000
vt 0.9820 0.2435 0.0000
vt 0.9820 0.3783 0.0000
vt 0.9820 0.4457 0.0000
vt 0.9820 0.5131 0.0000
vt 0.9820 0.5805 0.0000
vt 0.9820 0.6479 0.0000
vt 0.9820 0.7153 0.0000
vt 0.9820 0.1087 0.0000
vt 0.9820 0.0414 0.0000
vt 0.9820 0.1761 0.0000
vt 0.9283 0.2435 0.0000
vt 0.9283 0.1761 0.0000
vt 0.9283 0.1087 0.0000
vt 0.9283 0.0414 0.0000
vt 0.9283 0.7153 0.0000
vt 0.9283 0.6479 0.0000
vt 0.9283 0.5805 0.0000
vt 0.9283 0.5131 0.0000
vt 0.9283 0.4457 0.0000
vt 0.9283 0.3783 0.0000
vt 0.9285 0.3109 0.0000
vt 0.9686 0.8534 0.0000
vt 0.9951 0.8534 0.0000
vt 0.9708 0.9318 0.0000
vt 0.9494 0.9154 0.0000
vt 0.9074 0.9803 0.0000
vt 0.8992 0.9538 0.0000
vt 0.8289 0.9803 0.0000
vt 0.8371 0.9538 0.0000
vt 0.7655 0.9318 0.0000
vt 0.7869 0.9154 0.0000
vt 0.7412 0.8534 0.0000
vt 0.7677 0.8534 0.0000
vt 0.7655 0.7749 0.0000
vt 0.7869 0.7913 0.0000
vt 0.8289 0.7264 0.0000
vt 0.8371 0.7529 0.0000
vt 0.9074 0.7264 0.0000
vt 0.8992 0.7529 0.0000
vt 0.9708 0.7749 0.0000
vt 0.9494 0.7913 0.0000
vt 0.5797 0.5621 0.0000
vt 0.7344 0.5621 0.0000
vt 0.7344 0.5033 0.0000
vt 0.5797 0.5033 0.0000
vt 0.7344 0.4445 0.0000
vt 0.5797 0.4445 0.0000
vt 0.7344 0.3856 0.0000
vt 0.5797 0.3856 0.0000
vt 0.5797 0.9739 0.0000
vt 0.7344 0.9739 0.0000
vt 0.7344 0.9151 0.0000
vt 0.5797 0.9151 0.0000
vt 0.7344 0.8563 0.0000
vt 0.5797 0.8563 0.0000
vt 0.7344 0.7974 0.0000
vt 0.5797 0.7974 0.0000
vt 0.7344 0.7386 0.0000
vt 0.5797 0.7386 0.0000
vt 0.7344 0.6798 0.0000
vt 0.5797 0.6798 0.0000
vt 0.7344 0.6209 0.0000
vt 0.5797 0.6209 0.0000
vt 0.8690 0.8522 0.0000
vt 0.9603 0.8522 0.0000
vt 0.9429 0.9059 0.0000
vt 0.8972 0.9391 0.0000
vt 0.8407 0.9391 0.0000
vt 0.7950 0.9059 0.0000
vt 0.7776 0.8522 0.0000
vt 0.7950 0.7985 0.0000
vt 0.8407 0.7653 0.0000
vt 0.8972 0.7653 0.0000
vt 0.9429 0.7985 0.0000
# 206 texture coords

o Bottle_Low
g Bottle_Low
usemtl lambert1
s off
f 1/1/1 2/2/2 3/3/3 
f 4/4/4 1/1/1 3/3/3 
f 5/5/5 4/4/4 3/3/3 
f 6/6/6 5/5/5 3/3/3 
f 7/7/7 6/6/6 3/3/3 
f 8/8/8 7/7/7 3/3/3 
f 9/9/9 8/8/8 3/3/3 
f 10/10/10 9/9/9 3/3/3 
f 11/11/11 10/10/10 3/3/3 
f 11/11/11 3/3/3 2/2/2 
f 12/12/12 13/13/13 2/2/2 
f 2/2/2 1/1/1 12/12/12 
f 14/14/14 12/12/12 1/1/1 
f 1/1/1 4/4/4 14/14/14 
f 15/15/15 14/14/14 4/4/4 
f 4/4/4 5/5/5 15/15/15 
f 16/16/16 15/15/15 5/5/5 
f 5/5/5 6/6/6 16/16/16 
f 17/17/17 16/16/16 6/6/6 
f 6/6/6 7/7/7 17/17/17 
f 18/18/18 17/17/17 7/7/7 
f 7/7/7 8/8/8 18/18/18 
f 19/19/19 18/18/18 8/8/8 
f 8/8/8 9/9/9 19/19/19 
f 20/20/20 19/19/19 9/9/9 
f 9/9/9 10/10/10 20/20/20 
f 21/21/21 20/20/20 10/10/10 
f 10/10/10 11/11/11 21/21/21 
f 21/21/21 11/11/11 2/2/2 
f 2/2/2 13/13/13 21/21/21 
f 22/22/22 23/23/23 24/24/24 
f 24/24/24 25/25/25 22/22/22 
f 26/26/26 27/27/27 23/23/23 
f 23/23/23 22/22/22 26/26/26 
f 28/28/28 29/29/29 27/27/27 
f 27/27/27 26/26/26 28/28/28 
f 30/30/30 31/31/31 29/29/29 
f 29/29/29 28/28/28 30/30/30 
f 32/32/32 33/33/33 31/31/31 
f 31/31/31 30/30/30 32/32/32 
f 34/34/34 35/35/35 33/33/33 
f 33/33/33 32/32/32 34/34/34 
f 36/36/36 37/37/37 35/35/35 
f 35/35/35 34/34/34 36/36/36 
f 38/38/38 39/39/39 37/37/37 
f 37/37/37 36/36/36 38/38/38 
f 40/40/40 41/41/41 39/42/39 
f 39/42/39 38/43/38 40/40/40 
f 25/25/25 24/24/24 41/41/41 
f 41/41/41 40/40/40 25/25/25 
f 41/41/41 24/24/24 42/44/42 
f 42/44/42 43/45/43 41/41/41 
f 39/42/39 41/41/41 43/45/43 
f 43/45/43 44/46/44 39/42/39 
f 37/37/37 39/39/39 44/47/44 
f 44/47/44 45/48/45 37/37/37 
f 35/35/35 37/37/37 45/48/45 
f 45/48/45 46/49/46 35/35/35 
f 33/33/33 35/35/35 46/49/46 
f 46/49/46 47/50/47 33/33/33 
f 31/31/31 33/33/33 47/50/47 
f 47/50/47 48/51/48 31/31/31 
f 29/29/29 31/31/31 48/51/48 
f 48/51/48 49/52/49 29/29/29 
f 27/27/27 29/29/29 49/52/49 
f 49/52/49 50/53/50 27/27/27 
f 23/23/23 27/27/27 50/53/50 
f 50/53/50 51/54/51 23/23/23 
f 24/24/24 23/23/23 51/54/51 
f 51/54/51 42/44/42 24/24/24 
f 52/55/52 53/56/53 54/57/54 
f 54/57/54 55/58/55 52/55/52 
f 56/59/56 52/55/52 55/58/55 
f 55/58/55 57/60/57 56/59/56 
f 58/61/58 56/59/56 57/60/57 
f 57/60/57 59/62/59 58/61/58 
f 60/63/60 58/64/58 59/65/59 
f 59/65/59 61/66/61 60/63/60 
f 62/67/62 60/63/60 61/66/61 
f 61/66/61 63/68/63 62/67/62 
f 64/69/64 62/67/62 63/68/63 
f 63/68/63 65/70/65 64/69/64 
f 66/71/66 64/69/64 65/70/65 
f 65/70/65 67/72/67 66/71/66 
f 68/73/68 66/71/66 67/72/67 
f 67/72/67 69/74/69 68/73/68 
f 70/75/70 68/73/68 69/74/69 
f 69/74/69 71/76/71 70/75/70 
f 53/56/53 70/75/70 71/76/71 
f 71/76/71 54/57/54 53/56/53 
f 72/77/72 73/78/73 53/56/53 
f 53/56/53 52/55/52 72/77/72 
f 74/79/74 72/77/72 52/55/52 
f 52/55/52 56/59/56 74/79/74 
f 75/80/75 74/79/74 56/59/56 
f 56/59/56 58/61/58 75/80/75 
f 76/81/76 75/82/75 58/64/58 
f 58/64/58 60/63/60 76/81/76 
f 77/83/77 76/81/76 60/63/60 
f 60/63/60 62/67/62 77/83/77 
f 78/84/78 77/83/77 62/67/62 
f 62/67/62 64/69/64 78/84/78 
f 79/85/79 78/84/78 64/69/64 
f 64/69/64 66/71/66 79/85/79 
f 80/86/80 79/85/79 66/71/66 
f 66/71/66 68/73/68 80/86/80 
f 81/87/81 80/86/80 68/73/68 
f 68/73/68 70/75/70 81/87/81 
f 73/78/73 81/87/81 70/75/70 
f 70/75/70 53/56/53 73/78/73 
f 55/58/55 54/57/54 82/88/82 
f 82/88/82 83/89/83 55/58/55 
f 57/60/57 55/58/55 83/89/83 
f 83/89/83 84/90/84 57/60/57 
f 59/62/59 57/60/57 84/90/84 
f 84/90/84 85/91/85 59/62/59 
f 61/66/61 59/65/59 85/92/85 
f 85/92/85 86/93/86 61/66/61 
f 63/68/63 61/66/61 86/93/86 
f 86/93/86 87/94/87 63/68/63 
f 65/70/65 63/68/63 87/94/87 
f 87/94/87 88/95/88 65/70/65 
f 67/72/67 65/70/65 88/95/88 
f 88/95/88 89/96/89 67/72/67 
f 69/74/69 67/72/67 89/96/89 
f 89/96/89 90/97/90 69/74/69 
f 71/76/71 69/74/69 90/97/90 
f 90/97/90 91/98/91 71/76/71 
f 54/57/54 71/76/71 91/98/91 
f 91/98/91 82/88/82 54/57/54 
f 82/88/82 22/22/22 25/25/25 
f 25/25/25 83/89/83 82/88/82 
f 83/89/83 25/25/25 40/40/40 
f 40/40/40 84/90/84 83/89/83 
f 84/90/84 40/40/40 38/43/38 
f 38/43/38 85/91/85 84/90/84 
f 85/92/85 38/38/38 36/36/36 
f 36/36/36 86/93/86 85/92/85 
f 86/93/86 36/36/36 34/34/34 
f 34/34/34 87/94/87 86/93/86 
f 87/94/87 34/34/34 32/32/32 
f 32/32/32 88/95/88 87/94/87 
f 88/95/88 32/32/32 30/30/30 
f 30/30/30 89/96/89 88/95/88 
f 89/96/89 30/30/30 28/28/28 
f 28/28/28 90/97/90 89/96/89 
f 90/97/90 28/28/28 26/26/26 
f 26/26/26 91/98/91 90/97/90 
f 91/98/91 26/26/26 22/22/22 
f 22/22/22 82/88/82 91/98/91 
f 51/54/51 21/99/21 13/100/13 
f 13/100/13 42/44/42 51/54/51 
f 50/53/50 20/101/20 21/99/21 
f 21/99/21 51/54/51 50/53/50 
f 49/52/49 19/102/19 20/101/20 
f 20/101/20 50/53/50 49/52/49 
f 48/51/48 18/103/18 19/102/19 
f 19/102/19 49/52/49 48/51/48 
f 47/50/47 17/104/17 18/103/18 
f 18/103/18 48/51/48 47/50/47 
f 46/49/46 16/105/16 17/104/17 
f 17/104/17 47/50/47 46/49/46 
f 45/48/45 15/106/15 16/105/16 
f 16/105/16 46/49/46 45/48/45 
f 44/47/44 14/107/14 15/106/15 
f 15/106/15 45/48/45 44/47/44 
f 43/45/43 12/108/12 14/109/14 
f 14/109/14 44/46/44 43/45/43 
f 42/44/42 13/100/13 12/108/12 
f 12/108/12 43/45/43 42/44/42 
f 92/110/92 93/111/93 94/112/94 
f 94/112/94 95/113/95 92/110/92 
f 93/111/93 96/114/96 97/115/97 
f 97/115/97 94/112/94 93/111/93 
f 96/114/96 98/116/98 99/117/99 
f 99/117/99 97/115/97 96/114/96 
f 98/116/98 100/118/100 101/119/101 
f 101/119/101 99/117/99 98/116/98 
f 100/118/100 102/120/102 103/121/103 
f 103/121/103 101/119/101 100/118/100 
f 102/120/102 104/122/104 105/123/105 
f 105/123/105 103/121/103 102/120/102 
f 104/122/104 106/124/106 107/125/107 
f 107/125/107 105/123/105 104/122/104 
f 106/126/106 108/127/108 109/128/109 
f 109/128/109 107/129/107 106/126/106 
f 108/127/108 110/130/110 111/131/111 
f 111/131/111 109/128/109 108/127/108 
f 110/130/110 92/110/92 95/113/95 
f 95/113/95 111/131/111 110/130/110 
f 112/132/112 93/111/93 92/110/92 
f 92/110/92 113/133/113 112/132/112 
f 114/134/114 96/114/96 93/111/93 
f 93/111/93 112/132/112 114/134/114 
f 115/135/115 98/116/98 96/114/96 
f 96/114/96 114/134/114 115/135/115 
f 116/136/116 100/118/100 98/116/98 
f 98/116/98 115/135/115 116/136/116 
f 117/137/117 102/120/102 100/118/100 
f 100/118/100 116/136/116 117/137/117 
f 118/138/118 104/122/104 102/120/102 
f 102/120/102 117/137/117 118/138/118 
f 119/139/119 106/124/106 104/122/104 
f 104/122/104 118/138/118 119/139/119 
f 120/140/120 108/127/108 106/126/106 
f 106/126/106 119/141/119 120/140/120 
f 121/142/121 110/130/110 108/127/108 
f 108/127/108 120/140/120 121/142/121 
f 113/133/113 92/110/92 110/130/110 
f 110/130/110 121/142/121 113/133/113 
f 95/113/95 73/143/73 72/144/72 
f 72/144/72 111/131/111 95/113/95 
f 111/131/111 72/144/72 74/145/74 
f 74/145/74 109/128/109 111/131/111 
f 109/128/109 74/145/74 75/146/75 
f 75/146/75 107/129/107 109/128/109 
f 107/125/107 75/147/75 76/148/76 
f 76/148/76 105/123/105 107/125/107 
f 105/123/105 76/148/76 77/149/77 
f 77/149/77 103/121/103 105/123/105 
f 103/121/103 77/149/77 78/150/78 
f 78/150/78 101/119/101 103/121/103 
f 101/119/101 78/150/78 79/151/79 
f 79/151/79 99/117/99 101/119/101 
f 99/117/99 79/151/79 80/152/80 
f 80/152/80 97/115/97 99/117/99 
f 97/115/97 80/152/80 81/153/81 
f 81/153/81 94/112/94 97/115/97 
f 94/112/94 81/153/81 73/143/73 
f 73/143/73 95/113/95 94/112/94 
f 122/154/122 113/155/122 121/156/122 
f 121/156/122 123/157/122 122/154/122 
f 123/157/122 121/156/122 120/158/122 
f 120/158/122 124/159/122 123/157/122 
f 124/159/122 120/158/122 119/160/122 
f 119/160/122 125/161/122 124/159/122 
f 125/161/122 119/160/122 118/162/122 
f 118/162/122 126/163/122 125/161/122 
f 126/163/122 118/162/122 117/164/122 
f 117/164/122 127/165/122 126/163/122 
f 127/165/123 117/164/123 116/166/123 
f 116/166/123 128/167/123 127/165/123 
f 128/167/122 116/166/122 115/168/122 
f 115/168/122 129/169/122 128/167/122 
f 129/169/122 115/168/122 114/170/122 
f 114/170/122 130/171/122 129/169/122 
f 130/171/122 114/170/122 112/172/122 
f 112/172/122 131/173/122 130/171/122 
f 131/173/123 112/172/123 113/155/123 
f 113/155/123 122/154/123 131/173/123 
f 132/174/124 122/175/124 123/176/125 
f 123/176/125 133/177/125 132/174/124 
f 133/177/125 123/176/125 124/178/126 
f 124/178/126 134/179/126 133/177/125 
f 134/179/126 124/178/126 125/180/127 
f 125/180/127 135/181/127 134/179/126 
f 135/182/127 125/183/127 126/184/128 
f 126/184/128 136/185/128 135/182/127 
f 136/185/128 126/184/128 127/186/129 
f 127/186/129 137/187/129 136/185/128 
f 137/187/129 127/186/129 128/188/130 
f 128/188/130 138/189/130 137/187/129 
f 138/189/130 128/188/130 129/190/131 
f 129/190/131 139/191/131 138/189/130 
f 139/191/131 129/190/131 130/192/132 
f 130/192/132 140/193/132 139/191/131 
f 140/193/132 130/192/132 131/194/133 
f 131/194/133 141/195/133 140/193/132 
f 141/195/133 131/194/133 122/175/124 
f 122/175/124 132/174/124 141/195/133 
f 142/196/134 132/197/134 133/198/134 
f 142/196/134 133/198/134 134/199/134 
f 142/196/122 134/199/122 135/200/122 
f 142/196/122 135/200/122 136/201/122 
f 142/196/122 136/201/122 137/202/122 
f 142/196/123 137/202/123 138/203/123 
f 142/196/123 138/203/123 139/204/123 
f 142/196/123 139/204/123 140/205/123 
f 142/196/135 140/205/135 141/206/135 
f 142/196/135 141/206/135 132/197/135 
# 280 faces

