# 3ds Max Wavefront OBJ Exporter v0.97b - (c)2007 guruware
# File Created: 31.05.2019 12:24:07

mtllib contenedor.mtl

#
# object Cube
#

v  -78.2375 284.4437 134.2350
v  -78.2375 345.4230 134.2350
v  -78.2375 364.2605 122.8264
v  -78.2375 40.5265 134.2351
v  -78.2375 379.0087 42.8661
v  -78.2374 40.5265 42.8661
v  87.4864 40.5265 -57.1339
v  87.4864 40.5265 42.8661
v  -78.2374 40.5265 -48.5030
v  -62.4762 40.5265 -57.1339
v  237.4491 374.9268 -41.8030
v  87.4864 374.9268 -41.8030
v  87.4864 390.9404 42.8661
v  237.4490 390.9404 42.8661
v  237.4491 349.6132 -57.1339
v  87.4864 349.6132 -57.1339
v  87.4863 374.9268 127.5352
v  237.4489 374.9268 127.5353
v  -62.4762 390.9404 42.8661
v  -62.4763 374.9268 127.5352
v  -62.4762 349.6132 -57.1339
v  -62.4762 374.9268 -41.8030
v  -78.2374 364.2605 -37.0942
v  -78.2374 345.4230 -48.5029
v  237.4490 40.5265 -57.1339
v  253.2102 40.5265 42.8661
v  253.2102 40.5265 134.2351
v  237.4490 40.5265 142.8661
v  87.4864 40.5265 142.8661
v  253.2102 379.0087 42.8661
v  253.2101 364.2605 122.8265
v  253.2101 345.4230 134.2352
v  253.2101 284.4437 134.2351
v  -62.4762 40.5265 142.8661
v  237.4489 287.7958 127.5294
v  237.4489 349.6132 127.5294
v  237.4489 349.6132 -10.5015
v  237.4489 287.7958 -10.5015
v  87.4863 287.7958 -10.5015
v  87.4863 271.3987 -10.5015
v  237.4489 251.5593 -10.5015
v  87.4863 349.6132 142.8661
v  237.4489 349.6132 142.8661
v  -62.4763 349.6132 142.8661
v  253.2102 40.5265 -48.5029
v  253.2103 345.4230 -48.5029
v  253.2103 364.2605 -37.0942
v  237.4489 287.7958 142.8661
v  -62.4763 287.7958 142.8661
v  87.4863 287.7958 142.8661
v  87.4863 349.6132 -10.5015
v  -62.4762 349.6132 -10.5015
v  -62.4762 287.7958 -10.5015
v  87.4863 349.6132 127.5293
v  -62.4763 349.6132 127.5293
v  -62.4763 287.7958 127.5293
v  87.4863 287.7958 127.5293
v  87.4863 254.2553 127.5293
v  12.5050 241.0409 127.5293
v  -62.4763 245.0931 127.5293
v  237.4489 251.5593 127.5294
v  87.4863 260.5983 58.5139
v  12.5050 258.6050 58.5139
v  12.5051 275.8717 -10.5015
v  -62.4762 262.7805 -10.5015
v  -62.4762 256.3143 58.5139
# 66 vertices

vn -1.0000 -0.0000 -0.0000
vn -0.0000 -1.0000 -0.0000
vn 0.3682 0.8102 -0.4560
vn 0.0000 0.8723 -0.4889
vn 0.0000 1.0000 -0.0000
vn 0.3718 0.9283 -0.0000
vn 0.3685 0.3133 -0.8752
vn 0.0000 0.3370 -0.9415
vn 0.0000 0.8723 0.4889
vn 0.3682 0.8102 0.4560
vn -0.3718 0.9283 -0.0000
vn -0.3682 0.8102 0.4560
vn 0.0000 0.0000 -1.0000
vn -0.3682 0.8102 -0.4560
vn 0.0000 -1.0000 -0.0000
vn 1.0000 0.0000 0.0000
vn -0.0000 -0.0000 1.0000
vn -0.3685 0.3133 -0.8752
vn 0.0000 -0.4274 0.9040
vn 0.1039 0.0068 0.9945
vn -0.1039 0.0068 0.9945
vn 1.0000 -0.0000 0.0000
vn -0.9009 0.1463 -0.4086
vn -0.8993 0.3827 -0.2115
vn -0.8993 0.3827 0.2115
vn -0.9009 0.1463 0.4086
vn 0.8993 0.3827 -0.2115
vn 0.9009 0.1463 -0.4086
vn 0.9009 0.1463 0.4086
vn 0.8993 0.3827 0.2115
vn 0.7071 -0.0000 -0.7071
vn 0.9123 0.4094 -0.0000
vn 0.7071 0.0000 0.7071
vn -0.7071 -0.0000 0.7071
vn -0.9123 0.4094 -0.0000
vn -0.7071 0.0000 -0.7071
vn -0.7071 0.0000 0.7071
vn 1.0000 0.0000 -0.0000
vn -0.0000 1.0000 -0.0000
vn 0.0907 0.9948 0.0456
vn 0.0220 0.9887 0.1483
vn -0.0000 0.0000 1.0000
vn -1.0000 0.0000 -0.0000
vn -0.1358 0.9829 0.1246
vn 0.0156 0.9883 0.1520
vn -0.1342 0.9830 0.1255
# 46 vertex normals

vt 0.3253 0.1072 0.0000
vt 0.3253 0.0381 0.0000
vt 0.3431 0.0167 0.0000
vt 0.3253 0.3836 0.0000
vt 0.4677 0.0000 0.0000
vt 0.4677 0.3836 0.0000
vt 0.7228 0.3836 0.0000
vt 0.7228 0.5373 0.0000
vt 0.5813 0.5373 0.0000
vt 0.5813 0.3969 0.0000
vt 0.5948 0.3836 0.0000
vt 0.6236 0.2658 0.0000
vt 0.6236 0.1396 0.0000
vt 0.7544 0.1400 0.0000
vt 0.7544 0.2662 0.0000
vt 0.5679 0.4123 0.0000
vt 0.4399 0.4123 0.0000
vt 0.4399 0.3836 0.0000
vt 0.5679 0.3836 0.0000
vt 0.8873 0.1398 0.0000
vt 0.8873 0.2660 0.0000
vt 0.7544 0.0137 0.0000
vt 0.8873 0.0136 0.0000
vt 0.4399 0.7627 0.0000
vt 0.3118 0.7627 0.0000
vt 0.3118 0.4123 0.0000
vt 0.6236 0.0134 0.0000
vt 0.5924 0.0167 0.0000
vt 0.6102 0.0381 0.0000
vt 0.6102 0.3836 0.0000
vt 0.5679 0.7627 0.0000
vt 0.8643 0.5373 0.0000
vt 0.8643 0.6778 0.0000
vt 0.8509 0.6910 0.0000
vt 0.7228 0.6910 0.0000
vt 0.1559 0.3972 0.0000
vt 0.1559 0.0135 0.0000
vt 0.2806 0.0302 0.0000
vt 0.2984 0.0516 0.0000
vt 0.2984 0.1207 0.0000
vt 0.2984 0.3972 0.0000
vt 0.5948 0.6910 0.0000
vt 0.5813 0.6778 0.0000
vt 0.9583 0.2122 0.0000
vt 0.8873 0.2122 0.0000
vt 0.8873 0.0000 0.0000
vt 0.9583 0.0000 0.0000
vt 0.8621 0.6910 0.0000
vt 0.8621 0.8173 0.0000
vt 0.8433 0.8173 0.0000
vt 0.8205 0.6910 0.0000
vt 0.3118 0.3836 0.0000
vt 0.2695 0.6496 0.0000
vt 0.2695 0.5234 0.0000
vt 0.2986 0.5234 0.0000
vt 0.2986 0.6496 0.0000
vt 0.2695 0.3972 0.0000
vt 0.2986 0.3972 0.0000
vt 0.0135 0.3972 0.0000
vt 0.0135 0.0516 0.0000
vt 0.0312 0.0302 0.0000
vt 0.5997 0.0046 0.0000
vt 0.6236 0.0333 0.0000
vt 0.3118 0.0333 0.0000
vt 0.3357 0.0046 0.0000
vt 0.0000 0.0468 0.0000
vt 0.0239 0.0182 0.0000
vt 0.2879 0.0182 0.0000
vt 0.3118 0.0468 0.0000
vt 0.5813 0.4171 0.0000
vt 0.5813 0.7627 0.0000
vt 0.1559 0.0000 0.0000
vt 0.3118 0.1169 0.0000
vt 0.3118 0.3972 0.0000
vt 0.2695 0.4710 0.0000
vt 0.2695 0.7475 0.0000
vt 0.2561 0.7475 0.0000
vt 0.2561 0.4672 0.0000
vt 0.7552 0.0003 0.0000
vt 0.8806 0.0002 0.0000
vt 0.6316 0.0000 0.0000
vt 0.6236 0.3836 0.0000
vt 0.8509 0.3836 0.0000
vt 0.8643 0.3969 0.0000
vt 0.2695 0.4019 0.0000
vt 0.2561 0.3972 0.0000
vt 0.6371 0.2662 0.0000
vt 0.6371 0.3362 0.0000
vt 0.6236 0.3400 0.0000
vt 0.6236 0.2709 0.0000
vt 0.0000 0.7475 0.0000
vt 0.0000 0.4672 0.0000
vt 0.1280 0.4672 0.0000
vt 0.1280 0.7475 0.0000
vt 0.9332 0.8173 0.0000
vt 0.9332 0.9435 0.0000
vt 0.8621 0.9435 0.0000
vt 0.9332 0.6910 0.0000
vt 0.6053 0.8173 0.0000
vt 0.6053 0.6910 0.0000
vt 0.8205 0.8173 0.0000
vt 0.9718 0.8173 0.0000
vt 0.9870 0.8804 0.0000
vt 0.9823 0.9435 0.0000
vt 0.6053 0.9435 0.0000
vt 0.8205 0.9435 0.0000
vt 0.9845 0.5958 0.0000
vt 0.9134 0.5958 0.0000
vt 0.9134 0.3836 0.0000
vt 0.9845 0.3836 0.0000
vt 0.9845 0.6194 0.0000
vt 0.9134 0.6194 0.0000
vt 0.5813 0.9435 0.0000
vt 0.5813 0.8173 0.0000
vt 0.2934 0.6496 0.0000
vt 0.2934 0.7758 0.0000
vt 0.2695 0.7758 0.0000
vt 0.5813 0.6910 0.0000
vt 0.2934 0.9020 0.0000
vt 0.2695 0.9020 0.0000
vt 0.9583 0.2357 0.0000
vt 0.8873 0.2357 0.0000
vt 0.2165 1.0000 0.0000
vt 0.0017 1.0000 0.0000
vt 0.0003 0.8741 0.0000
vt 0.1084 0.8739 0.0000
vt 0.2163 0.8738 0.0000
vt 0.1085 0.8108 0.0000
vt 0.0000 0.8110 0.0000
vt 0.8334 0.9435 0.0000
vt 0.8484 0.8804 0.0000
vt 0.8643 0.5958 0.0000
vt 0.8772 0.4897 0.0000
vt 0.8847 0.3836 0.0000
vt 1.0000 0.0000 0.0000
vt 1.0000 0.2122 0.0000
vt 0.9749 0.6910 0.0000
vt 0.1086 0.7477 0.0000
vt 0.0008 0.7478 0.0000
vt 0.2168 0.7475 0.0000
vt 0.2171 0.8105 0.0000
# 141 texture coords

o Cube
g Cube
usemtl Material
s off
f 1/1/1 2/2/1 3/3/1 
f 4/4/1 1/1/1 3/3/1 
f 4/4/1 3/3/1 5/5/1 
f 4/4/1 5/5/1 6/6/1 
f 7/7/2 8/8/2 6/9/2 
f 7/7/2 6/9/2 9/10/2 
f 7/7/2 9/10/2 10/11/2 
f 11/12/3 12/13/4 13/14/5 
f 13/14/5 14/15/6 11/12/3 
f 15/16/7 16/17/8 12/18/4 
f 12/18/4 11/19/3 15/16/7 
f 14/15/6 13/14/5 17/20/9 
f 17/20/9 18/21/10 14/15/6 
f 13/14/5 19/22/11 20/23/12 
f 20/23/12 17/20/9 13/14/5 
f 16/17/13 7/24/13 10/25/13 
f 10/25/13 21/26/13 16/17/13 
f 12/13/4 22/27/14 19/22/11 
f 19/22/11 13/14/5 12/13/4 
f 6/6/1 5/5/1 23/28/1 
f 6/6/1 23/28/1 24/29/1 
f 6/6/1 24/29/1 9/30/1 
f 15/16/13 25/31/13 7/24/13 
f 7/24/13 16/17/13 15/16/13 
f 26/32/15 27/33/15 28/34/15 
f 26/32/15 28/34/15 29/35/15 
f 26/32/15 29/35/15 8/8/15 
f 26/36/16 30/37/16 31/38/16 
f 31/38/16 32/39/16 33/40/16 
f 26/36/16 31/38/16 33/40/16 
f 26/36/16 33/40/16 27/41/16 
f 8/8/15 29/35/15 34/42/15 
f 8/8/15 34/42/15 4/43/15 
f 8/8/15 4/43/15 6/9/15 
f 35/44/1 36/45/1 37/46/1 
f 37/46/1 38/47/1 35/44/1 
f 38/48/17 39/49/17 40/50/17 
f 40/50/17 41/51/17 38/48/17 
f 16/17/8 21/26/18 22/52/14 
f 22/52/14 12/18/4 16/17/8 
f 18/53/10 17/54/9 42/55/19 
f 42/55/19 43/56/20 18/53/10 
f 17/54/9 20/57/12 44/58/21 
f 44/58/21 42/55/19 17/54/9 
f 45/59/22 46/60/22 47/61/22 
f 45/59/22 47/61/22 30/37/22 
f 45/59/22 30/37/22 26/36/22 
f 24/29/23 23/28/24 22/62/14 
f 22/62/14 21/63/18 24/29/23 
f 3/3/25 2/2/26 44/64/21 
f 44/64/21 20/65/12 3/3/25 
f 47/61/27 46/60/28 15/66/7 
f 15/66/7 11/67/3 47/61/27 
f 32/39/29 31/38/30 18/68/10 
f 18/68/10 43/69/20 32/39/29 
f 46/70/31 45/71/31 25/31/31 
f 25/31/31 15/16/31 46/70/31 
f 11/67/3 14/72/6 30/37/32 
f 30/37/32 47/61/27 11/67/3 
f 14/72/6 18/68/10 31/38/30 
f 31/38/30 30/37/32 14/72/6 
f 48/73/33 28/74/33 27/41/33 
f 27/41/33 33/40/33 48/73/33 
f 1/75/34 4/76/34 34/77/34 
f 34/77/34 49/78/34 1/75/34 
f 5/79/35 3/80/25 20/23/12 
f 20/23/12 19/22/11 5/79/35 
f 19/22/11 22/27/14 23/81/24 
f 23/81/24 5/79/35 19/22/11 
f 21/63/36 10/82/36 9/30/36 
f 9/30/36 24/29/36 21/63/36 
f 25/83/15 45/84/15 26/32/15 
f 25/83/15 26/32/15 8/8/15 
f 25/83/15 8/8/15 7/7/15 
f 2/85/37 1/75/37 49/78/37 
f 49/78/37 44/86/37 2/85/37 
f 43/87/33 48/88/33 33/89/33 
f 33/89/33 32/90/33 43/87/33 
f 28/91/17 48/92/17 50/93/17 
f 50/93/17 29/94/17 28/91/17 
f 29/94/17 50/93/17 49/78/17 
f 49/78/17 34/77/17 29/94/17 
f 39/49/17 51/95/17 52/96/17 
f 52/96/17 53/97/17 39/49/17 
f 38/48/17 37/98/17 51/95/17 
f 51/95/17 39/49/17 38/48/17 
f 54/99/2 55/100/2 52/51/2 
f 52/51/2 51/101/2 54/99/2 
f 56/96/13 57/95/13 58/102/13 
f 56/96/13 58/102/13 59/103/13 
f 56/96/13 59/103/13 60/104/13 
f 36/105/15 54/99/15 51/101/15 
f 51/101/15 37/106/15 36/105/15 
f 55/107/16 56/108/16 53/109/16 
f 53/109/16 52/110/16 55/107/16 
f 44/111/38 49/112/38 56/108/38 
f 56/108/38 55/107/38 44/111/38 
f 43/113/2 42/114/2 54/99/2 
f 54/99/2 36/105/2 43/113/2 
f 49/115/5 50/116/5 57/117/5 
f 57/117/5 56/53/5 49/115/5 
f 42/114/2 44/118/2 55/100/2 
f 55/100/2 54/99/2 42/114/2 
f 50/116/39 48/119/39 35/120/39 
f 35/120/39 57/117/39 50/116/39 
f 48/121/1 43/122/1 36/45/1 
f 36/45/1 35/44/1 48/121/1 
f 61/123/40 41/124/40 40/125/40 
f 61/123/40 40/125/40 62/126/40 
f 58/127/40 61/123/40 62/126/40 
f 63/128/41 62/126/41 40/125/41 
f 40/125/41 64/129/41 63/128/41 
f 53/97/42 65/130/42 64/131/42 
f 39/49/42 53/97/42 64/131/42 
f 39/49/42 64/131/42 40/50/42 
f 53/109/16 56/108/16 60/132/16 
f 53/109/16 60/132/16 66/133/16 
f 53/109/16 66/133/16 65/134/16 
f 35/44/43 38/47/43 41/135/43 
f 41/135/43 61/136/43 35/44/43 
f 57/95/13 35/98/13 61/137/13 
f 61/137/13 58/102/13 57/95/13 
f 66/138/44 63/128/44 64/129/44 
f 64/129/44 65/139/44 66/138/44 
f 60/140/45 59/141/45 63/128/45 
f 63/128/45 66/138/45 60/140/45 
f 59/141/46 58/127/46 62/126/46 
f 62/126/46 63/128/46 59/141/46 
# 128 faces

