# 
# Generated by Sweet Home 3D - lun may 13 15:08:10 CEST 2019
# http://www.sweethome3d.com/
# 
mtllib Pipo3.mtl
g ground_1
usemtl ground_1
v 5000.0 0.0 4966.4443
v 5000.0 0.0 5000.0
v -14.33983 0.0 5000.0
v -14.33983 0.0 18634.193
v 24963.16 0.0 18634.193
v 24963.16 0.0 4966.4443
vn 0.0 1.0 0.0
vn 0.0 0.0 0.0
f 5//1 6//1 1//1
f 5//1 1//1 2//1
f 5//1 2//1 3//1
f 5//1 3//1 4//1
v -14.33983 0.0 4966.4443
f 7//1 3//1 2//1
f 7//1 2//1 1//1
g wall_1_2
usemtl wall_1_2
v -10.589233 0.0 4966.4443
v -10.589233 0.0 4970.1943
v 24959.41 0.0 4970.1943
vn 0.0 -1.0 0.0
f 6//3 10//3 9//3
f 6//3 9//3 8//3
g wall_1_3
usemtl wall_1_2
v -10.589233 0.0 4973.9443
v 24955.66 0.0 4973.9443
f 10//3 12//3 11//3
f 10//3 11//3 9//3
g wall_1_4
usemtl wall_1_2
v -10.589233 250.0 4970.1943
v -10.589233 250.0 4966.4443
v 24963.16 250.0 4966.4443
v 24959.41 250.0 4970.1943
vn -1.0 0.0 0.0
vn 0.70710677 0.0 0.70710677
vn 0.0 0.0 -1.0
f 8//4 9//4 13//4 14//4
f 10//5 6//5 15//5 16//5
f 6//6 8//6 14//6 15//6
g wall_1_5
usemtl wall_1_2
v -10.589233 250.0 4973.9443
v 24955.66 250.0 4973.9443
vn 0.0 0.0 1.0
f 9//4 11//4 17//4 13//4
f 11//7 12//7 18//7 17//7
f 12//5 10//5 16//5 18//5
g wall_1_6
usemtl wall_1_2
f 14//1 13//1 16//1
f 14//1 16//1 15//1
g wall_1_7
usemtl wall_1_2
f 13//1 17//1 18//1
f 13//1 18//1 16//1
g wall_2_8
usemtl wall_1_2
v 24959.41 0.0 12530.194
v 24963.16 0.0 12533.944
f 20//3 19//3 10//3
f 20//3 10//3 6//3
g wall_2_9
usemtl wall_1_2
v 24955.66 0.0 12526.444
f 19//3 21//3 12//3
f 19//3 12//3 10//3
g wall_2_10
usemtl wall_1_2
v 24963.16 250.0 12533.944
v 24959.41 250.0 12530.194
vn -0.70710677 0.0 -0.70710677
vn -0.70710677 0.0 0.70710677
vn 1.0 0.0 0.0
f 6//8 10//8 16//8 15//8
f 19//9 20//9 22//9 23//9
f 20//10 6//10 15//10 22//10
g wall_2_11
usemtl wall_1_2
v 24955.66 250.0 12526.444
f 10//8 12//8 18//8 16//8
f 12//4 21//4 24//4 18//4
f 21//9 19//9 23//9 24//9
g wall_2_12
usemtl wall_1_2
f 15//1 16//1 23//1
f 15//1 23//1 22//1
g wall_2_13
usemtl wall_1_2
f 16//1 18//1 24//1
f 16//1 24//1 23//1
g wall_3_14
usemtl wall_1_2
v 9359.41 0.0 12530.194
v 9363.16 0.0 12533.944
f 19//3 20//3 26//3
f 19//3 26//3 25//3
g wall_3_15
usemtl wall_1_2
v 9355.66 0.0 12526.444
f 21//3 19//3 25//3
f 21//3 25//3 27//3
g wall_3_16
usemtl wall_1_2
v 9363.16 250.0 12533.944
v 9359.41 250.0 12530.194
vn 0.70710677 0.0 -0.70710677
f 25//9 26//9 28//9 29//9
f 26//7 20//7 22//7 28//7
f 20//11 19//11 23//11 22//11
g wall_3_17
usemtl wall_1_2
v 9355.66 250.0 12526.444
f 27//9 25//9 29//9 30//9
f 19//11 21//11 24//11 23//11
f 21//6 27//6 30//6 24//6
g wall_3_18
usemtl wall_1_2
f 29//1 28//1 22//1
f 29//1 22//1 23//1
g wall_3_19
usemtl wall_1_2
f 30//1 29//1 23//1
f 30//1 23//1 24//1
g wall_4_20
usemtl wall_1_2
v -10.589233 0.0 18630.195
v -14.339233 0.0 18633.945
v 5237.9106 0.0 18633.945
v 5237.9106 0.0 18630.195
f 34//3 33//3 32//3
f 34//3 32//3 31//3
g wall_4_21
usemtl wall_1_2
v -6.8392334 0.0 18626.445
v 5237.9106 0.0 18626.445
f 36//3 34//3 31//3
f 36//3 31//3 35//3
g wall_4_22
usemtl wall_1_2
v -14.339233 250.0 18633.945
v -10.589233 250.0 18630.195
v 5237.9106 250.0 18633.945
v 5237.9106 250.0 18630.195
f 31//8 32//8 37//8 38//8
f 32//7 33//7 39//7 37//7
f 33//10 34//10 40//10 39//10
g wall_4_23
usemtl wall_1_2
v -6.8392334 250.0 18626.445
v 5237.9106 250.0 18626.445
f 35//8 31//8 38//8 41//8
f 34//10 36//10 42//10 40//10
f 36//6 35//6 41//6 42//6
g wall_4_24
usemtl wall_1_2
f 38//1 37//1 39//1
f 38//1 39//1 40//1
g wall_4_25
usemtl wall_1_2
f 41//1 38//1 40//1
f 41//1 40//1 42//1
g wall_5_26
usemtl wall_1_2
v -14.33983 0.0 4970.1943
v -10.58983 0.0 4970.1943
f 44//3 31//3 32//3
f 44//3 32//3 43//3
g wall_5_27
usemtl wall_1_2
v -6.8398304 0.0 4970.1943
f 45//3 35//3 31//3
f 45//3 31//3 44//3
g wall_5_28
usemtl wall_1_2
v -14.33983 250.0 4970.1943
v -10.58983 250.0 4970.1943
vn -1.0 0.0 0
f 43//12 32//12 37//12 46//12
f 32//5 31//5 38//5 37//5
f 44//6 43//6 46//6 47//6
g wall_5_29
usemtl wall_1_2
v -6.8398304 250.0 4970.1943
vn 1.0 0.0 -0
f 31//5 35//5 41//5 38//5
f 35//13 45//13 48//13 41//13
f 45//6 44//6 47//6 48//6
g wall_5_30
usemtl wall_1_2
f 46//1 37//1 38//1
f 46//1 38//1 47//1
g wall_5_31
usemtl wall_1_2
f 47//1 38//1 41//1
f 47//1 41//1 48//1
g wall_6_32
usemtl wall_1_2
v 9359.41 0.0 16250.194
v 9363.16 0.0 16252.36
f 26//3 50//3 49//3
f 26//3 49//3 25//3
g wall_6_33
usemtl wall_1_2
v 9355.66 0.0 16248.028
f 25//3 49//3 51//3
f 25//3 51//3 27//3
g wall_6_34
usemtl wall_1_2
v 9363.16 250.0 16252.36
v 9359.41 250.0 16250.194
vn -0.5001649 0.0 0.86593026
f 49//14 50//14 52//14 53//14
f 50//10 26//10 28//10 52//10
f 26//11 25//11 29//11 28//11
g wall_6_35
usemtl wall_1_2
v 9355.66 250.0 16248.028
f 27//4 51//4 54//4 30//4
f 51//14 49//14 53//14 54//14
f 25//11 27//11 30//11 29//11
g wall_6_36
usemtl wall_1_2
f 29//1 53//1 52//1
f 29//1 52//1 28//1
g wall_6_37
usemtl wall_1_2
f 30//1 54//1 53//1
f 30//1 53//1 29//1
g wall_7_38
usemtl wall_1_2
v 5235.83 0.0 18630.945
v 5237.705 0.0 18634.193
f 50//3 56//3 55//3
f 50//3 55//3 49//3
g wall_7_39
usemtl wall_1_2
v 5233.955 0.0 18627.697
f 49//3 55//3 57//3
f 49//3 57//3 51//3
g wall_7_40
usemtl wall_1_2
v 5237.705 250.0 18634.193
v 5235.83 250.0 18630.945
vn -0.8660555 0.0 0.49994785
vn 0.50000006 0.0 0.8660254
vn 0.5001649 0.0 -0.86593026
f 55//15 56//15 58//15 59//15
f 56//16 50//16 52//16 58//16
f 50//17 49//17 53//17 52//17
g wall_7_41
usemtl wall_1_2
v 5233.955 250.0 18627.697
vn -0.50000024 0.0 -0.86602527
f 51//18 57//18 60//18 54//18
f 57//15 55//15 59//15 60//15
f 49//17 51//17 54//17 53//17
g wall_7_42
usemtl wall_1_2
f 53//1 59//1 58//1
f 53//1 58//1 52//1
g wall_7_43
usemtl wall_1_2
f 54//1 60//1 59//1
f 54//1 59//1 53//1
