# 3ds Max Wavefront OBJ Exporter v0.97b - (c)2007 guruware
# File Created: 24.03.2019 13:21:11

mtllib Estantería.mtl

#
# object pCube1
#

v  -2.4224 1.0874 1.0062
v  -1.1232 1.0874 1.0062
v  -1.1976 1.2519 1.0062
v  -2.4224 1.2519 1.0062
v  -1.1976 1.2519 -1.0062
v  -2.4224 1.2519 -1.0062
v  -1.1232 1.0874 -1.0062
v  -2.4224 1.0874 -1.0062
v  2.4224 1.0874 1.0062
v  2.4224 1.0874 -1.0062
v  2.4224 1.2519 -1.0062
v  2.4224 1.2519 1.0062
v  1.1878 1.2519 1.0062
v  1.1878 1.2519 -1.0062
v  1.1217 1.0874 -1.0062
v  1.1217 1.0874 1.0062
v  -1.1388 1.2519 1.0062
v  -1.1388 1.2519 -1.0062
v  -1.0174 1.0874 -1.0062
v  -1.1232 0.6158 -0.3324
v  -1.1232 0.6158 -1.0078
v  -1.0174 0.6158 -1.0078
v  -1.0174 0.6158 -0.3324
v  -1.0174 1.0874 1.0062
v  1.1355 1.2519 1.0062
v  1.1355 1.2519 -1.0062
v  1.0053 1.0874 -1.0062
v  1.0053 1.0874 1.0062
v  1.0053 0.6158 -0.3324
v  1.0053 0.6158 -1.0078
v  1.1217 0.6158 -1.0078
v  1.1217 0.6158 -0.3324
v  -1.1232 1.0874 0.5181
v  -1.0174 1.0874 0.5181
v  1.0053 1.0874 0.5181
v  1.1217 1.0874 0.5181
# 36 vertices

vn 0.0000 -0.0000 1.0000
vn 0.0000 1.0000 0.0000
vn 0.0000 0.0000 -1.0000
vn 0.0000 -1.0000 -0.0000
vn 1.0000 0.0000 -0.0000
vn -1.0000 0.0000 -0.0000
vn 0.0000 0.0000 0.0000
vn 0.0000 0.0000 -0.0000
vn 0.0000 -0.0000 -0.0000
vn -1.0000 -0.0000 -0.0000
vn 0.0000 0.0003 -1.0000
vn 1.0000 0.0000 0.0000
vn 0.0000 -0.1459 0.9893
# 13 vertex normals

vt 0.3750 0.0000 0.0000
vt 0.4382 0.0000 0.0000
vt 0.4382 0.2500 0.0000
vt 0.3750 0.2500 0.0000
vt 0.4382 0.5000 0.0000
vt 0.3750 0.5000 0.0000
vt 0.4382 0.7500 0.0000
vt 0.3750 0.7500 0.0000
vt 0.4382 1.0000 0.0000
vt 0.3750 1.0000 0.0000
vt 0.6250 0.0000 0.0000
vt 0.8750 0.0000 0.0000
vt 0.8750 0.2500 0.0000
vt 0.6250 0.2500 0.0000
vt 0.1250 0.0000 0.0000
vt 0.1250 0.2500 0.0000
vt 0.5613 0.2500 0.0000
vt 0.6250 0.5000 0.0000
vt 0.5613 0.5000 0.0000
vt 0.5613 0.7500 0.0000
vt 0.6250 0.7500 0.0000
vt 0.5613 1.0000 0.0000
vt 0.6250 1.0000 0.0000
vt 0.5613 0.0000 0.0000
vt 0.4412 0.2500 0.0000
vt 0.4412 0.5000 0.0000
vt 0.4412 0.7500 0.0000
vt 0.4412 1.0000 0.0000
vt 0.4412 0.0000 0.0000
vt 0.5586 0.2500 0.0000
vt 0.5586 0.5000 0.0000
vt 0.5586 0.7500 0.0000
vt 0.5586 1.0000 0.0000
vt 0.5586 0.0000 0.0000
# 34 texture coords

o pCube1
g pCube1
usemtl lambert1
s off
f 1/1/1 2/2/1 3/3/1 
f 3/3/1 4/4/1 1/1/1 
f 4/4/2 3/3/2 5/5/2 
f 5/5/2 6/6/2 4/4/2 
f 6/6/3 5/5/3 7/7/3 
f 7/7/3 8/8/3 6/6/3 
f 8/8/4 7/7/4 2/9/4 
f 2/9/4 1/10/4 8/8/4 
f 9/11/5 10/12/5 11/13/5 
f 11/13/5 12/14/5 9/11/5 
f 8/15/6 1/1/6 4/4/6 
f 4/4/6 6/16/6 8/15/6 
f 13/17/2 12/14/2 11/18/2 
f 11/18/2 14/19/2 13/17/2 
f 15/20/3 14/19/3 11/18/3 
f 11/18/3 10/21/3 15/20/3 
f 16/22/4 15/20/4 10/21/4 
f 10/21/4 9/23/4 16/22/4 
f 13/17/1 16/24/1 9/11/1 
f 9/11/1 12/14/1 13/17/1 
f 3/3/2 17/25/2 18/26/2 
f 18/26/2 5/5/2 3/3/2 
f 7/7/3 5/5/3 18/26/3 
f 18/26/3 19/27/3 7/7/3 
f 20/9/4 21/7/4 22/27/4 
f 22/27/4 23/28/4 20/9/4 
f 3/3/1 2/2/1 24/29/1 
f 24/29/1 17/25/1 3/3/1 
f 17/25/2 25/30/2 26/31/2 
f 26/31/2 18/26/2 17/25/2 
f 19/27/3 18/26/3 26/31/3 
f 26/31/3 27/32/3 19/27/3 
f 24/28/4 19/27/4 27/32/4 
f 27/32/4 28/33/4 24/28/4 
f 17/25/1 24/29/1 28/34/1 
f 28/34/1 25/30/1 17/25/1 
f 25/30/2 13/17/2 14/19/2 
f 14/19/2 26/31/2 25/30/2 
f 27/32/3 26/31/3 14/19/3 
f 14/19/3 15/20/3 27/32/3 
f 29/33/4 30/32/4 31/20/4 
f 31/20/4 32/22/4 29/33/4 
f 25/30/1 28/34/1 16/24/1 
f 16/24/1 13/17/1 25/30/1 
f 2/9/7 7/7/7 7/7/7 
f 7/7/7 33/9/7 2/9/7 
f 7/7/8 19/27/8 19/27/8 
f 19/27/8 7/7/8 7/7/8 
f 19/27/8 24/28/8 34/28/8 
f 34/28/8 19/27/8 19/27/8 
f 24/28/4 2/9/4 33/9/4 
f 33/9/4 34/28/4 24/28/4 
f 28/33/9 27/32/9 27/32/9 
f 27/32/9 35/33/4 28/33/9 
f 27/32/8 15/20/8 15/20/8 
f 15/20/8 27/32/8 27/32/8 
f 15/20/8 16/22/8 36/22/8 
f 36/22/8 15/20/8 15/20/8 
f 16/22/4 28/33/4 35/33/4 
f 35/33/4 36/22/4 16/22/4 
f 33/9/10 7/7/10 21/7/10 
f 21/7/10 20/9/10 33/9/10 
f 7/7/11 19/27/11 22/27/11 
f 22/27/11 21/7/11 7/7/11 
f 19/27/12 34/28/12 23/28/12 
f 23/28/12 22/27/12 19/27/12 
f 34/28/13 33/9/13 20/9/13 
f 20/9/13 23/28/13 34/28/13 
f 35/33/6 27/32/6 30/32/6 
f 30/32/6 29/33/6 35/33/6 
f 27/32/11 15/20/11 31/20/11 
f 31/20/11 30/32/11 27/32/11 
f 15/20/12 36/22/12 32/22/12 
f 32/22/12 31/20/12 15/20/12 
f 36/22/13 35/33/13 29/33/13 
f 29/33/13 32/22/13 36/22/13 
# 76 faces

